<svg width="25" height="24" viewBox="0 0 25 24" fill="none" xmlns="http://www.w3.org/2000/svg">
<path d="M16.21 12.71C17.1904 11.9387 17.906 10.8809 18.2572 9.68394C18.6085 8.48697 18.5779 7.21027 18.1698 6.03147C17.7617 4.85267 16.9963 3.83039 15.9801 3.10686C14.9639 2.38332 13.7474 1.99451 12.5 1.99451C11.2525 1.99451 10.0361 2.38332 9.01993 3.10686C8.00374 3.83039 7.23834 4.85267 6.83021 6.03147C6.42208 7.21027 6.39151 8.48697 6.74276 9.68394C7.09401 10.8809 7.8096 11.9387 8.79 12.71C7.11007 13.383 5.64428 14.4994 4.54889 15.9399C3.45349 17.3805 2.76956 19.0913 2.57 20.89C2.55555 21.0213 2.56711 21.1542 2.60402 21.2811C2.64093 21.4079 2.70246 21.5263 2.78511 21.6293C2.95202 21.8375 3.19478 21.9708 3.46 22C3.72521 22.0292 3.99116 21.9518 4.19932 21.7849C4.40749 21.618 4.54082 21.3752 4.57 21.11C4.78958 19.1552 5.72168 17.3498 7.18822 16.0388C8.65475 14.7278 10.5529 14.003 12.52 14.003C14.4871 14.003 16.3852 14.7278 17.8518 16.0388C19.3183 17.3498 20.2504 19.1552 20.47 21.11C20.4972 21.3557 20.6144 21.5827 20.7991 21.747C20.9838 21.9114 21.2228 22.0015 21.47 22H21.58C21.8421 21.9698 22.0817 21.8373 22.2466 21.6313C22.4114 21.4252 22.4881 21.1624 22.46 20.9C22.2595 19.0962 21.5719 17.381 20.4708 15.9382C19.3698 14.4954 17.8969 13.3795 16.21 12.71ZM12.5 12C11.7089 12 10.9355 11.7654 10.2777 11.3259C9.61992 10.8864 9.10723 10.2616 8.80448 9.53074C8.50173 8.79983 8.42251 7.99557 8.57686 7.21964C8.7312 6.44372 9.11216 5.73099 9.67157 5.17158C10.231 4.61217 10.9437 4.2312 11.7196 4.07686C12.4956 3.92252 13.2998 4.00173 14.0307 4.30448C14.7616 4.60724 15.3863 5.11993 15.8259 5.77772C16.2654 6.43552 16.5 7.20888 16.5 8C16.5 9.06087 16.0786 10.0783 15.3284 10.8284C14.5783 11.5786 13.5609 12 12.5 12Z" fill="#A0A4A8"/>
</svg>
