<svg width="24" height="25" viewBox="0 0 24 25" fill="none" xmlns="http://www.w3.org/2000/svg">
<path d="M12 24.5C18.6274 24.5 24 19.1274 24 12.5C24 5.87258 18.6274 0.5 12 0.5C5.37258 0.5 0 5.87258 0 12.5C0 19.1274 5.37258 24.5 12 24.5Z" fill="white"/>
<path d="M15.4937 9.25844C15.8383 8.91385 16.397 8.91385 16.7416 9.25844C17.0861 9.60302 17.0861 10.1617 16.7416 10.5063L11.4474 15.8004C11.1029 16.145 10.5442 16.145 10.1996 15.8004L7.25844 12.8592C6.91385 12.5146 6.91385 11.956 7.25844 11.6114C7.60302 11.2668 8.16169 11.2668 8.50627 11.6114L10.8235 13.9286L15.4937 9.25844Z" fill="#2AC769"/>
</svg>
