<svg width="35" height="35" viewBox="0 0 35 35" fill="none" xmlns="http://www.w3.org/2000/svg">
<path d="M27.7084 11.6664H24.7917V16.0414H20.4167V18.9581H24.7917V23.3331H27.7084V18.9581H32.0834V16.0414H27.7084V11.6664ZM5.83342 11.6664C5.81546 12.4374 5.95407 13.204 6.24086 13.9198C6.52765 14.6357 6.95668 15.2859 7.50197 15.8312C8.04727 16.3765 8.6975 16.8055 9.41336 17.0923C10.1292 17.3791 10.8958 17.5177 11.6667 17.4998C12.4377 17.5177 13.2043 17.3791 13.9201 17.0923C14.636 16.8055 15.2862 16.3765 15.8315 15.8312C16.3768 15.2859 16.8058 14.6357 17.0926 13.9198C17.3794 13.204 17.518 12.4374 17.5001 11.6664C17.518 10.8955 17.3794 10.1289 17.0926 9.41303C16.8058 8.69718 16.3768 8.04694 15.8315 7.50164C15.2862 6.95635 14.636 6.52733 13.9201 6.24053C13.2043 5.95374 12.4377 5.81513 11.6667 5.83309C10.8958 5.81513 10.1292 5.95374 9.41336 6.24053C8.6975 6.52733 8.04727 6.95635 7.50197 7.50164C6.95668 8.04694 6.52765 8.69718 6.24086 9.41303C5.95407 10.1289 5.81546 10.8955 5.83342 11.6664ZM14.5834 11.6664C14.6022 12.0544 14.5396 12.442 14.3996 12.8044C14.2597 13.1668 14.0455 13.4958 13.7708 13.7705C13.4962 14.0452 13.1671 14.2594 12.8047 14.3993C12.4424 14.5392 12.0547 14.6018 11.6667 14.5831C11.2788 14.6018 10.8911 14.5392 10.5288 14.3993C10.1664 14.2594 9.83733 14.0452 9.56266 13.7705C9.28799 13.4958 9.07381 13.1668 8.93387 12.8044C8.79393 12.442 8.73133 12.0544 8.75008 11.6664C8.73133 11.2784 8.79393 10.8908 8.93387 10.5285C9.07381 10.1661 9.28799 9.83701 9.56266 9.56234C9.83733 9.28767 10.1664 9.07348 10.5288 8.93354C10.8911 8.7936 11.2788 8.731 11.6667 8.74976C12.0547 8.731 12.4424 8.7936 12.8047 8.93354C13.1671 9.07348 13.4962 9.28767 13.7708 9.56234C14.0455 9.83701 14.2597 10.1661 14.3996 10.5285C14.5396 10.8908 14.6022 11.2784 14.5834 11.6664ZM5.83342 26.2498C5.83342 25.0894 6.29435 23.9766 7.11482 23.1562C7.9353 22.3357 9.04809 21.8748 10.2084 21.8748H13.1251C14.2854 21.8748 15.3982 22.3357 16.2187 23.1562C17.0391 23.9766 17.5001 25.0894 17.5001 26.2498V27.7081H20.4167V26.2498C20.4167 25.2922 20.2281 24.344 19.8617 23.4594C19.4953 22.5747 18.9582 21.7709 18.2811 21.0938C17.604 20.4167 16.8001 19.8796 15.9155 19.5131C15.0308 19.1467 14.0826 18.9581 13.1251 18.9581H10.2084C8.27455 18.9581 6.41988 19.7263 5.05243 21.0938C3.68498 22.4612 2.91675 24.3159 2.91675 26.2498V27.7081H5.83342V26.2498Z" fill="#19A5B0"/>
</svg>
