<svg width="221" height="220" viewBox="0 0 221 220" fill="none" xmlns="http://www.w3.org/2000/svg">
<path d="M110.5 220C171.251 220 220.5 206.835 220.5 190.595C220.5 174.355 171.251 161.19 110.5 161.19C49.7487 161.19 0.5 174.355 0.5 190.595C0.5 206.835 49.7487 220 110.5 220Z" fill="#E9B283"/>
<path d="M81.82 91.2423C70.1606 95.6531 64.9718 98.3975 61.0032 110.356C57.0345 122.314 60.0049 128.538 58.871 136.244C58.4388 139.864 57.6882 143.439 56.6278 146.928C49.504 149.011 48.0004 151.829 45.5354 158.188C43.0704 164.547 38.7813 168.835 38.276 178.036C27.7382 176.468 20.639 175.586 16.9539 178.306C13.2687 181.026 15.1914 183.856 17.9768 184.738C12.1472 187.899 11.913 190.043 14.4889 191.354C11.8883 193.474 15.5365 195.03 15.5365 195.03C13.5645 198.706 17.4222 201.891 22.192 197.652C24.5337 201.328 31.4603 197.076 36.8217 199.686C42.183 202.296 48.1852 204.918 52.7331 201.732C51.1679 210.308 51.3651 212.428 53.9656 212.232C56.5662 212.036 58.76 203.656 58.76 203.656C62.7903 211.607 65.8345 208.422 66.4878 206.927C71.2082 210.394 72.7365 207.405 72.7365 207.405C80.0452 208.532 79.885 202.112 78.1718 201.021C84.6177 202.357 87.8469 201.952 86.7992 199.796C85.7516 197.64 79.0592 197.811 79.0838 195.667C79.1085 193.523 76.3231 190.509 74.4004 188.573C72.4777 186.637 75.8054 173.381 75.8054 173.381C85.4805 175.831 91.5197 175.206 95.1925 172.449C107.665 175.329 127.73 170.563 127.73 170.563C127.18 175.339 126.207 180.058 124.822 184.665C117.92 185.89 118.98 187.838 114.247 188.01C109.514 188.181 106.26 190.092 106.458 191.808C106.655 193.523 114.419 193.155 114.419 193.155C108.787 196.966 106.803 202.724 110.722 204.035C111.129 207.711 116.527 205.8 116.527 205.8C117.584 206.334 118.771 206.563 119.952 206.459C121.133 206.355 122.261 205.922 123.207 205.212C127.928 207.38 129.259 202.467 133.56 202.504C137.861 202.541 140.955 199.563 141.805 195.287C142.656 191.011 146.637 181.406 151.665 172.008C156.595 184.26 156.497 188.304 166.172 190.95C175.847 193.597 179.483 195.128 184.179 200.298C188.874 205.469 194.038 204.869 201.002 197.211C207.966 189.553 212.772 179.739 211.737 174.814C211.221 171.913 209.736 169.269 207.522 167.311C205.308 165.352 202.494 164.193 199.535 164.02C192.227 163.53 191.352 164.387 192.14 170.146L190.846 171.628C186.138 167.316 179.483 165.343 175.428 159.744C171.373 154.145 168.033 146.193 153.391 140.729C155.375 106.288 155.659 98.5813 136.345 88.5836C116.133 84.6507 90.4598 88.7429 81.82 91.2423Z" fill="#9C5A46"/>
<path d="M89.2639 159.144C96.3261 164.767 102.821 167.598 113.544 165.968C119.775 165.146 125.48 162.066 129.566 157.318C128.839 168.014 129.455 171.653 125.561 173.981C121.666 176.309 103.968 181.099 91.9877 171.592C87.9205 166.495 89.2639 159.144 89.2639 159.144Z" fill="#15656B"/>
<path d="M68.6566 66.3092C63.3076 62.2048 54.0515 62.1312 55.4812 71.9942C56.9109 81.8572 63.7759 85.1162 72.6375 80.681C79.2067 95.9349 91.0263 99.0592 110.845 98.7406C130.663 98.4221 141.287 89.5515 145.897 77.5934C165.962 79.517 162.474 50.2712 149.693 60.2934C148.103 42.5033 148.3 17.4109 123.342 14.0538C98.3843 10.6968 77.9249 15.4261 71.3064 30.3615C63.209 46.424 67.8431 60.3057 68.6566 66.3092Z" fill="#9C5A46"/>
<path d="M73.5376 20.2167C73.4143 15.5487 78.9359 11.579 81.8199 14.3357C83.644 7.27851 87.3908 4.42378 91.5566 8.30771C93.5533 1.26273 98.36 4.98735 98.36 4.98735C101.33 -1.89835 110.845 -1.347 110.475 4.75456C114.53 3.02701 116.28 7.20499 116.28 7.20499C119.214 3.70088 124.181 7.91563 123.195 10.4763C128.236 6.49438 132.549 11.7015 130.922 13.7476C136.752 11.383 141.892 16.1981 140.08 19.5919C138.268 22.9858 144.295 18.1829 144.085 24.2722C144.394 26.7227 151.986 25.4974 149.508 32.8487C148.522 35.0909 152.06 38.1661 151.973 44.1084C151.887 50.0507 150.63 50.0385 151.739 53.1015C152.339 54.8468 152.454 56.7205 152.072 58.5252C151.69 60.33 150.826 61.999 149.57 63.3565C146.797 66.0643 147.179 59.007 147.031 56.1155C146.883 53.224 143.494 54.9638 145.318 48.5559C145.811 47.1102 140.326 47.0734 142.643 39.2198C135.569 35.6422 135.248 31.4642 137.085 26.5021C131.428 28.2174 130.984 22.9245 130.984 22.9245C128.038 27.3965 124.329 26.0855 122.899 23.0225C117.969 26.9922 112.866 25.8282 111.609 21.7973C111.092 26.1223 103.512 23.9782 101.281 20.5721C100.11 25.4729 95.5869 25.0196 91.7292 23.2308C90.7125 22.8257 89.6056 22.6974 88.5225 22.8589C87.4394 23.0204 86.4191 23.466 85.5667 24.1497C84.2726 25.3749 80.0575 26.5144 77.4939 24.7256C80.9942 30.6923 74.3757 29.994 75.6575 32.5792C76.9393 35.1644 78.4922 41.2659 73.1925 40.4328C77.3583 45.2724 73.439 50.7001 70.5303 51.6435C74.6838 56.3361 72.7241 59.6932 71.9107 59.8402C72.3667 64.5082 73.5992 71.4184 71.1835 70.279C68.7678 69.1395 66.5247 68.1594 65.9208 62.3641C63.5297 58.9825 60.4978 54.1429 63.6037 48.703C59.4255 45.2969 58.8216 40.9596 64.6883 34.0984C60.8183 32.6282 64.2446 28.634 66.5 27.9724C62.8395 24.3702 67.5723 18.0849 73.5376 20.2167Z" fill="#3B140E"/>
<path d="M70.5303 72.8519C71.0277 75.7 71.9281 78.4637 73.2048 81.0608" stroke="#5A3C33" stroke-width="1.5" stroke-linecap="round" stroke-linejoin="round"/>
<path d="M147.315 66.8483C147.611 70.7077 146.082 75.192 144.85 78.7084" stroke="#5A3C33" stroke-width="1.5" stroke-linecap="round" stroke-linejoin="round"/>
<path d="M92.7148 98.0178C93.9473 98.4833 95.1798 100.15 95.944 101.069C97.0832 102.481 98.5171 103.63 100.147 104.438" stroke="#5A3C33" stroke-width="1.5" stroke-linecap="round" stroke-linejoin="round"/>
<path d="M123.663 97.5032C121.29 99.4737 119.107 101.66 117.143 104.034" stroke="#5A3C33" stroke-width="1.5" stroke-linecap="round" stroke-linejoin="round"/>
<path d="M56.4181 146.708C55.7301 149.752 54.8407 152.748 53.7559 155.676C52.5666 159.524 51.6726 163.456 51.0814 167.438C50.6254 171.714 50.3789 175.561 51.636 179.69C52.6836 183.366 55.2349 187.422 54.3475 191.269C53.4601 194.944 53.8668 198.547 52.9794 201.965" stroke="#5A3C33" stroke-width="1.5" stroke-linecap="round" stroke-linejoin="round"/>
<path d="M65.0455 200.936C65.896 202.443 67.3749 205.236 66.0685 206.939" stroke="#5A3C33" stroke-width="1.5" stroke-linecap="round" stroke-linejoin="round"/>
<path d="M71.7628 200.801C72.6335 201.692 73.2161 202.821 73.4357 204.044C73.6554 205.267 73.502 206.527 72.9953 207.662" stroke="#5A3C33" stroke-width="1.5" stroke-linecap="round" stroke-linejoin="round"/>
<path d="M86.331 120.39C84.9876 127.876 84.0632 135.093 80.3534 141.966C78.5629 145.675 77.3693 149.639 76.8162 153.716C76.3602 157.784 77.1859 161.643 76.7299 165.699C76.2739 169.129 76.4588 173.405 74.7086 176.823" stroke="#5A3C33" stroke-width="1.5" stroke-linecap="round" stroke-linejoin="round"/>
<path d="M37.4377 178.036C40.3912 178.152 43.206 179.312 45.375 181.308" stroke="#5A3C33" stroke-width="1.5" stroke-linecap="round" stroke-linejoin="round"/>
<path d="M17.5332 184.738C19.1802 184.711 20.8272 184.793 22.4632 184.983" stroke="#5A3C33" stroke-width="1.5" stroke-linecap="round" stroke-linejoin="round"/>
<path d="M21.0087 186.098C20.5451 187.997 20.4899 189.972 20.8467 191.893C21.2035 193.814 21.9643 195.639 23.0793 197.248" stroke="#5A3C33" stroke-width="1.5" stroke-linecap="round" stroke-linejoin="round"/>
<path d="M13.8356 191.563C16.3931 191.548 18.8828 190.743 20.9594 189.259" stroke="#5A3C33" stroke-width="1.5" stroke-linecap="round" stroke-linejoin="round"/>
<path d="M15.1295 195.422C16.0637 195.716 17.053 195.795 18.0225 195.653C18.9919 195.511 19.9161 195.151 20.725 194.601" stroke="#5A3C33" stroke-width="1.5" stroke-linecap="round" stroke-linejoin="round"/>
<path d="M124.822 184.481C126.055 186.625 129.974 186.87 132.34 186.245" stroke="#5A3C33" stroke-width="1.5" stroke-linecap="round" stroke-linejoin="round"/>
<path d="M110.672 204.06C110.266 201.071 113.963 197.027 116.761 196.402" stroke="#5A3C33" stroke-width="1.5" stroke-linecap="round" stroke-linejoin="round"/>
<path d="M116.699 205.187C116.934 202.406 120.828 199.22 123.207 198.167" stroke="#5A3C33" stroke-width="1.5" stroke-linecap="round" stroke-linejoin="round"/>
<path d="M123.157 205.236C123.392 202.026 127.286 199.269 130.318 198.436" stroke="#5A3C33" stroke-width="1.5" stroke-linecap="round" stroke-linejoin="round"/>
<path d="M135.273 113.051C134.188 114.546 133.954 116.898 133.289 118.601C132.623 121.174 131.748 123.502 131.304 126.087C130.183 130.988 130.787 136.146 130.75 141.28C130.75 143.204 131.354 146.181 130.479 148.129" stroke="#5A3C33" stroke-width="1.5" stroke-linecap="round" stroke-linejoin="round"/>
<path d="M133.671 145.899C132.205 147.651 130.738 148.974 129.974 151.143C129.29 153.669 128.93 156.271 128.902 158.886C128.766 161.459 128.618 163.787 128.47 166.385C128.322 168.541 128.396 171.286 127.595 173.27" stroke="#5A3C33" stroke-width="1.5" stroke-linecap="round" stroke-linejoin="round"/>
<path d="M153.601 138.67C152.313 142.394 151.558 146.279 151.357 150.212C151.357 155.566 152.356 160.712 152.306 166.274C152.306 169.276 151.197 171.616 150.31 174.398" stroke="#5A3C33" stroke-width="1.5" stroke-linecap="round" stroke-linejoin="round"/>
<path d="M78.1466 148.117C80.3035 148.349 81.8441 150.285 83.0766 151.792C84.9993 154.157 87.7724 157.392 88.8323 160.173" stroke="#5A3C33" stroke-width="1.5" stroke-linecap="round" stroke-linejoin="round"/>
<path d="M191.031 171.702C189.281 175.12 189.035 178.759 186.644 181.945C184.983 183.853 183.789 186.117 183.156 188.561C182.922 189.848 182.256 193.266 183.538 193.695" stroke="#5A3C33" stroke-width="1.5" stroke-linecap="round" stroke-linejoin="round"/>
<path d="M193.619 171.298C195.542 172.817 198.549 173.05 200.706 174.14C203.923 175.868 206.265 179.739 209.703 180.413" stroke="#5A3C33" stroke-width="1.5" stroke-linecap="round" stroke-linejoin="round"/>
<path d="M199.202 173.479C197.058 171.751 196.885 167.255 199.905 166.421" stroke="#5A3C33" stroke-width="1.5" stroke-linecap="round" stroke-linejoin="round"/>
<path d="M202.407 175.427C201.175 173.491 202.234 169.864 204.601 169.239" stroke="#5A3C33" stroke-width="1.5" stroke-linecap="round" stroke-linejoin="round"/>
<path d="M205.636 177.816C205.426 175.88 206.523 173.319 208.889 173.552" stroke="#5A3C33" stroke-width="1.5" stroke-linecap="round" stroke-linejoin="round"/>
<path d="M79.7737 91.7569C81.5238 94.2073 85.7143 95.3346 88.2902 96.474C92.4171 98.22 96.8572 99.1161 101.342 99.1082C105.991 99.1457 110.637 98.8591 115.245 98.2505C119.244 97.933 123.2 97.2104 127.052 96.0942C131.588 94.5259 135.482 91.6589 139.537 88.9634" stroke="#5A3C33" stroke-width="1.5" stroke-linecap="round" stroke-linejoin="round"/>
<path d="M75.6206 197.909C77.1615 199.12 78.4014 200.667 79.2441 202.43" stroke="#5A3C33" stroke-width="1.5" stroke-linecap="round" stroke-linejoin="round"/>
<path d="M109.021 157.808C109.474 158.126 109.887 158.496 110.253 158.911C111.362 160.038 113.113 158.311 111.991 157.171C111.465 156.619 110.882 156.122 110.253 155.689C108.91 154.831 107.677 156.914 109.021 157.808Z" fill="#3D1B11"/>
</svg>
