<svg width="260" height="224" viewBox="0 0 260 224" fill="none" xmlns="http://www.w3.org/2000/svg">
<path d="M135.73 120.232L121.574 135.991L195.498 202.62L209.654 186.861L135.73 120.232Z" fill="#E2EAEB"/>
<path d="M226.698 216.296L226.532 216.479C222.068 221.451 215.432 222.763 211.714 219.411L168.87 181.384L185.25 162.334L228.047 201.217C231.766 204.577 231.162 211.324 226.698 216.296Z" fill="#19A5B0"/>
<path opacity="0.12" d="M143.778 155.464L146.419 158.21L175.11 155.913L154.83 137.271L143.778 155.464Z" fill="#272525"/>
<path d="M141.81 157.658C170.637 137.458 177.647 97.7022 157.468 68.8607C137.288 40.0193 97.5598 33.0142 68.7326 53.2144C39.9054 73.4145 32.8953 113.171 53.0751 142.012C73.2549 170.854 112.983 177.859 141.81 157.658Z" fill="#A5BFC1"/>
<path d="M95.6881 159.474C125.481 164.728 153.899 144.789 159.163 114.939C164.426 85.09 144.541 56.6337 114.748 51.3804C84.9552 46.1272 56.5366 66.0662 51.2734 95.9155C46.0102 125.765 65.8953 154.221 95.6881 159.474Z" fill="#D4E9F4"/>
<g opacity="0.22">
<path opacity="0.22" d="M66.7333 96.3958C69.501 79.1135 83.4165 65.5011 100.866 63.6352C118.26 61.7832 135.009 72.2735 141.093 88.7004C142.806 93.3298 150.095 90.9996 148.385 86.3655C141.381 67.4623 123.068 55.0862 102.963 55.803C83.1463 56.4976 66.1473 70.4668 60.4771 89.2872C59.9381 91.1099 59.5233 92.9671 59.2356 94.846C58.4541 99.7084 65.9378 101.292 66.7307 96.3953L66.7333 96.3958Z" fill="white"/>
</g>
<path opacity="0.51" d="M146.882 106.815C149.632 107.253 152.216 105.374 152.655 102.62C153.094 99.8652 151.221 97.2773 148.471 96.8394C145.722 96.4016 143.137 98.2797 142.698 101.034C142.26 103.789 144.133 106.377 146.882 106.815Z" fill="white"/>
<path d="M169.633 180.794L185.217 162.666C185.476 162.366 185.614 161.98 185.605 161.584C185.595 161.187 185.439 160.809 185.167 160.521L184.984 160.329C184.829 160.166 184.642 160.036 184.434 159.95C184.227 159.864 184.003 159.823 183.778 159.829C183.553 159.835 183.332 159.889 183.13 159.987C182.927 160.085 182.747 160.224 182.602 160.396L167.174 178.703C167.037 178.866 166.934 179.054 166.871 179.258C166.808 179.461 166.786 179.675 166.806 179.887C166.826 180.098 166.888 180.304 166.988 180.492C167.088 180.679 167.225 180.845 167.389 180.979L167.412 180.999C167.736 181.261 168.149 181.387 168.564 181.348C168.979 181.31 169.362 181.111 169.633 180.794Z" fill="#EA6F06"/>
<path d="M157.764 115.091C155.434 128.092 148.489 139.813 138.212 148.092C128.059 156.25 115.194 160.393 102.221 159.959C88.9579 159.516 76.1775 153.872 66.6451 144.701C57.3634 135.769 51.6045 123.499 50.3892 110.682C49.1281 97.3988 53.011 83.8394 60.9669 73.158C68.7281 62.8139 79.8936 55.5554 92.4832 52.6696C105.528 49.7156 119.368 51.8392 131.026 58.3374C142.25 64.5942 150.886 75.01 155.325 87.0446C158.623 95.9823 159.382 105.708 157.766 115.083C157.439 116.937 160.315 117.444 160.634 115.589C162.872 102.595 160.614 89.227 154.232 77.6996C148.009 66.4186 137.812 57.5026 125.922 52.6493C113.588 47.6158 99.6897 47.1573 87.0066 51.1725C74.8166 55.0286 64.0953 63.1961 56.9702 73.8041C49.5201 84.8915 46.2188 98.4723 47.565 111.747C48.8744 124.578 54.7341 136.632 63.6784 145.849C72.8698 155.323 85.408 161.199 98.4922 162.6C111.466 163.977 124.611 160.692 135.553 153.613C148.767 145.061 157.851 131.062 160.635 115.597C160.98 113.734 158.106 113.24 157.764 115.091Z" fill="#E2EAEB"/>
</svg>
