<svg width="301" height="287" viewBox="0 0 301 287" fill="none" xmlns="http://www.w3.org/2000/svg">
<path d="M26.1772 89.9182H49.479C52.2759 89.9249 54.9565 91.0383 56.935 93.0152C58.9134 94.9921 60.029 97.6718 60.0379 100.469V122.074H27.7144C24.9175 122.065 22.2379 120.949 20.2609 118.971C18.284 116.992 17.1706 114.312 17.1639 111.515V98.9147C17.1684 96.5271 18.12 94.2389 19.8098 92.5522C21.4996 90.8655 23.7896 89.9182 26.1772 89.9182Z" fill="#19A5B0"/>
<path d="M60.0379 118.991V128.239L50.3778 118.579L60.0379 118.991Z" fill="#19A5B0"/>
<g opacity="0.6">
<path opacity="0.6" d="M26.1772 89.9182H49.479C52.2759 89.9249 54.9565 91.0383 56.935 93.0152C58.9134 94.9921 60.029 97.6718 60.0379 100.469V122.074H27.7144C24.9175 122.065 22.2379 120.949 20.2609 118.971C18.284 116.992 17.1706 114.312 17.1639 111.515V98.9147C17.1684 96.5271 18.12 94.2389 19.8098 92.5522C21.4996 90.8655 23.7896 89.9182 26.1772 89.9182Z" fill="white"/>
<path opacity="0.6" d="M60.0379 118.991V128.239L50.3778 118.579L60.0379 118.991Z" fill="white"/>
</g>
<g clip-path="url(#clip0_1203_9364)">
<path d="M42.7485 113.954C42.6124 113.954 42.4763 113.912 42.3639 113.835L38.524 111.162C36.4769 111.145 34.5481 110.491 33.0867 109.315C31.5602 108.086 30.726 106.447 30.726 104.683C30.726 102.925 31.5661 101.28 33.0867 100.051C34.5658 98.857 36.5242 98.2037 38.601 98.2037C40.6777 98.2037 42.6361 98.857 44.1152 100.051C45.6417 101.28 46.476 102.919 46.476 104.683C46.476 106.791 45.263 108.727 43.2041 109.945L43.4289 113.223C43.4466 113.485 43.3165 113.734 43.0857 113.865C42.9792 113.924 42.8609 113.954 42.7485 113.954ZM38.7311 109.82C38.8672 109.82 39.0033 109.85 39.1157 109.927L41.9734 111.905L41.8137 109.606C41.7959 109.333 41.9379 109.078 42.1805 108.953C44.0146 107.997 45.1151 106.405 45.1151 104.689C45.1151 101.868 42.1923 99.5756 38.601 99.5756C35.0037 99.5697 32.0809 101.862 32.0809 104.683C32.0809 107.504 35.0037 109.796 38.595 109.796C38.6305 109.796 38.672 109.808 38.7074 109.808L38.7193 109.82C38.7193 109.82 38.7252 109.82 38.7311 109.82Z" fill="white" stroke="white" stroke-width="0.45"/>
<path d="M40.1155 104.475C40.5697 104.475 40.9379 104.106 40.9379 103.65C40.9379 103.194 40.5697 102.824 40.1155 102.824C39.6613 102.824 39.2931 103.194 39.2931 103.65C39.2931 104.106 39.6613 104.475 40.1155 104.475Z" fill="white" stroke="white" stroke-width="0.45"/>
<path d="M40.1156 104.766C39.7311 104.766 39.3879 104.938 39.1394 105.218C39.3465 105.556 39.4707 105.96 39.4707 106.393C39.4707 106.548 39.4412 106.69 39.3879 106.815C39.737 106.904 40.1097 106.875 40.1097 106.875C40.1097 106.875 41.4469 106.976 41.4469 106.186C41.4469 105.396 40.8493 104.766 40.1156 104.766Z" fill="white" stroke="white" stroke-width="0.45"/>
<path d="M39.0922 106.388C39.0922 107.374 37.4178 107.249 37.4178 107.249C37.4178 107.249 35.7434 107.374 35.7434 106.388C35.7434 105.402 36.4948 104.6 37.4178 104.6C38.3408 104.6 39.0922 105.402 39.0922 106.388Z" fill="white" stroke="white" stroke-width="0.45"/>
<path d="M37.4175 104.244C37.9893 104.244 38.4529 103.778 38.4529 103.204C38.4529 102.63 37.9893 102.165 37.4175 102.165C36.8456 102.165 36.3821 102.63 36.3821 103.204C36.3821 103.778 36.8456 104.244 37.4175 104.244Z" fill="white" stroke="white" stroke-width="0.45"/>
</g>
<path d="M264.983 60.1745C261.254 60.1745 257.609 59.0687 254.508 56.9971C251.408 54.9254 248.991 51.9809 247.564 48.5359C246.137 45.0908 245.764 41.3 246.491 37.6428C247.219 33.9856 249.014 30.6262 251.651 27.9895C254.288 25.3528 257.647 23.5571 261.304 22.8297C264.962 22.1022 268.752 22.4756 272.198 23.9026C275.643 25.3295 278.587 27.746 280.659 30.8465C282.73 33.9469 283.836 37.5921 283.836 41.3209C283.831 46.3195 281.842 51.1118 278.308 54.6463C274.773 58.1808 269.981 60.169 264.983 60.1745ZM264.983 25.0674C261.767 25.0674 258.623 26.0211 255.949 27.8078C253.275 29.5946 251.191 32.1342 249.961 35.1054C248.73 38.0766 248.409 41.3459 249.037 44.5C249.664 47.654 251.213 50.551 253.488 52.8246C255.762 55.0983 258.66 56.6464 261.814 57.2731C264.968 57.8999 268.237 57.5772 271.208 56.3458C274.179 55.1144 276.718 53.0297 278.504 50.3552C280.29 47.6808 281.242 44.5368 281.241 41.3209C281.236 37.011 279.521 32.8793 276.473 29.8322C273.425 26.7851 269.292 25.0715 264.983 25.0674Z" fill="#EA6F06"/>
<path d="M264.298 49.3209L256.141 41.4783L257.654 39.9045L263.896 45.9067L271.984 33.3209L273.824 34.5056L264.298 49.3209Z" fill="#EA6F06"/>
<g opacity="0.8">
<path opacity="0.8" d="M264.983 60.1745C261.254 60.1745 257.609 59.0687 254.508 56.9971C251.408 54.9254 248.991 51.9809 247.564 48.5359C246.137 45.0908 245.764 41.3 246.491 37.6428C247.219 33.9856 249.014 30.6262 251.651 27.9895C254.288 25.3528 257.647 23.5571 261.304 22.8297C264.962 22.1022 268.752 22.4756 272.198 23.9026C275.643 25.3295 278.587 27.746 280.659 30.8465C282.73 33.9469 283.836 37.5921 283.836 41.3209C283.831 46.3195 281.842 51.1118 278.308 54.6463C274.773 58.1808 269.981 60.169 264.983 60.1745ZM264.983 25.0674C261.767 25.0674 258.623 26.0211 255.949 27.8078C253.275 29.5946 251.191 32.1342 249.961 35.1054C248.73 38.0766 248.409 41.3459 249.037 44.5C249.664 47.654 251.213 50.551 253.488 52.8246C255.762 55.0983 258.66 56.6464 261.814 57.2731C264.968 57.8999 268.237 57.5772 271.208 56.3458C274.179 55.1144 276.718 53.0297 278.504 50.3552C280.29 47.6808 281.242 44.5368 281.241 41.3209C281.236 37.011 279.521 32.8793 276.473 29.8322C273.425 26.7851 269.292 25.0715 264.983 25.0674Z" fill="white"/>
</g>
<g opacity="0.5">
<path opacity="0.5" d="M261.645 46.8241L253.487 38.9815L254.999 37.4077L261.243 43.4099L269.33 30.8241L271.171 32.0088L261.645 46.8241Z" fill="white"/>
</g>
<path d="M215.193 12.5244L101.792 12.6168C98.4499 12.6168 95.245 13.9443 92.882 16.3073C90.519 18.6703 89.1915 21.8752 89.1915 25.2169L89.3931 261.712C89.3931 265.054 90.7206 268.259 93.0836 270.622C95.4466 272.985 98.6515 274.312 101.993 274.312L215.394 274.212C218.736 274.212 221.941 272.884 224.304 270.521C226.667 268.158 227.994 264.953 227.994 261.612L227.801 25.1161C227.8 23.4614 227.473 21.8232 226.839 20.2949C226.204 18.7666 225.275 17.3782 224.105 16.209C222.934 15.0397 221.544 14.1125 220.015 13.4803C218.486 12.8481 216.847 12.5233 215.193 12.5244Z" fill="#19A5B0"/>
<path d="M214.848 263.796L102.606 263.888C101.493 263.888 100.424 263.445 99.6366 262.658C98.8489 261.87 98.4064 260.802 98.4064 259.688L98.2048 25.8302C98.2048 24.7162 98.6473 23.6479 99.435 22.8603C100.223 22.0726 101.291 21.6301 102.405 21.6301L214.638 21.5377C215.752 21.5377 216.82 21.9802 217.608 22.7679C218.396 23.5555 218.838 24.6238 218.838 25.7378L219.031 259.596C219.031 260.707 218.591 261.772 217.807 262.559C217.023 263.347 215.959 263.791 214.848 263.796Z" fill="#CAEAED"/>
<path opacity="0.1" d="M168.816 247.575H148.614C146.294 247.575 144.414 249.455 144.414 251.775V252.985C144.414 255.304 146.294 257.185 148.614 257.185H168.816C171.135 257.185 173.016 255.304 173.016 252.985V251.775C173.016 249.455 171.135 247.575 168.816 247.575Z" fill="black"/>
<path opacity="0.1" d="M168.765 177.115H148.563C146.244 177.115 144.363 178.996 144.363 181.315V197.485C144.363 199.805 146.244 201.685 148.563 201.685H168.765C171.085 201.685 172.965 199.805 172.965 197.485V181.315C172.965 178.996 171.085 177.115 168.765 177.115Z" fill="#15757C"/>
<path opacity="0.1" d="M133.157 177.141H112.955C110.636 177.141 108.755 179.021 108.755 181.341V197.511C108.755 199.83 110.636 201.711 112.955 201.711H133.157C135.477 201.711 137.358 199.83 137.358 197.511V181.341C137.358 179.021 135.477 177.141 133.157 177.141Z" fill="#15757C"/>
<path opacity="0.1" d="M204.373 177.082H184.171C181.851 177.082 179.971 178.962 179.971 181.282V197.452C179.971 199.771 181.851 201.652 184.171 201.652H204.373C206.693 201.652 208.573 199.771 208.573 197.452V181.282C208.573 178.962 206.693 177.082 204.373 177.082Z" fill="#15757C"/>
<path opacity="0.1" d="M168.79 208.725H148.588C146.269 208.725 144.388 210.605 144.388 212.925V229.095C144.388 231.415 146.269 233.295 148.588 233.295H168.79C171.11 233.295 172.991 231.415 172.991 229.095V212.925C172.991 210.605 171.11 208.725 168.79 208.725Z" fill="#15757C"/>
<path opacity="0.1" d="M133.183 208.758H112.981C110.661 208.758 108.781 210.639 108.781 212.958V229.128C108.781 231.448 110.661 233.329 112.981 233.329H133.183C135.502 233.329 137.383 231.448 137.383 229.128V212.958C137.383 210.639 135.502 208.758 133.183 208.758Z" fill="#15757C"/>
<path opacity="0.1" d="M204.398 208.699H184.196C181.877 208.699 179.996 210.58 179.996 212.899V229.07C179.996 231.389 181.877 233.27 184.196 233.27H204.398C206.718 233.27 208.598 231.389 208.598 229.07V212.899C208.598 210.58 206.718 208.699 204.398 208.699Z" fill="#15757C"/>
<path opacity="0.1" d="M218.998 202.525L218.922 121.213C188.287 156.376 131.267 222.4 98.5072 260.419C98.6789 261.39 99.1871 262.27 99.9428 262.905C100.699 263.539 101.653 263.887 102.64 263.888L165.851 263.838L218.998 202.525Z" fill="white"/>
<path opacity="0.1" d="M98.3056 143.473L204.046 21.5544H154.552C141.457 36.5318 119.096 62.3703 98.272 86.4869L98.3056 143.473Z" fill="white"/>
<path opacity="0.1" d="M98.3476 194.394L218.872 55.4404L218.847 25.7209L98.3224 164.683L98.3476 194.394Z" fill="white"/>
<path opacity="0.2" d="M102.405 21.5964H214.647C215.761 21.5964 216.829 22.0389 217.616 22.8266C218.404 23.6143 218.847 24.6826 218.847 25.7965V31.0885H98.2048V25.7965C98.2048 24.6826 98.6473 23.6143 99.435 22.8266C100.223 22.0389 101.291 21.5964 102.405 21.5964Z" fill="black"/>
<path opacity="0.6" d="M201.584 28.6778L201.232 28.325L201.156 28.241H201.114C201.074 28.1875 201.037 28.1314 201.005 28.073C200.826 27.7582 200.733 27.4018 200.736 27.0398C200.736 27.0398 200.736 26.0234 200.736 25.9814C200.733 25.5885 200.612 25.2056 200.388 24.8822C200.165 24.5588 199.85 24.3097 199.484 24.167C199.484 24.167 199.484 24.1669 199.484 24.0997C199.484 24.0997 199.484 24.0578 199.484 24.0326V23.9654C199.495 23.8645 199.485 23.7625 199.454 23.666C199.423 23.5694 199.372 23.4805 199.304 23.405C199.236 23.3295 199.153 23.2692 199.061 23.2278C198.968 23.1865 198.868 23.1652 198.766 23.1652C198.665 23.1652 198.564 23.1865 198.472 23.2278C198.379 23.2692 198.296 23.3295 198.229 23.405C198.161 23.4805 198.11 23.5694 198.079 23.666C198.048 23.7625 198.037 23.8645 198.048 23.9654V24.0326C198.048 24.0326 198.048 24.0829 198.048 24.0997C198.048 24.0997 198.048 24.0997 198.048 24.1585C197.681 24.3018 197.365 24.5522 197.142 24.8773C196.918 25.2024 196.798 25.587 196.796 25.9814V26.9978C196.803 27.3746 196.707 27.7461 196.519 28.073C196.477 28.1463 196.429 28.2165 196.376 28.283L196.301 28.3586L195.948 28.7114C195.907 28.7539 195.878 28.8073 195.867 28.8654C195.855 28.9234 195.86 28.9837 195.881 29.039C195.904 29.0936 195.942 29.1402 195.992 29.173C196.041 29.2059 196.099 29.2235 196.158 29.2238H198.124C198.186 29.3339 198.276 29.4255 198.385 29.4892C198.495 29.5529 198.619 29.5865 198.745 29.5865C198.872 29.5865 198.996 29.5529 199.105 29.4892C199.214 29.4255 199.305 29.3339 199.367 29.2238H201.332C201.391 29.2223 201.448 29.2038 201.496 29.1705C201.545 29.1372 201.582 29.0905 201.605 29.0362C201.627 28.9818 201.633 28.9222 201.622 28.8645C201.611 28.8068 201.583 28.7536 201.542 28.7114L201.584 28.6778Z" fill="white"/>
<g opacity="0.6">
<path opacity="0.6" d="M111.256 28.5658L113.079 28.5642L113.077 26.1282L111.254 26.1298L111.256 28.5658Z" fill="white"/>
<path opacity="0.6" d="M108.275 28.5715L110.098 28.5699L110.095 25.3191L108.272 25.3207L108.275 28.5715Z" fill="white"/>
<path opacity="0.6" d="M105.31 28.5606L107.133 28.559L107.13 24.5017L105.307 24.5033L105.31 28.5606Z" fill="white"/>
<path opacity="0.6" d="M102.329 28.5748L104.152 28.5732L104.148 23.7012L102.325 23.7028L102.329 28.5748Z" fill="white"/>
</g>
<path opacity="0.6" d="M206.792 25.1581H205.709V27.5941H206.792V25.1581Z" fill="white"/>
<path opacity="0.6" d="M206.783 28.487L215.41 28.4795L215.407 24.2711L206.78 24.2786L206.783 28.487Z" fill="white"/>
<path d="M164.809 21.5881C164.811 22.8328 164.443 24.05 163.753 25.0858C163.062 26.1216 162.08 26.9293 160.931 27.4068C159.781 27.8843 158.516 28.0101 157.295 27.7682C156.074 27.5264 154.952 26.9279 154.071 26.0483C153.191 25.1687 152.591 24.0477 152.347 22.827C152.104 21.6063 152.228 20.3408 152.704 19.1907C153.18 18.0406 153.986 17.0574 155.021 16.3657C156.056 15.674 157.273 15.3048 158.517 15.3048C160.185 15.3048 161.784 15.9665 162.963 17.1446C164.143 18.3227 164.807 19.9209 164.809 21.5881Z" fill="#19A5B0"/>
<path opacity="0.1" d="M161.768 21.5881C161.77 22.2314 161.58 22.8608 161.224 23.3965C160.868 23.9322 160.361 24.3501 159.767 24.5975C159.173 24.8448 158.519 24.9104 157.888 24.7859C157.257 24.6614 156.677 24.3525 156.222 23.8982C155.766 23.4439 155.456 22.8647 155.33 22.2338C155.203 21.603 155.267 20.9489 155.513 20.3544C155.759 19.7599 156.176 19.2517 156.71 18.8942C157.245 18.5366 157.874 18.3457 158.517 18.3457C159.378 18.3457 160.204 18.687 160.813 19.2949C161.422 19.9027 161.766 20.7274 161.768 21.5881Z" fill="#E0E0E0"/>
<path d="M162.507 26.5358C162.507 26.5358 167.598 21.5797 177.107 21.5713L162.499 20.7313L162.507 26.5358Z" fill="#19A5B0"/>
<path d="M154.553 26.5441C154.553 26.5441 149.445 21.5965 139.936 21.6049L154.544 20.7649L154.553 26.5441Z" fill="#19A5B0"/>
<path opacity="0.3" d="M203.508 59.1196H123.136C118.497 59.1196 114.736 62.8805 114.736 67.5197V191.395C114.736 196.035 118.497 199.795 123.136 199.795H203.508C208.147 199.795 211.908 196.035 211.908 191.395V67.5197C211.908 62.8805 208.147 59.1196 203.508 59.1196Z" fill="#19A5B0"/>
<path d="M200.677 53.1387H120.305C115.666 53.1387 111.905 56.8995 111.905 61.5387V185.415C111.905 190.054 115.666 193.815 120.305 193.815H200.677C205.316 193.815 209.077 190.054 209.077 185.415V61.5387C209.077 56.8995 205.316 53.1387 200.677 53.1387Z" fill="white"/>
<path d="M195.15 70.6108C193.957 70.6108 192.791 70.2571 191.799 69.5944C190.807 68.9317 190.034 67.9897 189.578 66.8876C189.121 65.7856 189.002 64.5729 189.235 63.403C189.467 62.233 190.042 61.1583 190.885 60.3149C191.729 59.4714 192.803 58.8969 193.973 58.6642C195.143 58.4315 196.356 58.551 197.458 59.0074C198.56 59.4639 199.502 60.237 200.165 61.2288C200.828 62.2206 201.181 63.3867 201.181 64.5796C201.179 66.1785 200.543 67.7113 199.412 68.8419C198.282 69.9725 196.749 70.6086 195.15 70.6108ZM195.15 59.6908C194.175 59.6908 193.221 59.9799 192.411 60.5218C191.6 61.0636 190.968 61.8336 190.595 62.7346C190.221 63.6356 190.124 64.6271 190.314 65.5835C190.504 66.54 190.974 67.4186 191.663 68.1082C192.353 68.7978 193.232 69.2674 194.188 69.4577C195.145 69.6479 196.136 69.5503 197.037 69.1771C197.938 68.8039 198.708 68.1719 199.25 67.361C199.792 66.5502 200.081 65.5968 200.081 64.6216C200.086 63.9705 199.963 63.3248 199.718 62.7217C199.472 62.1186 199.11 61.5701 198.652 61.1078C198.193 60.6455 197.648 60.2785 197.047 60.0281C196.446 59.7776 195.801 59.6487 195.15 59.6488V59.6908Z" fill="#E0E0E0"/>
<path d="M196.993 61.9662L192.538 66.421L193.31 67.1932L197.765 62.7384L196.993 61.9662Z" fill="#E0E0E0"/>
<path d="M193.31 61.9747L192.538 62.7468L196.993 67.2016L197.765 66.4294L193.31 61.9747Z" fill="#E0E0E0"/>
<path d="M181.374 190.043H140.507C138.28 190.043 136.143 189.158 134.568 187.583C132.992 186.007 132.107 183.871 132.107 181.643C132.107 179.415 132.992 177.278 134.568 175.703C136.143 174.128 138.28 173.243 140.507 173.243H181.374C183.602 173.243 185.738 174.128 187.314 175.703C188.889 177.278 189.774 179.415 189.774 181.643C189.774 183.871 188.889 186.007 187.314 187.583C185.738 189.158 183.602 190.043 181.374 190.043Z" fill="#E0E0E0"/>
<path d="M180.475 188.506H139.609C137.381 188.506 135.244 187.621 133.669 186.045C132.094 184.47 131.209 182.334 131.209 180.106C131.209 177.878 132.094 175.741 133.669 174.166C135.244 172.591 137.381 171.706 139.609 171.706H180.475C182.703 171.706 184.839 172.591 186.415 174.166C187.99 175.741 188.875 177.878 188.875 180.106C188.875 182.334 187.99 184.47 186.415 186.045C184.839 187.621 182.703 188.506 180.475 188.506Z" fill="#CAEAED"/>
<path d="M145.036 181H142.436L141.94 182.2H140.612L143.108 176.6H144.388L146.892 182.2H145.532L145.036 181ZM144.628 180.016L143.74 177.872L142.852 180.016H144.628ZM150.075 182.296C149.504 182.296 148.987 182.174 148.523 181.928C148.064 181.678 147.702 181.334 147.435 180.896C147.174 180.454 147.043 179.955 147.043 179.4C147.043 178.846 147.174 178.35 147.435 177.912C147.702 177.47 148.064 177.126 148.523 176.88C148.987 176.63 149.507 176.504 150.083 176.504C150.568 176.504 151.006 176.59 151.395 176.76C151.79 176.931 152.12 177.176 152.387 177.496L151.555 178.264C151.176 177.827 150.707 177.608 150.147 177.608C149.8 177.608 149.491 177.686 149.219 177.84C148.947 177.99 148.734 178.2 148.579 178.472C148.43 178.744 148.355 179.054 148.355 179.4C148.355 179.747 148.43 180.056 148.579 180.328C148.734 180.6 148.947 180.814 149.219 180.968C149.491 181.118 149.8 181.192 150.147 181.192C150.707 181.192 151.176 180.971 151.555 180.528L152.387 181.296C152.12 181.622 151.79 181.87 151.395 182.04C151 182.211 150.56 182.296 150.075 182.296ZM155.825 182.296C155.254 182.296 154.737 182.174 154.273 181.928C153.814 181.678 153.452 181.334 153.185 180.896C152.924 180.454 152.793 179.955 152.793 179.4C152.793 178.846 152.924 178.35 153.185 177.912C153.452 177.47 153.814 177.126 154.273 176.88C154.737 176.63 155.257 176.504 155.833 176.504C156.318 176.504 156.756 176.59 157.145 176.76C157.54 176.931 157.87 177.176 158.137 177.496L157.305 178.264C156.926 177.827 156.457 177.608 155.897 177.608C155.55 177.608 155.241 177.686 154.969 177.84C154.697 177.99 154.484 178.2 154.329 178.472C154.18 178.744 154.105 179.054 154.105 179.4C154.105 179.747 154.18 180.056 154.329 180.328C154.484 180.6 154.697 180.814 154.969 180.968C155.241 181.118 155.55 181.192 155.897 181.192C156.457 181.192 156.926 180.971 157.305 180.528L158.137 181.296C157.87 181.622 157.54 181.87 157.145 182.04C156.75 182.211 156.31 182.296 155.825 182.296ZM163.348 181.16V182.2H159.012V176.6H163.244V177.64H160.3V178.856H162.9V179.864H160.3V181.16H163.348ZM166.803 176.6C167.299 176.6 167.729 176.683 168.091 176.848C168.459 177.014 168.742 177.248 168.939 177.552C169.137 177.856 169.235 178.216 169.235 178.632C169.235 179.043 169.137 179.403 168.939 179.712C168.742 180.016 168.459 180.251 168.091 180.416C167.729 180.576 167.299 180.656 166.803 180.656H165.675V182.2H164.379V176.6H166.803ZM166.731 179.6C167.121 179.6 167.417 179.518 167.619 179.352C167.822 179.182 167.923 178.942 167.923 178.632C167.923 178.318 167.822 178.078 167.619 177.912C167.417 177.742 167.121 177.656 166.731 177.656H165.675V179.6H166.731ZM171.164 177.656H169.372V176.6H174.252V177.656H172.46V182.2H171.164V177.656Z" fill="white"/>
<path d="M181.886 143.515H135.358V146.035H181.886V143.515Z" fill="#E0E0E0"/>
<path d="M181.861 160.777H135.333V163.297H181.861V160.777Z" fill="#F5F5F5"/>
<path d="M191.378 149.681H125.875V153.881H191.378V149.681Z" fill="#E0E0E0"/>
<path d="M158.627 139.248C178.649 139.248 194.881 123.016 194.881 102.993C194.881 82.9702 178.649 66.7384 158.627 66.7384C138.604 66.7384 122.372 82.9702 122.372 102.993C122.372 123.016 138.604 139.248 158.627 139.248Z" fill="#FCCBA2"/>
<path d="M116.735 117.559C116.735 117.559 114.778 116.593 113.863 116.929C112.947 117.265 107.142 123.548 107.142 124.38C107.142 125.211 110.889 125.598 112.082 125.22C113.275 124.842 117.433 120.037 117.634 119.55L116.735 117.559Z" fill="#B57756"/>
<path d="M114.325 119.877C114.325 119.877 112.241 118.945 112.056 118.071C111.93 117.458 109.982 118.071 109.478 117.676C108.974 117.282 109.133 117.097 109.133 117.097C111.594 116.652 113.61 115.274 116.803 117.475L114.325 119.877Z" fill="#B57756"/>
<path d="M117.357 121.112C123.395 121.523 129.457 121.374 135.468 120.667C140.911 119.751 144.12 106.74 144.12 106.74C144.12 106.74 157.442 81.0018 143.733 90.1662C141.364 91.4514 136.929 99.5743 135.098 105.933C133.267 112.292 133.031 113.166 131.267 113.602C130.503 113.796 118.004 115.845 115.887 116.248L117.357 121.112Z" fill="#19A5B0"/>
<g opacity="0.3">
<path opacity="0.3" d="M117.357 121.112C123.395 121.523 129.457 121.374 135.468 120.667C140.911 119.751 144.12 106.74 144.12 106.74C144.12 106.74 157.442 81.0018 143.733 90.1662C141.364 91.4514 136.929 99.5743 135.098 105.933C133.267 112.292 133.031 113.166 131.267 113.602C130.503 113.796 118.004 115.845 115.887 116.248L117.357 121.112Z" fill="black"/>
</g>
<path opacity="0.5" d="M140.961 115.182C142.303 112.499 143.361 109.684 144.12 106.782L144.279 106.479L141.81 102.187L140.961 115.182Z" fill="black"/>
<path d="M175.183 135.241C174.032 125.094 171.075 98.7426 170.731 92.5938C170.294 84.9497 165.691 84.2693 155.947 85.5125C146.203 86.7557 143.582 90.7878 141.566 96.5082C139.617 102.019 145.001 114.148 147.219 137.408C151.79 138.923 156.618 139.512 161.419 139.14C166.221 138.768 170.9 137.442 175.183 135.241Z" fill="#19A5B0"/>
<path opacity="0.3" d="M175.183 135.241C174.032 125.094 171.075 98.7426 170.731 92.5938C170.294 84.9497 165.691 84.2693 155.947 85.5125C146.203 86.7557 143.582 90.7878 141.566 96.5082C139.617 102.019 145.001 114.148 147.219 137.408C151.79 138.923 156.618 139.512 161.419 139.14C166.221 138.768 170.9 137.442 175.183 135.241Z" fill="black"/>
<path d="M156.048 74.1221C156.048 78.0281 156.333 83.6897 159.408 85.5629C159.408 85.5629 159.987 89.4186 150.327 96.0714C145.539 91.5102 147.9 88.3518 147.9 88.3518C151.848 86.3526 151.411 84.6809 150.151 81.9425L156.048 74.1221Z" fill="#B57756"/>
<path opacity="0.2" d="M153.637 77.2469L150.176 81.909C150.478 82.5448 150.725 83.2052 150.915 83.883C152.452 83.2782 154.67 81.3126 154.678 79.4982C154.528 78.6716 154.169 77.8969 153.637 77.2469Z" fill="black"/>
<path d="M159.66 66.5032C159.156 73.0384 159.072 75.8104 155.796 79.2461C150.873 84.4205 143.196 82.7153 141.759 76.2556C140.499 70.426 141.541 60.6819 147.824 57.9435C148.856 57.4589 149.976 57.192 151.115 57.1594C152.254 57.1268 153.388 57.3292 154.446 57.754C155.503 58.1787 156.462 58.8168 157.262 59.6284C158.063 60.4399 158.687 61.4077 159.097 62.4712C159.591 63.7542 159.784 65.1338 159.66 66.5032Z" fill="#B57756"/>
<path d="M149.479 68.5024C149.479 69.0316 149.185 69.4684 148.849 69.4852C148.513 69.502 148.244 69.0652 148.244 68.536C148.244 68.0068 148.546 67.5616 148.874 67.5532C149.202 67.5448 149.462 67.9984 149.479 68.5024Z" fill="#263238"/>
<path d="M143.624 68.6788C143.624 69.2164 143.33 69.6532 142.994 69.6616C142.658 69.67 142.389 69.2416 142.389 68.7124C142.389 68.1832 142.692 67.7464 143.028 67.738C143.364 67.7296 143.632 68.1496 143.624 68.6788Z" fill="#263238"/>
<path d="M145.413 69.5861C144.924 70.8133 144.28 71.9734 143.498 73.0385C143.765 73.2217 144.069 73.3437 144.388 73.396C144.708 73.4483 145.035 73.4295 145.346 73.3409L145.413 69.5861Z" fill="#9E603F"/>
<path d="M148.126 75.3317C147.874 75.3809 147.619 75.4089 147.362 75.4157C147.343 75.4168 147.323 75.414 147.305 75.4073C147.286 75.4007 147.27 75.3903 147.256 75.377C147.241 75.3636 147.23 75.3475 147.222 75.3296C147.215 75.3117 147.211 75.2924 147.211 75.2729C147.215 75.2318 147.233 75.1934 147.262 75.1642C147.291 75.1351 147.329 75.117 147.37 75.1133C148.026 75.1 148.67 74.9364 149.253 74.6349C149.835 74.3334 150.341 73.9022 150.73 73.3745C150.74 73.3563 150.753 73.3404 150.769 73.3277C150.785 73.3151 150.804 73.3061 150.824 73.3013C150.844 73.2965 150.865 73.2961 150.885 73.3C150.905 73.3039 150.924 73.3122 150.94 73.3241C150.958 73.3343 150.973 73.348 150.985 73.3645C150.997 73.381 151.005 73.3998 151.009 73.4196C151.013 73.4395 151.012 73.46 151.008 73.4797C151.003 73.4994 150.995 73.518 150.982 73.5341C150.304 74.4855 149.278 75.1314 148.126 75.3317Z" fill="#263238"/>
<path d="M151.856 67.2256C151.793 67.2392 151.727 67.2308 151.669 67.2018C151.611 67.1728 151.564 67.1249 151.537 67.066C151.268 66.6561 150.913 66.3098 150.497 66.0515C150.081 65.7932 149.613 65.6291 149.126 65.5708C149.045 65.5584 148.972 65.5143 148.923 65.4481C148.874 65.382 148.854 65.2993 148.866 65.218C148.878 65.1378 148.921 65.0654 148.985 65.0154C149.049 64.9655 149.129 64.9418 149.21 64.9492C149.796 65.017 150.36 65.2171 150.857 65.5343C151.355 65.8515 151.774 66.2776 152.083 66.7804C152.116 66.8543 152.119 66.938 152.093 67.0144C152.066 67.0908 152.012 67.1543 151.94 67.192C151.915 67.2103 151.887 67.2219 151.856 67.2256Z" fill="#263238"/>
<path d="M141.919 65.9572C141.865 65.9686 141.81 65.9652 141.758 65.9474C141.706 65.9297 141.66 65.8982 141.625 65.8564C141.577 65.789 141.556 65.7063 141.565 65.6242C141.574 65.542 141.613 65.4662 141.675 65.4112C142.037 65.0715 142.477 64.8263 142.956 64.6974C143.435 64.5684 143.939 64.5597 144.422 64.672C144.459 64.6816 144.495 64.6988 144.525 64.7224C144.556 64.746 144.581 64.7756 144.6 64.8094C144.619 64.8432 144.631 64.8804 144.635 64.9189C144.639 64.9573 144.635 64.9962 144.624 65.0332C144.6 65.1104 144.548 65.1755 144.477 65.2147C144.407 65.2539 144.323 65.2641 144.246 65.2432C143.865 65.1744 143.474 65.1939 143.103 65.3002C142.732 65.4065 142.39 65.5968 142.104 65.8564C142.054 65.9089 141.99 65.9442 141.919 65.9572Z" fill="#263238"/>
<path opacity="0.5" d="M170.807 93.7027L167.976 92.6779L165.456 95.2903L172.176 107.58C171.529 101.725 171.017 96.5671 170.807 93.7027Z" fill="black"/>
<path d="M177.686 124.472L175.889 128.496C175.889 128.496 171.689 130.579 171.151 132.007C170.613 133.435 168.337 136.644 170.891 137.425C172.043 137.833 173.3 137.834 174.452 137.427C175.605 137.021 176.583 136.231 177.224 135.191C178.551 133.04 179.072 131.696 179.005 130.68L181.886 125.505L177.686 124.472Z" fill="#B57756"/>
<path d="M147.295 55.8603C145.279 56.5491 138.618 59.9848 142.91 64.0168C142.91 64.0168 147.522 62.3368 150.596 64.0168C150.596 64.0168 150.084 60.7912 152.419 60.1612C152.419 60.1612 149.899 64.3612 153.931 67.3013C157.963 70.2413 155.611 72.6857 155.611 72.6857C155.611 72.6857 157.291 73.0133 157.988 70.2413C157.988 70.2413 159.441 72.4253 159.718 71.9633C170.966 53.1219 152.864 53.9619 147.295 55.8603Z" fill="#263238"/>
<path d="M161.298 71.4761C160.88 72.6495 160.038 73.6238 158.937 74.2061C157.467 74.9453 156.493 73.7105 156.694 72.1481C156.888 70.7453 157.879 68.662 159.45 68.5444C159.719 68.534 159.989 68.579 160.24 68.6768C160.492 68.7745 160.721 68.9228 160.913 69.1125C161.105 69.3023 161.256 69.5294 161.357 69.7799C161.458 70.0304 161.506 70.2989 161.499 70.5689C161.5 70.8824 161.431 71.1922 161.298 71.4761Z" fill="#B57756"/>
<path d="M164.347 85.1345C164.347 85.1345 171.311 85.1933 181.189 101.767C191.068 118.34 181.189 127.882 181.189 127.882L176.712 124.942C176.712 124.942 179.702 117.122 178.333 113.35C176.964 109.579 170.882 101.842 170.882 101.842C170.882 101.842 156.031 86.2349 164.347 85.1345Z" fill="#19A5B0"/>
<g opacity="0.3">
<path opacity="0.3" d="M164.347 85.1345C164.347 85.1345 171.311 85.1933 181.189 101.767C191.068 118.34 181.189 127.882 181.189 127.882L176.712 124.942C176.712 124.942 179.702 117.122 178.333 113.35C176.964 109.579 170.882 101.842 170.882 101.842C170.882 101.842 156.031 86.2349 164.347 85.1345Z" fill="black"/>
</g>
<defs>
<clipPath id="clip0_1203_9364">
<rect width="18" height="18" fill="white" transform="translate(29.601 97.0787)"/>
</clipPath>
</defs>
</svg>
