<svg width="24" height="24" viewBox="0 0 24 24" fill="none" xmlns="http://www.w3.org/2000/svg">
<path d="M18.0567 23.5C17.858 23.5 17.6593 23.4393 17.4951 23.3265L11.8877 19.4238C8.8982 19.3978 6.08152 18.4438 3.94741 16.7266C1.71826 14.9314 0.5 12.5377 0.5 9.96192C0.5 7.3948 1.7269 4.99246 3.94741 3.19721C6.10744 1.454 8.96732 0.5 12 0.5C15.0327 0.5 17.8926 1.454 20.0526 3.19721C22.2817 4.99246 23.5 7.38612 23.5 9.96192C23.5 13.0407 21.7288 15.868 18.722 17.6459L19.0503 22.4333C19.0763 22.8149 18.8862 23.1791 18.5492 23.3699C18.3937 23.4566 18.2209 23.5 18.0567 23.5ZM12.1901 17.4638C12.3888 17.4638 12.5875 17.5072 12.7517 17.6199L16.9249 20.5079L16.6916 17.1516C16.6657 16.7526 16.873 16.3797 17.2273 16.1976C19.9057 14.8013 21.5128 12.477 21.5128 9.97059C21.5128 5.85106 17.2446 2.50339 12 2.50339C6.74681 2.49472 2.47859 5.84238 2.47859 9.96192C2.47859 14.0814 6.74681 17.4291 11.9914 17.4291C12.0432 17.4291 12.1037 17.4465 12.1555 17.4465L12.1728 17.4638C12.1728 17.4638 12.1814 17.4638 12.1901 17.4638Z" fill="white"/>
<path d="M14.2118 9.65832C14.8751 9.65832 15.4128 9.1186 15.4128 8.45282C15.4128 7.78704 14.8751 7.24731 14.2118 7.24731C13.5486 7.24731 13.0109 7.78704 13.0109 8.45282C13.0109 9.1186 13.5486 9.65832 14.2118 9.65832Z" fill="white"/>
<path d="M14.2118 10.0834C13.6502 10.0834 13.1491 10.3349 12.7862 10.7425C13.0886 11.2368 13.27 11.8266 13.27 12.4597C13.27 12.6852 13.2268 12.8933 13.1491 13.0754C13.6588 13.2055 14.2032 13.1622 14.2032 13.1622C14.2032 13.1622 16.1558 13.3096 16.1558 12.1561C16.1558 11.0027 15.2832 10.0834 14.2118 10.0834Z" fill="white"/>
<path d="M12.7171 12.4509C12.7171 13.8906 10.2719 13.7085 10.2719 13.7085C10.2719 13.7085 7.82678 13.8906 7.82678 12.4509C7.82678 11.0113 8.92408 9.84045 10.2719 9.84045C11.6198 9.84045 12.7171 11.0113 12.7171 12.4509Z" fill="white"/>
<path d="M10.272 9.32011C11.107 9.32011 11.784 8.6406 11.784 7.80239C11.784 6.96418 11.107 6.28467 10.272 6.28467C9.4369 6.28467 8.75995 6.96418 8.75995 7.80239C8.75995 8.6406 9.4369 9.32011 10.272 9.32011Z" fill="white"/>
</svg>
