<svg width="25" height="24" viewBox="0 0 25 24" fill="none" xmlns="http://www.w3.org/2000/svg">
<path d="M11.5 2C9.52219 2 7.58879 2.58649 5.9443 3.6853C4.29981 4.78412 3.01809 6.3459 2.26121 8.17317C1.50433 10.0004 1.3063 12.0111 1.69215 13.9509C2.078 15.8907 3.03041 17.6725 4.42894 19.0711C5.82746 20.4696 7.60929 21.422 9.5491 21.8079C11.4889 22.1937 13.4996 21.9957 15.3268 21.2388C17.1541 20.4819 18.7159 19.2002 19.8147 17.5557C20.9135 15.9112 21.5 13.9778 21.5 12C21.5 10.6868 21.2413 9.38642 20.7388 8.17317C20.2363 6.95991 19.4997 5.85752 18.5711 4.92893C17.6425 4.00035 16.5401 3.26375 15.3268 2.7612C14.1136 2.25866 12.8132 2 11.5 2ZM11.5 20C9.91775 20 8.37104 19.5308 7.05544 18.6518C5.73985 17.7727 4.71447 16.5233 4.10897 15.0615C3.50347 13.5997 3.34504 11.9911 3.65372 10.4393C3.9624 8.88743 4.72433 7.46197 5.84315 6.34315C6.96197 5.22433 8.38743 4.4624 9.93928 4.15372C11.4911 3.84504 13.0997 4.00346 14.5615 4.60896C16.0233 5.21447 17.2727 6.23984 18.1518 7.55544C19.0308 8.87103 19.5 10.4177 19.5 12C19.5 14.1217 18.6572 16.1566 17.1569 17.6569C15.6566 19.1571 13.6217 20 11.5 20ZM11.5 6C11.2348 6 10.9804 6.10536 10.7929 6.29289C10.6054 6.48043 10.5 6.73478 10.5 7V11H8.5C8.23479 11 7.98043 11.1054 7.7929 11.2929C7.60536 11.4804 7.5 11.7348 7.5 12C7.5 12.2652 7.60536 12.5196 7.7929 12.7071C7.98043 12.8946 8.23479 13 8.5 13H11.5C11.7652 13 12.0196 12.8946 12.2071 12.7071C12.3946 12.5196 12.5 12.2652 12.5 12V7C12.5 6.73478 12.3946 6.48043 12.2071 6.29289C12.0196 6.10536 11.7652 6 11.5 6Z" fill="#A0A4A8"/>
</svg>
