<svg width="24" height="24" viewBox="0 0 24 24" fill="none" xmlns="http://www.w3.org/2000/svg">
<path d="M3 6H5H21" stroke="#E5251D" stroke-width="2" stroke-linecap="round" stroke-linejoin="round"/>
<path d="M8 6.00002V4.00002C8 3.46959 8.21071 2.96088 8.58579 2.58581C8.96086 2.21074 9.46957 2.00002 10 2.00002H14C14.5304 2.00002 15.0391 2.21074 15.4142 2.58581C15.7893 2.96088 16 3.46959 16 4.00002V6.00002M19 6.00002V20C19 20.5305 18.7893 21.0392 18.4142 21.4142C18.0391 21.7893 17.5304 22 17 22H7C6.46957 22 5.96086 21.7893 5.58579 21.4142C5.21071 21.0392 5 20.5305 5 20V6.00002H19Z" stroke="#E5251D" stroke-width="2" stroke-linecap="round" stroke-linejoin="round"/>
<path d="M10 11V17" stroke="#E5251D" stroke-width="2" stroke-linecap="round" stroke-linejoin="round"/>
<path d="M14 11V17" stroke="#E5251D" stroke-width="2" stroke-linecap="round" stroke-linejoin="round"/>
</svg>
