<svg width="216" height="242" viewBox="0 0 216 242" fill="none" xmlns="http://www.w3.org/2000/svg">
<g clip-path="url(#clip0_1203_1137)">
<path d="M170.474 93.9043C164.082 97.6078 151.699 95.1312 151.699 95.1312L151.963 84.5769L171.139 80.1626C171.139 80.1626 176.867 90.1952 170.474 93.9043Z" fill="#9E7058"/>
<path d="M179.469 83.6027C174.275 88.0858 162.116 88.9572 162.116 88.9572L160.917 78.4661L177.405 71.6611C177.405 71.6611 184.663 79.1139 179.469 83.6027Z" fill="#9E7058"/>
<path d="M184.342 75.2613C179.148 79.7444 166.989 80.6101 166.989 80.6101L165.791 70.1246L182.273 63.314C182.273 63.314 189.536 70.7782 184.342 75.2613Z" fill="#9E7058"/>
<path d="M191.308 32.9468L205.302 47.4911L174.625 65.9739L158.114 76.8663C158.114 76.8663 157.369 86.1307 161.187 88.6187C167.493 92.7349 161.279 102.899 153.218 99.8093C145.158 96.7193 132.219 86.5664 133.761 79.6869C135.303 72.8075 148.409 53.5966 151.974 50.3747C158.447 44.5043 191.308 32.9468 191.308 32.9468Z" fill="#C59276"/>
<path d="M196.639 49.4172C189.696 49.7038 182.788 50.0764 175.88 50.8504C175.384 50.9289 174.877 50.846 174.432 50.6137C173.987 50.3814 173.628 50.0121 173.409 49.5605C169.501 51.1784 166.131 53.872 163.692 57.3285C160.401 61.7887 157.386 66.117 153.373 69.981C150.231 73.008 146.023 76.5451 145.76 81.2518C145.76 81.6818 145.593 84.3304 146.333 84.4393C147.52 84.5998 148.758 84.038 149.813 83.5507C152.536 82.2895 154.972 80.5295 157.661 79.1823C157.78 79.1238 157.902 79.074 158.028 79.0332C158.028 77.7491 158.085 76.8777 158.085 76.8777L174.596 65.9852L202.297 49.3025L201.151 49.1592C199.626 49.2452 198.101 49.3541 196.639 49.4172Z" fill="#B7886E"/>
<path d="M156.652 59.5303L165.12 71.9878L167.516 70.675L156.652 59.5303Z" fill="#9E7058"/>
<path d="M137.527 81.8655L152.559 82.8688L153 80.1743L137.527 81.8655Z" fill="#9E7058"/>
<path d="M162.637 88.7026C162.059 82.0982 156.236 77.2127 149.632 77.7905C143.028 78.3683 138.142 84.1906 138.72 90.7951C139.298 97.3995 145.12 102.285 151.724 101.707C158.329 101.129 163.214 95.307 162.637 88.7026Z" fill="#E2810E"/>
<path d="M161.964 89.5049C161.386 82.9005 155.564 78.0149 148.959 78.5927C142.355 79.1705 137.469 84.9929 138.047 91.5973C138.625 98.2017 144.447 103.087 151.052 102.509C157.656 101.932 162.542 96.1093 161.964 89.5049Z" fill="#FFA412"/>
<path d="M158.493 97.6725C156.866 99.6109 154.618 100.925 152.131 101.392C149.644 101.858 147.072 101.448 144.854 100.231C142.635 99.014 140.907 97.0654 139.965 94.7172C139.022 92.369 138.922 89.7665 139.683 87.3532C140.444 84.9399 142.018 82.8651 144.138 81.4824C146.257 80.0996 148.79 79.4944 151.305 79.7698C153.82 80.0453 156.162 81.1844 157.932 82.9931C159.702 84.8018 160.79 87.1681 161.01 89.6889C161.139 91.12 160.983 92.5624 160.551 93.9328C160.119 95.3031 159.419 96.5742 158.493 97.6725ZM142.236 84.0314C138.591 88.3757 139.159 94.8752 143.504 98.5205C147.848 102.166 154.347 101.597 157.993 97.2529C161.638 92.9086 161.07 86.4085 156.726 82.7632C152.381 79.1179 145.881 79.6875 142.236 84.0314Z" fill="#F49A08"/>
<path d="M153.514 91.5292C153.37 91.3711 153.2 91.2396 153.011 91.1407C152.831 91.0534 152.634 91.0079 152.434 91.0078C152.194 91.0091 151.956 91.0448 151.726 91.114C151.421 91.2051 151.123 91.3182 150.834 91.4523C150.301 91.6916 149.755 91.9035 149.2 92.0871C148.73 92.2458 148.241 92.3398 147.745 92.3664C147.299 92.3873 146.853 92.3148 146.436 92.1535C146.022 91.9923 145.624 91.7099 145.244 91.3062C144.931 90.9812 144.688 90.5953 144.53 90.1726C144.384 89.7715 144.324 89.3441 144.354 88.9182C144.387 88.4679 144.502 88.0272 144.691 87.6171C144.905 87.1528 145.188 86.7236 145.531 86.3443L144.287 85.0221L145.352 84.0207L146.613 85.3621C147.014 85.0683 147.461 84.8425 147.936 84.6937C148.373 84.5537 148.834 84.5027 149.291 84.5437C149.749 84.5847 150.193 84.7168 150.598 84.9323C151.058 85.1768 151.472 85.498 151.823 85.8822L149.901 87.69C149.436 87.1958 148.979 86.9291 148.528 86.8899C148.078 86.8507 147.668 87.0046 147.301 87.3515C147.122 87.5122 146.975 87.7042 146.865 87.9178C146.778 88.0925 146.731 88.284 146.726 88.479C146.724 88.6644 146.764 88.8479 146.842 89.016C146.926 89.196 147.039 89.3612 147.177 89.5049C147.307 89.6474 147.461 89.7664 147.632 89.8565C147.804 89.9405 147.994 89.9835 148.186 89.9822C148.427 89.9803 148.667 89.9432 148.897 89.872C149.217 89.777 149.53 89.6631 149.836 89.531C150.417 89.2874 150.963 89.0842 151.475 88.9215C151.947 88.7662 152.437 88.6755 152.932 88.6517C153.38 88.6323 153.827 88.7058 154.245 88.8676C154.66 89.0287 155.055 89.3092 155.431 89.7089C155.751 90.0387 155.998 90.4315 156.157 90.8622C156.301 91.2627 156.359 91.6893 156.325 92.1136C156.286 92.5627 156.164 93.0007 155.966 93.4056C155.742 93.8669 155.454 94.2944 155.112 94.6756L156.267 95.9055L155.209 96.8999L154.057 95.6788C153.658 95.9853 153.224 96.2414 152.762 96.4415C152.315 96.6384 151.834 96.7489 151.345 96.7673C150.841 96.7813 150.341 96.6857 149.878 96.4871C149.385 96.283 148.906 95.9337 148.442 95.4392L150.365 93.6309C150.64 93.924 150.91 94.1295 151.176 94.2475C151.417 94.361 151.681 94.4161 151.947 94.408C152.192 94.3967 152.432 94.3304 152.649 94.214C152.868 94.0976 153.07 93.9522 153.251 93.7818C153.44 93.6101 153.6 93.4087 153.724 93.1854C153.826 93.0017 153.889 92.7994 153.911 92.5906C153.929 92.3999 153.903 92.2075 153.834 92.0285C153.761 91.8426 153.653 91.6729 153.514 91.5292Z" fill="#FFA412"/>
<path d="M152.768 88.2433L153.188 88.7441L154.127 87.9567L154.567 88.4811L153.629 89.2685L156.273 92.4205L155.082 93.4198L150.603 91.8072L149.507 92.7269L152.152 95.8789L150.74 97.0631L148.096 93.9112L147.261 94.6116L146.822 94.0884L147.657 93.388L147.236 92.8872L146.402 93.5876L145.963 93.0645L146.797 92.3641L145.039 90.269C144.985 90.1983 144.915 90.1409 144.835 90.1011C144.762 90.0699 144.685 90.0464 144.606 90.0311C144.486 90.0133 144.376 89.9563 144.292 89.8692C144.244 89.8171 144.206 89.7574 144.179 89.6925C144.073 89.4744 144.042 89.2273 144.092 88.99C144.142 88.7673 144.266 88.5678 144.443 88.4235C144.561 88.3138 144.708 88.2396 144.867 88.2092C145.026 88.1788 145.19 88.1936 145.341 88.2517L149.779 89.8599L150.917 88.9048L148.177 85.639L149.59 84.4537L152.33 87.7195L153.268 86.9321L153.707 87.4552L152.768 88.2433ZM148.207 91.1789L148.408 91.0105L147.921 90.8375L148.207 91.1789ZM149.857 91.5393L149.153 91.2772L148.647 91.7017L149.067 92.2025L149.857 91.5393ZM151.356 89.4287L150.523 90.1269L151.228 90.3889L151.776 89.9291L151.356 89.4287ZM152.215 90.4526L151.973 90.6556L152.569 90.8738L152.215 90.4526Z" fill="#FF544F"/>
<path d="M152.592 88.0336L153.012 88.534L153.95 87.7466L154.39 88.2702L153.451 89.0576L156.096 92.2096L154.905 93.2088L150.426 91.5963L149.33 92.516L151.975 95.6679L150.563 96.8522L147.918 93.7002L147.084 94.4006L146.644 93.8771L147.479 93.1767L147.059 92.6763L146.224 93.3767L145.784 92.8518L146.619 92.1515L144.862 90.058C144.808 89.9874 144.738 89.93 144.658 89.8902C144.584 89.8589 144.508 89.8354 144.429 89.8202C144.309 89.8023 144.199 89.7454 144.114 89.6582C144.067 89.6061 144.028 89.5462 144.001 89.4811C143.895 89.2632 143.865 89.0162 143.915 88.7791C143.965 88.5563 144.088 88.3568 144.265 88.2125C144.384 88.1029 144.531 88.0286 144.69 87.9983C144.849 87.9679 145.013 87.9826 145.164 88.0408L149.602 89.6485L150.74 88.6934L148 85.4281L149.413 84.2428L152.153 87.5081L153.091 86.7207L153.53 87.2443L152.592 88.0336ZM148.031 90.9688L148.231 90.8004L147.744 90.6274L148.031 90.9688ZM149.681 91.3292L148.976 91.0675L148.471 91.492L148.89 91.9924L149.681 91.3292ZM151.179 89.219L150.347 89.9172L151.052 90.1789L151.6 89.719L151.179 89.219ZM152.039 90.2429L151.797 90.446L152.393 90.6641L152.039 90.2429Z" fill="#FFB93E"/>
<path d="M173.215 47.9498L205.319 47.4912C205.319 47.4912 193.434 54.944 191.76 58.1142C189.175 62.9757 190.614 66.3008 182.811 72.2802C175.599 77.8067 164.954 84.732 155.999 88.9686C149.005 92.2879 142.418 86.8187 147.749 81.2808C151.946 76.9238 157.644 72.6069 161.176 69.4883C164.707 66.3696 164.082 54.2732 173.215 47.9498Z" fill="#C59276"/>
<path d="M215.483 14.4524L184.101 32.4307L200.147 54.5596L215.483 46.975V14.4524Z" fill="#017CA8"/>
<path d="M131.324 65.3947C125.889 70.3995 113.266 70.6689 113.266 70.6689L111.23 60.3096L129.002 51.8364C129.002 51.8364 136.759 60.3899 131.324 65.3947Z" fill="#9E7058"/>
<path d="M137.866 53.3903C133.767 58.8938 122.089 62.3794 122.089 62.3794L118.649 52.4042L133.262 42.1768C133.262 42.1768 141.965 47.8867 137.866 53.3903Z" fill="#9E7058"/>
<path d="M140.812 44.1891C136.713 49.6869 125.035 53.1783 125.035 53.1783L121.596 43.1973L136.209 32.9756C136.209 32.9756 144.911 38.6855 140.812 44.1891Z" fill="#9E7058"/>
<path d="M138.422 1.37012L155.248 12.5263L129.312 37.2293L115.553 51.4755C115.553 51.4755 116.843 60.6825 121.108 62.282C128.154 64.9305 124.296 76.1957 115.754 74.9344C107.212 73.6732 92.381 66.5644 92.3867 59.4556C92.3925 52.3469 101.043 30.7913 103.807 26.8986C108.852 19.7841 138.422 1.37012 138.422 1.37012Z" fill="#C59276"/>
<path d="M147.21 16.2869C140.491 18.0756 133.83 19.9388 127.254 22.1975C126.786 22.3779 126.273 22.4051 125.789 22.2753C125.305 22.1455 124.875 21.8653 124.56 21.4752C121.095 23.9065 118.393 27.2725 116.769 31.181C114.527 36.2488 112.526 41.1332 109.448 45.7711C107.034 49.4115 103.715 53.7972 104.46 58.4236C104.529 58.8536 104.965 61.4678 105.739 61.4047C106.931 61.3072 108.032 60.4874 108.938 59.788C111.322 57.9592 113.329 55.7177 115.651 53.8201C115.753 53.7343 115.862 53.6576 115.978 53.5908C115.691 52.341 115.565 51.4753 115.565 51.4753L129.324 37.2291L152.708 14.9512L151.562 15.0601C150.083 15.4786 148.621 15.9086 147.21 16.2869Z" fill="#B7886E"/>
<path d="M110.365 34.8389L121.338 45.1638L123.396 43.3637L110.365 34.8389Z" fill="#9E7058"/>
<path d="M96.5488 60.7972L111.443 58.5097L111.288 55.7866L96.5488 60.7972Z" fill="#9E7058"/>
<path d="M121.94 60.0755C119.139 54.067 111.996 51.4675 105.988 54.2693C99.9795 57.0711 97.3799 64.2132 100.182 70.2217C102.984 76.2302 110.126 78.8298 116.134 76.028C122.143 73.2261 124.742 66.084 121.94 60.0755Z" fill="#E2810E"/>
<path d="M121.583 61.0599C118.781 55.0514 111.639 52.4518 105.63 55.2536C99.6216 58.0554 97.022 65.1976 99.8238 71.2061C102.626 77.2146 109.768 79.8141 115.776 77.0123C121.785 74.2105 124.384 67.0684 121.583 61.0599Z" fill="#FFA412"/>
<path d="M121.115 69.9221C120.249 72.2999 118.586 74.3041 116.408 75.5931C114.231 76.8821 111.674 77.3763 109.173 76.9913C106.672 76.6064 104.382 75.3662 102.693 73.482C101.004 71.5979 100.02 69.1864 99.91 66.6584C99.7996 64.1304 100.569 61.6423 102.088 59.6182C103.606 57.594 105.779 56.1589 108.237 55.5575C110.695 54.956 113.285 55.2254 115.567 56.3198C117.849 57.4141 119.68 59.2657 120.749 61.559C121.36 62.8597 121.707 64.2685 121.769 65.704C121.832 67.1395 121.61 68.5732 121.115 69.9221ZM101.173 62.6638C99.2329 67.9929 101.99 73.906 107.319 75.8456C112.648 77.7853 118.562 75.0279 120.501 69.6989C122.441 64.3698 119.684 58.456 114.355 56.5164C109.025 54.5768 103.112 57.3353 101.173 62.6638Z" fill="#F49A08"/>
<path d="M114.335 65.8519C114.146 65.7525 113.941 65.6872 113.729 65.659C113.53 65.6383 113.33 65.663 113.142 65.7313C112.917 65.8145 112.705 65.9297 112.513 66.0733C112.257 66.2632 112.016 66.4714 111.79 66.6962C111.371 67.1036 110.931 67.4892 110.472 67.8516C110.085 68.1615 109.657 68.4172 109.2 68.6116C108.788 68.7841 108.344 68.8685 107.897 68.8595C107.453 68.8497 106.983 68.7201 106.488 68.4708C106.082 68.2725 105.722 67.993 105.429 67.6497C105.154 67.323 104.951 66.9419 104.834 66.5314C104.712 66.0967 104.668 65.6435 104.706 65.1935C104.748 64.6839 104.867 64.1838 105.06 63.71L103.439 62.8929L104.097 61.5878L105.74 62.4172C106.017 62.0038 106.36 61.6387 106.755 61.3365C107.118 61.0554 107.534 60.8498 107.978 60.7319C108.421 60.614 108.884 60.5862 109.339 60.6501C109.854 60.7226 110.353 60.8828 110.815 61.1237L109.626 63.4801C109.021 63.1746 108.5 63.0804 108.063 63.1976C107.626 63.3149 107.294 63.5994 107.067 64.0512C106.955 64.2633 106.882 64.4941 106.852 64.7324C106.83 64.9262 106.851 65.1224 106.913 65.3072C106.975 65.4821 107.075 65.641 107.206 65.7721C107.347 65.9125 107.509 66.0291 107.687 66.1171C107.859 66.2065 108.044 66.2656 108.236 66.2918C108.426 66.3118 108.619 66.2874 108.799 66.2206C109.025 66.1363 109.237 66.0194 109.43 65.8737C109.698 65.6751 109.953 65.4608 110.196 65.232C110.658 64.8045 111.102 64.4268 111.527 64.0988C111.917 63.7916 112.347 63.5387 112.804 63.3469C113.218 63.1756 113.663 63.0918 114.111 63.101C114.557 63.1103 115.024 63.2385 115.514 63.4858C115.927 63.6864 116.294 63.9709 116.591 64.3211C116.863 64.6482 117.063 65.0294 117.177 65.4396C117.293 65.875 117.329 66.3282 117.281 66.7765C117.228 67.2865 117.104 67.7866 116.912 68.2622L118.419 69.0226L117.765 70.3188L116.264 69.5655C115.995 69.9898 115.674 70.3793 115.309 70.725C114.955 71.0632 114.541 71.3316 114.088 71.516C113.62 71.7014 113.117 71.7827 112.614 71.7543C112.081 71.7311 111.512 71.5667 110.906 71.261L112.094 68.904C112.453 69.0852 112.778 69.1859 113.068 69.2058C113.333 69.2302 113.6 69.1916 113.847 69.0931C114.074 68.9985 114.276 68.8542 114.44 68.6708C114.606 68.4864 114.747 68.2805 114.858 68.0586C114.977 67.8326 115.059 67.5886 115.099 67.3363C115.132 67.129 115.122 66.9172 115.071 66.7136C115.023 66.5281 114.932 66.3563 114.807 66.2115C114.675 66.0618 114.514 65.9396 114.335 65.8519Z" fill="#FFA412"/>
<path d="M112.51 63.0194L113.077 63.3463L113.689 62.2855L114.282 62.6278L113.669 63.6886L117.233 65.7459L116.455 67.0922L111.695 67.109L110.979 68.3481L114.543 70.4054L113.621 72.0009L110.058 69.9436L109.513 70.8873L108.922 70.5458L109.467 69.6022L108.901 69.2753L108.356 70.2189L107.764 69.8775L108.309 68.9338L105.941 67.5664C105.865 67.5186 105.78 67.4885 105.691 67.4784C105.611 67.4742 105.531 67.4784 105.452 67.4909C105.333 67.5152 105.21 67.4995 105.101 67.4464C105.039 67.4138 104.982 67.3707 104.934 67.3191C104.76 67.1504 104.647 66.9286 104.613 66.6886C104.584 66.4621 104.632 66.2324 104.749 66.0362C104.823 65.8926 104.935 65.7725 105.074 65.6897C105.213 65.6069 105.372 65.5646 105.534 65.5676L110.255 65.5608L110.998 64.274L107.306 62.1424L108.228 60.5454L111.92 62.677L112.532 61.6162L113.123 61.9576L112.51 63.0194ZM109.229 67.3379L109.36 67.1111L108.843 67.1151L109.229 67.3379ZM110.902 67.1122L110.15 67.107L109.82 67.6789L110.386 68.0058L110.902 67.1122ZM111.588 64.6165L111.045 65.5572L111.797 65.5624L112.155 64.9429L111.588 64.6165ZM112.746 65.2848L112.588 65.5583L113.223 65.5595L112.746 65.2848Z" fill="#FF544F"/>
<path d="M112.273 62.8826L112.839 63.2092L113.451 62.1483L114.043 62.4901L113.431 63.5509L116.994 65.6082L116.217 66.9545L111.456 66.9713L110.741 68.2104L114.304 70.2677L113.383 71.8632L109.819 69.8059L109.275 70.7496L108.683 70.4078L109.227 69.4642L108.662 69.1376L108.117 70.0812L107.524 69.7387L108.068 68.795L105.702 67.4287C105.626 67.3809 105.541 67.3508 105.453 67.3407C105.373 67.3365 105.292 67.3407 105.213 67.3532C105.095 67.3775 104.971 67.3618 104.862 67.3087C104.8 67.276 104.743 67.2328 104.695 67.1811C104.521 67.0124 104.408 66.7908 104.374 66.5509C104.345 66.3244 104.393 66.0947 104.51 65.8986C104.584 65.7549 104.697 65.6348 104.835 65.552C104.974 65.4692 105.133 65.4269 105.295 65.4299L110.015 65.4228L110.758 64.1361L107.067 62.0048L107.989 60.4078L111.68 62.5391L112.293 61.4782L112.885 61.82L112.273 62.8826ZM108.991 67.2008L109.122 66.9739L108.605 66.9779L108.991 67.2008ZM110.665 66.9751L109.913 66.9702L109.583 67.542L110.149 67.8687L110.665 66.9751ZM111.351 64.4796L110.808 65.4203L111.559 65.4253L111.917 64.8057L111.351 64.4796ZM112.509 65.1479L112.351 65.4215L112.985 65.4226L112.509 65.1479Z" fill="#FFB93E"/>
<path d="M124.021 19.9447L155.248 12.5264C155.248 12.5264 145.267 22.3927 144.315 25.8381C142.848 31.1525 144.969 34.0763 138.663 41.615C132.821 48.5747 123.929 57.6671 116.115 63.7267C110.004 68.4793 102.385 64.5695 106.369 57.9938C109.522 52.8343 114.149 47.3765 116.918 43.5699C119.687 39.7633 116.482 28.0911 124.021 19.9447Z" fill="#C59276"/>
<path d="M133.589 0L131.279 2.42501L151.745 20.5466L172.561 0H133.589Z" fill="#EA6F06"/>
<path d="M47.4124 89.4904C53.8046 93.1996 66.1876 90.723 66.1876 90.723L65.9239 80.1687L46.7474 75.7544C46.7474 75.7544 41.0203 85.787 47.4124 89.4904Z" fill="#9E7058"/>
<path d="M38.4231 79.194C43.6171 83.6771 55.7765 84.5485 55.7765 84.5485L56.9689 74.0574L40.4869 67.2524C40.4869 67.2524 33.2291 74.7166 38.4231 79.194Z" fill="#9E7058"/>
<path d="M33.55 70.8526C38.744 75.3357 50.9035 76.2013 50.9035 76.2013L52.0959 65.7159L35.6139 58.9053C35.6139 58.9053 28.356 66.3695 33.55 70.8526Z" fill="#9E7058"/>
<path d="M26.5847 28.5381L12.585 43.0824L43.2616 61.5652L59.7723 72.4576C59.7723 72.4576 60.5176 81.722 56.6995 84.21C50.3933 88.3263 56.6135 98.4849 64.6682 95.4006C72.7229 92.3163 85.6735 82.1519 84.1256 75.2381C82.5778 68.3242 69.4552 49.1879 65.9123 45.966C59.4456 40.0956 26.5847 28.5381 26.5847 28.5381Z" fill="#C59276"/>
<path d="M21.2475 45.0086C28.19 45.2895 35.0981 45.6679 42.012 46.4361C42.5067 46.5124 43.013 46.4284 43.4565 46.1963C43.9001 45.9642 44.2577 45.5962 44.4771 45.1462C48.3985 46.7642 51.7787 49.4643 54.223 52.9314C57.5137 57.3916 60.5292 61.7199 64.5422 65.5839C67.6838 68.6109 71.8918 72.148 72.1612 76.8547C72.1612 77.2847 72.3217 79.9333 71.5879 80.0422C70.4012 80.2027 69.1629 79.6409 68.1138 79.1536C65.3849 77.8924 62.9542 76.1324 60.2597 74.7852C60.1412 74.7267 60.0186 74.6769 59.8928 74.6361C59.8928 73.3519 59.8355 72.4805 59.8355 72.4805L43.3248 61.5881L15.6006 44.8939L16.7185 44.7563C18.2721 44.8366 19.7856 44.9455 21.2475 45.0086Z" fill="#B7886E"/>
<path d="M61.2402 55.1157L52.767 67.579L50.3706 66.2662L61.2402 55.1157Z" fill="#9E7058"/>
<path d="M80.4175 86.888C80.9953 80.2836 76.1098 74.4612 69.5054 73.8834C62.901 73.3056 57.0786 78.1911 56.5008 84.7956C55.923 91.4 60.8085 97.2223 67.4129 97.8001C74.0174 98.3779 79.8397 93.4924 80.4175 86.888Z" fill="#E2810E"/>
<path d="M79.6153 87.5618C80.1931 80.9574 75.3076 75.1351 68.7031 74.5572C62.0987 73.9794 56.2764 78.865 55.6986 85.4694C55.1208 92.0738 60.0063 97.8961 66.6107 98.474C73.2151 99.0518 79.0375 94.1662 79.6153 87.5618Z" fill="#FFA412"/>
<path d="M74.779 95.0024C72.8406 96.6289 70.3982 97.533 67.868 97.5606C65.3377 97.5882 62.8762 96.7376 60.9028 95.1538C58.9293 93.5699 57.5661 91.3509 57.0454 88.8746C56.5247 86.3984 56.8788 83.8182 58.0472 81.5737C59.2156 79.3292 61.1261 77.5593 63.4532 76.5655C65.7803 75.5717 68.3799 75.4155 70.8093 76.1236C73.2386 76.8317 75.3472 78.3602 76.7759 80.4487C78.2046 82.5372 78.8649 85.0565 78.6444 87.5772C78.5229 89.0089 78.1187 90.4024 77.4552 91.6769C76.7918 92.9514 75.8822 94.0817 74.779 95.0024ZM61.1379 78.7456C56.7936 82.3909 56.2249 88.8904 59.8703 93.2347C63.5156 97.5791 70.0151 98.1477 74.3594 94.5024C78.7038 90.8571 79.2729 84.3571 75.6276 80.0128C71.9823 75.6685 65.4817 75.1007 61.1379 78.7456Z" fill="#F49A08"/>
<path d="M70.9428 88.0874C70.8287 87.9068 70.6838 87.7477 70.5145 87.6174C70.3529 87.5002 70.1667 87.4213 69.9701 87.3865C69.7336 87.346 69.4924 87.3398 69.2541 87.3681C68.9378 87.4048 68.6246 87.4644 68.3169 87.5463C67.7501 87.6894 67.1762 87.8033 66.5977 87.8878C66.1072 87.9624 65.6089 87.97 65.1164 87.9102C64.6729 87.8533 64.2463 87.7044 63.8636 87.4731C63.4837 87.2424 63.1417 86.8953 62.8374 86.4318C62.5855 86.0573 62.4131 85.6352 62.3311 85.1914C62.2564 84.771 62.2714 84.3396 62.375 83.9254C62.4865 83.4878 62.6754 83.0736 62.9329 82.7026C63.2244 82.2825 63.5779 81.9091 63.9814 81.595L62.9862 80.077L64.2087 79.2757L65.2171 80.8156C65.6635 80.596 66.1429 80.4512 66.6363 80.3871C67.0912 80.3252 67.554 80.355 67.9972 80.4747C68.4405 80.5945 68.8553 80.8019 69.2171 81.0845C69.6272 81.405 69.9794 81.7933 70.2584 82.2326L68.051 83.6791C67.6794 83.1117 67.2751 82.7696 66.8383 82.6528C66.4015 82.536 65.9718 82.6165 65.5492 82.8942C65.3457 83.0216 65.167 83.1849 65.0221 83.3764C64.9063 83.5333 64.8264 83.7137 64.7879 83.9049C64.7537 84.0871 64.7609 84.2748 64.809 84.4539C64.8605 84.6458 64.943 84.8281 65.0533 84.9934C65.157 85.1564 65.2881 85.3003 65.4407 85.4188C65.5959 85.5314 65.775 85.6067 65.9641 85.6387C66.202 85.6787 66.4446 85.6838 66.684 85.6537C67.0152 85.6156 67.3438 85.5579 67.6681 85.481C68.2821 85.3419 68.8554 85.2367 69.3879 85.1654C69.879 85.0943 70.3775 85.09 70.8697 85.1527C71.3139 85.2113 71.7411 85.3613 72.1245 85.5932C72.5056 85.8239 72.8463 86.1688 73.1467 86.6277C73.4042 87.008 73.5796 87.4377 73.6618 87.8896C73.7341 88.309 73.7164 88.739 73.6099 89.1511C73.4933 89.5866 73.2973 89.9968 73.0319 90.3612C72.7312 90.7765 72.3736 91.1475 71.9697 91.4634L72.8944 92.8754L71.6798 93.6709L70.7571 92.2683C70.3113 92.5009 69.8386 92.6777 69.3496 92.7946C68.8743 92.9107 68.3815 92.936 67.8968 92.8692C67.3987 92.7956 66.9225 92.6145 66.5012 92.3386C66.0513 92.0521 65.6404 91.6249 65.2685 91.0572L67.4764 89.6103C67.6966 89.9467 67.9273 90.1961 68.1685 90.3585C68.3858 90.5121 68.6364 90.6121 68.8997 90.6504C69.1434 90.6819 69.391 90.6582 69.6243 90.5812C69.8604 90.5046 70.0852 90.3966 70.2926 90.2601C70.5087 90.1239 70.7012 89.9533 70.8623 89.755C70.9942 89.5918 71.0919 89.4035 71.1492 89.2016C71.2003 89.0169 71.208 88.8229 71.1717 88.6348C71.1321 88.439 71.0543 88.253 70.9428 88.0874Z" fill="#FFA412"/>
<path d="M70.7791 84.723L71.1059 85.2892L72.1668 84.6767L72.5091 85.2696L71.4482 85.8821L73.5055 89.4454L72.1592 90.2227L68.0279 87.8568L66.7888 88.5722L68.846 92.1356L67.2505 93.0568L65.1932 89.4934L64.2496 90.0382L63.9081 89.4468L64.8517 88.902L64.5249 88.3358L63.5812 88.8806L63.2398 88.2892L64.1834 87.7444L62.8159 85.3758C62.7746 85.2968 62.7158 85.2281 62.6441 85.1751C62.5769 85.1315 62.5054 85.0951 62.4307 85.0664C62.3157 85.028 62.2167 84.9527 62.1489 84.8523C62.1112 84.7928 62.0839 84.7273 62.0682 84.6586C62.0017 84.4255 62.0146 84.1768 62.1049 83.9518C62.1931 83.7412 62.3494 83.5661 62.5487 83.4548C62.6847 83.3674 62.8424 83.3198 63.004 83.3175C63.1656 83.3151 63.3247 83.3581 63.4631 83.4415L67.5548 85.796L68.8416 85.0531L66.71 81.3611L68.307 80.4391L70.4386 84.1311L71.4994 83.5186L71.8409 84.11L70.7791 84.723ZM65.7777 86.822L66.0045 86.6911L65.5548 86.436L65.7777 86.822ZM67.34 87.4635L66.6915 87.083L66.1196 87.4132L66.4465 87.9794L67.34 87.4635ZM69.1821 85.6451L68.2413 86.1882L68.8899 86.5687L69.5094 86.211L69.1821 85.6451ZM69.8504 86.8027L69.5769 86.9606L70.126 87.279L69.8504 86.8027Z" fill="#FF544F"/>
<path d="M70.6422 84.4857L70.9688 85.0514L72.0296 84.4389L72.3714 85.0308L71.3105 85.6433L73.3678 89.2066L72.0215 89.9839L67.8901 87.6181L66.6511 88.3334L68.7083 91.8968L67.1128 92.818L65.0555 89.2546L64.1119 89.7994L63.7701 89.2075L64.7138 88.6627L64.3872 88.097L63.4435 88.6418L63.101 88.0485L64.0446 87.5037L62.6782 85.1371C62.6369 85.058 62.5781 84.9894 62.5064 84.9363C62.4392 84.8927 62.3677 84.8563 62.293 84.8276C62.1781 84.7892 62.079 84.7139 62.0112 84.6135C61.9734 84.5538 61.946 84.4882 61.9303 84.4194C61.8639 84.1863 61.877 83.9379 61.9672 83.713C62.0554 83.5024 62.2117 83.3274 62.411 83.216C62.547 83.1286 62.7047 83.081 62.8663 83.0787C63.0279 83.0763 63.187 83.1193 63.3254 83.2028L67.4168 85.5568L68.7036 84.8139L66.5723 81.1223L68.1693 80.2003L70.3006 83.8918L71.3614 83.2793L71.7031 83.8713L70.6422 84.4857ZM65.6405 86.5842L65.8674 86.4532L65.4176 86.1982L65.6405 86.5842ZM67.2029 87.2256L66.5546 86.8457L65.9827 87.1758L66.3093 87.7415L67.2029 87.2256ZM69.0452 85.4077L68.1044 85.9509L68.7527 86.3308L69.3723 85.9732L69.0452 85.4077ZM69.7135 86.5653L69.44 86.7233L69.9891 87.0416L69.7135 86.5653Z" fill="#FFB93E"/>
<path d="M44.672 43.57L12.5679 43.1113C12.5679 43.1113 24.4521 50.5641 26.1319 53.7344C28.7117 58.5958 27.2784 61.9209 35.0752 67.9003C42.3043 73.3809 52.956 80.3235 61.9051 84.5601C68.9049 87.8737 75.4863 82.4102 70.1604 76.8723C65.9582 72.5153 60.2597 68.1984 56.7283 65.0797C53.1968 61.961 53.816 49.8761 44.672 43.57Z" fill="#C59276"/>
<path d="M0.5 10.5598V43.9309L17.7388 50.1511L33.7851 28.0222L0.5 10.5598Z" fill="#2C3A64"/>
<path d="M148.047 221.214C146.832 227.022 130.912 233.328 109.775 233.328C88.6375 233.328 72.9638 227.297 71.502 221.214C71.502 220.096 71.5822 216.806 71.5822 216.806H148.128L148.047 221.214Z" fill="#B0B0B0"/>
<path d="M148.128 216.806C148.128 223.496 130.992 228.914 109.855 228.914C88.7177 228.914 71.5879 223.496 71.5879 216.806C71.5879 210.116 88.7235 204.692 109.861 204.692C130.998 204.692 148.128 210.116 148.128 216.806Z" fill="#C6C6C6"/>
<path d="M147.262 216.703C147.262 216.703 140.17 225.703 108.324 225.703C77.6188 225.703 72.5796 216.703 72.5796 216.703V114.83H147.262V216.703Z" fill="#19A5B0"/>
<path d="M148.047 116.326C146.832 121.434 130.912 127.023 109.775 127.023C88.6375 127.023 72.9638 121.697 71.502 116.326C71.502 115.334 71.5822 112.427 71.5822 112.427H148.128L148.047 116.326Z" fill="#B0B0B0"/>
<path d="M148.128 112.427C148.128 118.338 130.992 123.131 109.855 123.131C88.7177 123.131 71.5879 118.338 71.5879 112.427C71.5879 106.517 88.7235 101.724 109.861 101.724C130.998 101.724 148.128 106.517 148.128 112.427Z" fill="#C6C6C6"/>
<path d="M144.235 111.137C144.235 115.483 128.848 119.009 109.838 119.009C90.8275 119.009 75.4404 115.483 75.4404 111.137C75.4404 106.792 90.8332 103.266 109.838 103.266C128.842 103.266 144.235 106.792 144.235 111.137Z" fill="#D6D6D6"/>
<g style="mix-blend-mode:multiply">
<path d="M109.855 106.213C126.647 106.213 140.618 108.965 143.627 112.611C144 112.208 144.215 111.685 144.235 111.137C144.235 106.792 128.848 103.266 109.838 103.266C90.8275 103.266 75.4404 106.792 75.4404 111.137C75.4647 111.684 75.6797 112.206 76.0481 112.611C79.098 108.965 93.069 106.213 109.855 106.213Z" fill="#D6D6D6"/>
</g>
<path d="M122.14 111.74C122.14 112.179 121.966 112.6 121.655 112.911C121.344 113.222 120.923 113.396 120.483 113.396H98.5323C98.0929 113.396 97.6715 113.222 97.3608 112.911C97.0501 112.6 96.8755 112.179 96.8755 111.74C96.8747 111.521 96.917 111.305 96.9999 111.103C97.0827 110.901 97.2045 110.717 97.3584 110.562C97.5122 110.407 97.6951 110.284 97.8965 110.2C98.0979 110.116 98.314 110.072 98.5323 110.071H120.472C120.911 110.073 121.332 110.248 121.642 110.558C121.952 110.869 122.127 111.289 122.129 111.728L122.14 111.74Z" fill="#B0B0B0"/>
</g>
<defs>
<clipPath id="clip0_1203_1137">
<rect width="214.983" height="241.83" fill="white" transform="translate(0.5)"/>
</clipPath>
</defs>
</svg>
