<svg width="27" height="27" viewBox="0 0 27 27" fill="none" xmlns="http://www.w3.org/2000/svg">
<path d="M18 11.64C18 10.1124 17.3679 8.64728 16.2426 7.56707C15.1174 6.48686 13.5913 5.88 12 5.88C10.4087 5.88 8.88258 6.48686 7.75736 7.56707C6.63214 8.64728 6 10.1124 6 11.64C6 18.36 3 20.28 3 20.28H21C21 20.28 18 18.36 18 11.64Z" stroke="#52575C" stroke-width="2" stroke-linecap="round" stroke-linejoin="round"/>
<path d="M13.73 24.12C13.5542 24.411 13.3018 24.6525 12.9982 24.8203C12.6946 24.9882 12.3504 25.0766 12 25.0766C11.6496 25.0766 11.3054 24.9882 11.0018 24.8203C10.6981 24.6525 10.4458 24.411 10.27 24.12" stroke="#52575C" stroke-width="2" stroke-linecap="round" stroke-linejoin="round"/>
<circle cx="20" cy="7" r="7" fill="#EA6F06"/>
<path d="M18.968 8.82C19.096 8.82 19.192 8.84933 19.256 8.908C19.32 8.96667 19.352 9.04933 19.352 9.156C19.352 9.38533 19.224 9.5 18.968 9.5H16.296C16.0347 9.5 15.904 9.38533 15.904 9.156C15.904 9.04933 15.936 8.96667 16 8.908C16.0693 8.84933 16.168 8.82 16.296 8.82H17.216V4.828L16.392 5.348C16.3387 5.38 16.2853 5.396 16.232 5.396C16.1413 5.396 16.0613 5.356 15.992 5.276C15.928 5.196 15.896 5.10533 15.896 5.004C15.896 4.88133 15.9493 4.78533 16.056 4.716L17.288 3.932C17.4107 3.85733 17.528 3.82 17.64 3.82C17.7573 3.82 17.8533 3.85733 17.928 3.932C18.0027 4.00667 18.04 4.108 18.04 4.236V8.82H18.968ZM23.8209 3.86C23.9382 3.86 24.0262 3.892 24.0849 3.956C24.1489 4.02 24.1809 4.10267 24.1809 4.204C24.1809 4.3 24.1515 4.40133 24.0929 4.508L21.4769 9.34C21.3915 9.48933 21.2742 9.564 21.1249 9.564C21.0235 9.564 20.9302 9.52933 20.8449 9.46C20.7649 9.38533 20.7249 9.29467 20.7249 9.188C20.7249 9.124 20.7462 9.04933 20.7889 8.964L23.1969 4.54H20.5969C20.4689 4.54 20.3729 4.51067 20.3089 4.452C20.2449 4.39333 20.2129 4.31067 20.2129 4.204C20.2129 3.97467 20.3409 3.86 20.5969 3.86H23.8209Z" fill="black"/>
</svg>
