<svg width="24" height="25" viewBox="0 0 24 25" fill="none" xmlns="http://www.w3.org/2000/svg">
<path d="M19 3.81445H5C3.89543 3.81445 3 4.70988 3 5.81445V19.8145C3 20.919 3.89543 21.8145 5 21.8145H19C20.1046 21.8145 21 20.919 21 19.8145V5.81445C21 4.70988 20.1046 3.81445 19 3.81445Z" stroke="#52575C" stroke-width="2" stroke-linecap="round" stroke-linejoin="round"/>
<path d="M8.5 10.8145C9.32843 10.8145 10 10.1429 10 9.31445C10 8.48603 9.32843 7.81445 8.5 7.81445C7.67157 7.81445 7 8.48603 7 9.31445C7 10.1429 7.67157 10.8145 8.5 10.8145Z" stroke="#52575C" stroke-width="2" stroke-linecap="round" stroke-linejoin="round"/>
<path d="M21 15.8145L16 10.8145L5 21.8145" stroke="#52575C" stroke-width="2" stroke-linecap="round" stroke-linejoin="round"/>
</svg>
