<svg width="25" height="24" viewBox="0 0 25 24" fill="none" xmlns="http://www.w3.org/2000/svg">
<path d="M16 7.5L19.5 4M21.5 2L19.5 4L21.5 2ZM11.89 11.61C12.4064 12.1195 12.8168 12.726 13.0978 13.3948C13.3787 14.0635 13.5246 14.7813 13.5271 15.5066C13.5295 16.232 13.3884 16.9507 13.1119 17.6213C12.8355 18.2919 12.4291 18.9012 11.9162 19.4141C11.4033 19.9271 10.794 20.3334 10.1233 20.6099C9.45271 20.8864 8.73403 21.0275 8.00866 21.025C7.2833 21.0226 6.56557 20.8767 5.89682 20.5958C5.22807 20.3148 4.6215 19.9043 4.11203 19.388C3.11016 18.3507 2.55579 16.9614 2.56832 15.5193C2.58085 14.0772 3.15928 12.6977 4.17903 11.678C5.19877 10.6583 6.57824 10.0798 8.02032 10.0673C9.46241 10.0548 10.8517 10.6091 11.889 11.611L11.89 11.61ZM11.89 11.61L16 7.5L11.89 11.61ZM16 7.5L19 10.5L22.5 7L19.5 4L16 7.5Z" stroke="#19A5B0" stroke-width="2" stroke-linecap="round" stroke-linejoin="round"/>
</svg>
