<svg width="24" height="24" viewBox="0 0 24 24" fill="none" xmlns="http://www.w3.org/2000/svg">
<g clip-path="url(#clip0_1086_2736)">
<path d="M23.6213 12.3876C22.7253 11.9509 21.7018 11.7115 20.6458 11.6673C20.9284 9.82748 20.708 7.97683 19.9621 6.39579C19.8435 6.1438 19.5876 5.99567 19.3104 6.01283C18.0297 6.11264 16.7676 6.54617 15.6175 7.24298C14.9049 5.54949 13.7903 4.10122 12.3767 3.11854C12.1493 2.96049 11.8507 2.96049 11.6242 3.11854C10.2097 4.10258 9.09466 5.5522 8.38166 7.2466C7.23107 6.54978 5.97076 6.11264 4.69001 6.01328C4.41503 5.99206 4.15737 6.1438 4.03831 6.39624C3.29287 7.97728 3.07875 9.82748 3.36173 11.6668C2.30311 11.7106 1.27691 11.9504 0.378655 12.388C0.130324 12.5091 -0.0189409 12.7723 0.00193841 13.0505C0.201403 15.6906 1.88774 18.2471 4.40348 19.7229C5.82638 20.5583 7.40744 21 8.97427 21H8.97472C10.0405 21 11.076 20.7801 12 20.3804C12.924 20.7801 13.9591 21 15.0257 21C16.5926 21 18.1736 20.5579 19.5965 19.7229C22.1127 18.2466 23.7995 15.6897 23.9981 13.0505C24.0189 12.7714 23.8697 12.5086 23.6213 12.3876ZM18.9475 7.4182C19.4539 8.72829 19.5628 10.2276 19.2895 11.7147C18.3251 11.8321 17.3704 12.1126 16.4646 12.5461C16.4864 12.2544 16.5019 11.9613 16.5019 11.6655C16.5019 10.5911 16.3518 9.53936 16.0724 8.54494C16.9684 7.96193 17.9471 7.56994 18.9475 7.4182ZM12 4.5185C13.9653 6.09231 15.1688 8.78293 15.1688 11.665C15.1688 14.5462 13.9653 17.2368 12 18.8098C10.0351 17.2364 8.83167 14.5458 8.83167 11.665C8.83167 8.78338 10.0351 6.09276 12 4.5185ZM5.0534 7.4182C6.05339 7.57084 7.03116 7.96509 7.92764 8.54855C7.64866 9.54162 7.49895 10.5925 7.49895 11.665C7.49895 11.9604 7.51405 12.2535 7.53671 12.5443C6.63179 12.1121 5.67978 11.8321 4.71711 11.7147C4.44346 10.2271 4.54652 8.72829 5.0534 7.4182ZM8.97427 19.6452C7.64066 19.6452 6.29061 19.2663 5.06984 18.5496C3.08364 17.3841 1.70693 15.4517 1.38619 13.4213C2.09476 13.1472 2.88328 13.0036 3.69269 13.0036C5.0263 13.0036 6.37635 13.3825 7.59713 14.1C7.66199 14.138 7.72107 14.1813 7.78371 14.2215C8.24705 16.265 9.25592 18.0989 10.6624 19.4253C10.1249 19.568 9.55623 19.6452 8.97472 19.6452H8.97427ZM18.9302 18.5496C17.7094 19.2663 16.3593 19.6452 15.0257 19.6452C14.4442 19.6452 13.8751 19.5684 13.3381 19.4253C14.7441 18.0994 15.7529 16.2659 16.2163 14.2224C16.2798 14.1827 16.338 14.1375 16.4029 14.0996C17.6236 13.3829 18.9737 13.004 20.3073 13.004C21.1167 13.004 21.9057 13.1472 22.6138 13.4217C22.2931 15.4517 20.9164 17.3841 18.9302 18.5496Z" fill="white" stroke="white" stroke-width="0.7"/>
</g>
<defs>
<clipPath id="clip0_1086_2736">
<rect width="24" height="24" fill="white"/>
</clipPath>
</defs>
</svg>
