<svg width="25" height="24" viewBox="0 0 25 24" fill="none" xmlns="http://www.w3.org/2000/svg">
<path d="M4.61005 20.8628C4.939 20.9992 5.301 21.0349 5.65026 20.9655C5.99952 20.896 6.32034 20.7246 6.57214 20.4728L8.44722 18.6007H18.5007C19.2964 18.6007 20.0595 18.2846 20.6221 17.722C21.1847 17.1594 21.5008 16.3963 21.5008 15.6006V6.00014C21.5008 5.20445 21.1847 4.44135 20.6221 3.87872C20.0595 3.31608 19.2964 3 18.5007 3H6.50014C5.70445 3 4.94135 3.31608 4.37872 3.87872C3.81608 4.44135 3.5 5.20445 3.5 6.00014V19.2007C3.5001 19.5565 3.60559 19.9042 3.80316 20.2C4.00072 20.4958 4.2815 20.7264 4.61005 20.8628ZM18.5007 16.8006H7.70019L5.30008 19.2007V8.82026L9.80029 12.0364C10.5881 12.5994 11.5321 12.902 12.5004 12.902C13.4687 12.902 14.4127 12.5994 15.2005 12.0364L19.7007 8.82026V15.6006C19.7007 15.9188 19.5743 16.2241 19.3492 16.4491C19.1242 16.6742 18.819 16.8006 18.5007 16.8006ZM6.50014 4.80008H18.5007C18.819 4.80008 19.1242 4.92652 19.3492 5.15157C19.5743 5.37662 19.7007 5.68186 19.7007 6.00014V6.60016L14.1535 10.5693C13.6717 10.9125 13.0949 11.0969 12.5034 11.0969C11.9119 11.0969 11.3351 10.9125 10.8533 10.5693L5.30008 6.60016V6.00014C5.30008 5.68186 5.42652 5.37662 5.65157 5.15157C5.87662 4.92652 6.18186 4.80008 6.50014 4.80008Z" fill="#A0A4A8" stroke="#A0A4A8" stroke-width="0.35"/>
</svg>
