<svg width="201" height="149" viewBox="0 0 201 149" fill="none" xmlns="http://www.w3.org/2000/svg">
<path fill-rule="evenodd" clip-rule="evenodd" d="M154.521 136.792L153.061 142.559L8.90454 106.067L10.363 100.3C21.8973 103.219 30.8441 92.1093 32.2911 86.4011L40.6096 53.5327C47.1974 29.613 68.9789 13.0617 93.7916 13.1226C95.9165 5.18872 104.073 0.482085 112.005 2.60883C119.939 4.73558 124.648 12.8903 122.519 20.8242C144.279 32.9697 155.433 58.0052 149.906 82.3038L141.85 114.135C140.14 120.88 148.756 135.332 154.521 136.792Z" fill="#E2EAEB"/>
<path fill-rule="evenodd" clip-rule="evenodd" d="M55.0734 123.89C56.4576 138.607 69.5093 149.418 84.2271 148.036C92.2429 147.284 99.4951 142.962 103.973 136.267L55.0734 123.89Z" fill="#FFDA3E"/>
<path fill-rule="evenodd" clip-rule="evenodd" d="M55.0844 123.923C56.4686 138.641 69.5204 149.452 84.2382 148.07C92.2539 147.317 99.5062 142.995 103.984 136.301L55.0844 123.923Z" fill="#19A5B0"/>
<path fill-rule="evenodd" clip-rule="evenodd" d="M171.315 35.494C174.672 39.5323 177.192 44.2885 178.906 49.3302C180.652 54.3738 181.505 59.7316 181.593 65.0933C181.593 67.776 181.4 70.4549 181.054 73.1109C180.597 75.7536 180.069 78.3773 179.239 80.9191C177.634 86.0047 175.208 90.8275 171.903 94.9324C171.76 95.1095 171.505 95.1362 171.328 94.9953C171.191 94.8829 171.145 94.7002 171.199 94.5402C172.92 89.6413 174.346 84.809 175.304 79.9062C175.481 78.6686 175.724 77.4501 175.93 76.2258C176.071 74.9902 176.258 73.764 176.364 72.5302C176.444 71.2945 176.604 70.0665 176.656 68.8308C176.675 67.5932 176.734 66.3575 176.728 65.1218C176.756 60.1734 176.204 55.2325 175.243 50.3279C174.255 45.4194 172.768 40.5852 170.982 35.6863C170.945 35.5854 170.997 35.473 171.098 35.4369C171.178 35.4064 171.263 35.433 171.315 35.494Z" fill="#EA6F06"/>
<path fill-rule="evenodd" clip-rule="evenodd" d="M190.221 37.2094C193.461 40.9431 195.902 45.3718 197.602 50.0727C199.307 54.7793 200.291 59.7792 200.466 64.8095C200.656 69.8379 200.043 74.893 198.699 79.7081C197.357 84.5214 195.264 89.1214 192.313 93.0855C192.294 93.1103 192.258 93.116 192.235 93.0988C192.216 93.0836 192.208 93.0589 192.214 93.0379C193.437 88.2665 194.461 83.6246 195.082 78.958C195.702 74.2932 195.906 69.6304 195.733 64.9847C195.542 60.3409 194.981 55.7123 193.992 51.118C193.008 46.518 191.616 41.9789 190.03 37.3198C190.011 37.2608 190.042 37.198 190.101 37.177C190.145 37.1618 190.192 37.1751 190.221 37.2094Z" fill="#EA6F06"/>
<path fill-rule="evenodd" clip-rule="evenodd" d="M17.4158 61.0361C16.3877 55.9163 16.3762 50.568 17.1911 45.3397C17.9794 40.098 19.6739 34.9878 22.0273 30.2145C24.4377 25.4698 27.5183 21.0544 31.2387 17.2769C34.9324 13.4861 39.2164 10.2741 43.9421 8.0312C44.0278 7.99121 44.1268 8.02739 44.1668 8.11116C44.1991 8.17971 44.182 8.25967 44.1268 8.30918C40.2826 11.7992 36.7431 15.4377 33.6149 19.377C30.5095 23.324 27.7621 27.5184 25.542 31.9833C23.261 36.4195 21.5208 41.1205 20.1975 45.9699C18.8952 50.8308 18.0917 55.8478 17.5796 61.0285C17.5738 61.0723 17.5339 61.1066 17.4882 61.1028C17.452 61.0989 17.4234 61.0704 17.4158 61.0361Z" fill="#EA6F06"/>
<path fill-rule="evenodd" clip-rule="evenodd" d="M1.27666 50.9149C0.303727 46.1074 0.286591 41.098 0.992968 36.1933C1.72219 31.2887 3.17874 26.4697 5.32833 21.982C7.45508 17.4867 10.2006 13.2808 13.504 9.59662C16.7922 5.9067 20.5925 2.68136 24.827 0.244263C21.3694 3.68666 18.1935 7.27757 15.4232 11.1388C12.6625 15.0039 10.2615 19.0803 8.31568 23.3681C6.38885 27.6616 4.84282 32.1207 3.74041 36.7226C2.60754 41.3227 1.92782 46.0426 1.4385 50.9073C1.43279 50.9511 1.39471 50.9835 1.34711 50.9796C1.31284 50.9758 1.28237 50.9492 1.27666 50.9149Z" fill="#EA6F06"/>
<path fill-rule="evenodd" clip-rule="evenodd" d="M154.532 136.825C154.532 136.825 146.006 133.513 141.524 128.785C135.283 122.203 135.694 115.021 139.913 101.16C144.877 84.6545 144.742 67.2673 142.83 59.2973C136.172 31.5258 122.53 20.8578 122.53 20.8578C144.291 33.0033 155.444 58.0387 149.917 82.3373L141.861 114.168C140.449 118.871 148.767 135.365 154.532 136.825Z" fill="#CCDCDD"/>
</svg>
