<svg width="330" height="287" viewBox="0 0 330 287" fill="none" xmlns="http://www.w3.org/2000/svg">
<g clip-path="url(#clip0_1203_8462)">
<path d="M192.908 142.318C192.908 142.318 179.171 169.799 165.217 188.769C159.664 196.32 154.078 202.52 149.309 205.107C144.642 207.638 140.69 211.563 137.421 215.926C128.955 227.208 125.046 241.332 125.046 241.332L89.3625 187.348C89.3625 187.348 90.5807 134.58 94.8649 125.753C101.109 112.889 104.125 86.8991 106.524 81.7253C108.305 77.8872 113.387 58.06 113.873 56.6022C114.085 55.9752 115.775 55.0125 117.972 55.0139C119.734 55.0139 122.727 56.717 123.48 60.2179C127.297 77.9088 122.704 89.5793 122.763 90.0972C124.109 103.695 120.063 113.788 122.906 116.461C123.011 116.559 123.208 116.513 123.48 116.335C128.4 113.179 158.931 68.6659 162.691 67.7046C166.654 66.6916 192.908 142.318 192.908 142.318Z" fill="#B57756"/>
<path d="M135.781 230.649C135.781 230.649 135.294 254.637 133.902 286.947H43.9043C64.4705 243.074 82.3565 206.148 82.3565 206.148C82.3565 206.148 133.605 207.714 135.781 230.649Z" fill="#A0A4A8"/>
<path d="M224.113 49.3092L213.065 65.5079L202.223 81.4053C201.561 82.2031 200.796 82.48 199.969 82.4011C197.366 82.1543 194.148 78.4009 191.638 76.3233L191.384 76.1139C189.794 74.7913 188.792 72.8931 188.597 70.834C188.402 68.7748 189.03 66.7223 190.344 65.1249L206.917 45.091L211.833 39.1495C213.156 37.5599 215.054 36.5584 217.113 36.3637C219.172 36.1691 221.224 36.7972 222.822 38.1108L223.077 38.3202C224.666 39.6438 225.667 41.5423 225.861 43.6011C226.055 45.66 225.427 47.712 224.113 49.3092Z" fill="#B57756"/>
<path d="M213.055 65.5079L202.213 81.4053C201.551 82.203 200.786 82.4799 199.958 82.401L206.907 45.0967C206.923 45.3004 208.104 62.04 213.055 65.5079Z" fill="#B57756"/>
<path d="M165.217 188.769C159.664 196.32 154.078 202.52 149.309 205.107C144.642 207.638 140.69 211.563 137.421 215.926C133.66 214.173 129.373 212.117 125.183 210.08C120.081 207.6 119.885 200.355 124.883 197.67C124.932 197.644 124.98 197.617 125.027 197.59C129.71 194.911 134.508 185.449 134.508 185.449L165.217 188.769Z" fill="#B9724B"/>
<path d="M113.625 57.4229L110.734 69.0962C110.734 69.0962 113.262 70.1293 114.884 69.3273C116.507 68.5252 117.832 58.0513 113.625 57.4229Z" fill="#C69469"/>
<path d="M196.77 35.3961H134.6C128.459 35.3961 123.482 40.3739 123.482 46.5143V183.167C123.482 189.308 128.459 194.285 134.6 194.285H196.77C202.911 194.285 207.889 189.308 207.889 183.167V46.5143C207.889 40.3739 202.911 35.3961 196.77 35.3961Z" fill="#19A5B0"/>
<path d="M203.705 47.5659V181.051C203.705 185.579 200.026 189.284 195.526 189.284H135.837C131.343 189.284 127.658 185.579 127.658 181.051V47.5659C127.658 43.0377 131.336 39.3331 135.837 39.3331H195.532C200.026 39.3331 203.705 43.0435 203.705 47.5659Z" fill="#CAEAED"/>
<path d="M195.532 39.3331L136.576 189.284H135.837C131.343 189.284 127.658 185.579 127.658 181.051V47.5659C127.658 43.0377 131.336 39.3331 135.837 39.3331H195.532Z" fill="#D1EDEF"/>
<path d="M178.161 36.3273H153.21C151.17 36.3273 149.516 37.9814 149.516 40.0218V40.6044C149.516 42.6448 151.17 44.2989 153.21 44.2989H178.161C180.202 44.2989 181.856 42.6448 181.856 40.6044V40.0218C181.856 37.9814 180.202 36.3273 178.161 36.3273Z" fill="#19A5B0"/>
<path d="M218.605 110.478L216.958 111.104L205.877 115.315C205.62 115.414 205.357 115.497 205.091 115.565C203.292 116.026 201.386 115.81 199.736 114.958C198.086 114.105 196.807 112.676 196.142 110.942L195.98 110.511C195.275 108.64 195.339 106.565 196.158 104.741C196.978 102.917 198.486 101.491 200.353 100.775L210.683 96.8508L211.434 96.5638L213.082 95.9368C214.956 95.2308 217.032 95.2958 218.858 96.1176C220.683 96.9394 222.109 98.451 222.822 100.322L222.985 100.752C223.687 102.623 223.62 104.696 222.799 106.518C221.979 108.34 220.471 109.764 218.605 110.478Z" fill="#B57756"/>
<path d="M209.606 110.737C207.758 111.438 204.409 112.681 202.619 112.939C202.112 113.011 201.184 112.735 200.307 111.782C199.785 111.209 199.286 110.396 198.914 109.269C198.734 108.748 198.607 108.211 198.535 107.665C198.465 107.029 198.486 106.386 198.597 105.756C198.653 105.462 198.778 105.186 198.962 104.949C199.145 104.713 199.382 104.523 199.653 104.395C199.653 104.395 199.653 104.395 199.661 104.395C201.565 103.487 204.132 102.377 206.382 101.76C207.937 101.33 209.511 102.017 210.003 103.379L210.236 104.015L211.425 107.272C211.917 108.62 211.117 110.167 209.606 110.737Z" fill="#D7A57B"/>
<path d="M209.606 110.737C207.758 111.438 204.409 112.681 202.618 112.939C202.112 113.011 201.184 112.735 200.307 111.783C200.215 111.564 200.129 111.336 200.049 111.091C199.867 110.571 199.74 110.033 199.67 109.487C199.6 108.851 199.621 108.209 199.73 107.579C199.787 107.285 199.913 107.009 200.097 106.772C200.28 106.536 200.517 106.346 200.788 106.218C200.788 106.218 200.788 106.218 200.796 106.218C202.7 105.309 205.266 104.201 207.517 103.583C207.974 103.445 208.457 103.412 208.929 103.487C209.401 103.561 209.85 103.741 210.243 104.013L211.432 107.27C211.917 108.62 211.117 110.167 209.606 110.737Z" fill="#C69469"/>
<path d="M213.577 126.062L205.03 128.387C203.779 128.724 202.444 128.552 201.319 127.909C200.194 127.265 199.369 126.202 199.024 124.952L198.76 123.985C198.424 122.732 198.598 121.397 199.243 120.271C199.888 119.146 200.953 118.321 202.204 117.978L210.749 115.652C212.002 115.316 213.338 115.489 214.463 116.134C215.589 116.779 216.413 117.844 216.755 119.096L217.018 120.063C217.353 121.314 217.179 122.647 216.534 123.771C215.889 124.895 214.827 125.718 213.577 126.062Z" fill="#B57756"/>
<path d="M208.956 125.643C207.386 126.061 204.55 126.8 203.062 126.882C202.521 126.912 201.438 126.452 200.732 125.033C200.362 124.262 200.148 123.425 200.103 122.571C200.093 122.076 200.157 121.584 200.294 121.109C200.367 120.881 200.492 120.675 200.66 120.505C200.828 120.336 201.033 120.208 201.26 120.133H201.268C202.897 119.559 205.084 118.872 206.976 118.54C208.282 118.312 209.521 118.941 209.827 120.018L210.048 120.787L210.706 123.099C211.011 124.163 210.239 125.301 208.956 125.643Z" fill="#D7A57B"/>
<path d="M208.956 125.643C207.386 126.062 204.55 126.8 203.062 126.882C202.521 126.912 201.438 126.452 200.732 125.033C200.631 124.647 200.573 124.252 200.558 123.853C200.548 123.359 200.612 122.866 200.749 122.391C200.822 122.164 200.948 121.957 201.116 121.787C201.284 121.617 201.489 121.49 201.716 121.414C203.345 120.84 205.533 120.152 207.424 119.823C208.505 119.634 209.543 120.033 210.041 120.786L210.699 123.097C211.011 124.163 210.239 125.301 208.956 125.643Z" fill="#C69469"/>
<path d="M73.5957 224.348C73.5957 224.348 91.1833 241.194 103.04 247.698L112.018 241.33V250.724C112.018 250.724 129.666 253.846 135.241 250.724V225.109L85.6565 200.25L73.5957 224.348Z" fill="#8A8F94"/>
<path d="M138.987 248.685C132.156 250.087 117.434 244.721 117.434 244.721L119.804 221.785L103.161 240.837C94.6956 237.681 81.4526 229.465 73.5857 224.349C69.6687 221.8 67.0833 220.023 67.0833 220.023C78.1856 202.157 89.3525 185.444 89.3525 185.444C92.631 192.003 100.389 197.696 108.8 202.251C122.776 209.821 138.551 214.243 138.551 214.243C138.556 227.878 138.987 248.685 138.987 248.685Z" fill="#D1EBED"/>
<path d="M218.335 94.1059L218.152 94.1691L206.949 97.0386C202.023 98.3056 196.928 95.6397 195.628 91.1173L194.963 88.813C193.713 84.4699 196.397 79.9289 200.976 78.4568L204.675 77.5069L212.179 75.58C217.104 74.3145 222.198 76.9804 223.498 81.5028L224.165 83.82C225.396 88.0956 222.799 92.5707 218.335 94.1059Z" fill="#B57756"/>
<path d="M213.209 90.9782L207.756 93.4317H207.722C207.505 93.492 207.286 93.5399 207.063 93.5751C206.973 93.5895 206.88 93.5995 206.788 93.6096C206.75 93.6131 206.711 93.6131 206.673 93.6096C206.531 93.6047 206.393 93.5648 206.27 93.4934C206.147 93.422 206.044 93.3212 205.969 93.2002C205.895 93.0791 205.851 92.9415 205.843 92.7997C205.835 92.6578 205.862 92.5161 205.921 92.3871C206.455 91.2316 206.564 89.925 206.23 88.6969L206.099 88.222C206.1 88.2172 206.1 88.2123 206.099 88.2076L205.677 86.6609C205.356 85.4728 204.665 84.4176 203.705 83.6479C203.593 83.5575 203.478 83.4714 203.36 83.3911C202.284 82.645 202.558 80.9519 203.818 80.6076L203.852 80.5975L209.825 79.6936C211.302 79.2933 212.724 80.4297 213.125 81.9061L213.605 83.6665L214.626 87.4199C215.028 88.9064 214.678 90.5779 213.209 90.9782Z" fill="#C69469"/>
<path d="M213.209 90.9781L207.756 93.4316H207.722C207.594 93.456 207.195 93.5234 206.673 93.6038C206.531 93.5989 206.393 93.559 206.27 93.4876C206.147 93.4162 206.044 93.3154 205.969 93.1944C205.895 93.0733 205.851 92.9357 205.843 92.7938C205.835 92.652 205.862 92.5102 205.921 92.3813C206.455 91.2258 206.564 89.9191 206.23 88.6911L206.099 88.2161C206.1 88.2114 206.1 88.2065 206.099 88.2018L205.677 86.6608C205.356 85.4727 204.665 84.4175 203.705 83.6478C203.91 83.3482 204.215 83.1319 204.565 83.038L204.6 83.028L210.573 82.1255C211.817 81.7869 213.019 82.5401 213.61 83.6664L214.632 87.4198C215.028 88.9063 214.678 90.5778 213.209 90.9781Z" fill="#C69469"/>
<path d="M123.48 152.374C123.48 152.374 121.041 131.04 118.783 126.881C116.524 122.721 114.622 114.388 118.088 108.198C121.555 102.009 122.756 90.1044 122.756 90.1044C124.101 103.702 120.055 113.796 122.899 116.469C123.004 116.566 123.2 116.52 123.473 116.342L123.48 152.374Z" fill="#B87C5C"/>
<path d="M178.069 72.9659H93.1919C90.2458 72.9659 87.8574 75.3543 87.8574 78.3005V112.295C87.8574 115.241 90.2458 117.629 93.1919 117.629H178.069C181.016 117.629 183.404 115.241 183.404 112.295V78.3005C183.404 75.3543 181.016 72.9659 178.069 72.9659Z" fill="#19A5B0"/>
<path d="M178.663 52.0841H145.441C142.977 52.0841 140.979 54.0819 140.979 56.5463V62.8478C140.979 65.3122 142.977 67.31 145.441 67.31H178.663C181.128 67.31 183.126 65.3122 183.126 62.8478V56.5463C183.126 54.0819 181.128 52.0841 178.663 52.0841Z" fill="#8AD1D7"/>
<path d="M177.206 160.162H138.906C135.954 160.162 133.561 162.555 133.561 165.507V173.602C133.561 176.553 135.954 178.946 138.906 178.946H177.206C180.157 178.946 182.55 176.553 182.55 173.602V165.507C182.55 162.555 180.157 160.162 177.206 160.162Z" fill="#8AD1D7"/>
<path d="M155.909 125.413H192.093C193.791 125.413 195.42 126.088 196.621 127.288C197.822 128.489 198.496 130.118 198.496 131.816V145.975C198.496 147.673 197.822 149.301 196.621 150.502C195.421 151.703 193.793 152.378 192.094 152.378H155.909C155.068 152.379 154.235 152.213 153.458 151.892C152.681 151.57 151.975 151.098 151.38 150.504C150.785 149.909 150.313 149.203 149.992 148.426C149.67 147.649 149.504 146.816 149.504 145.975V131.816C149.504 130.975 149.67 130.142 149.992 129.365C150.313 128.588 150.785 127.882 151.38 127.288C151.975 126.693 152.681 126.221 153.458 125.9C154.235 125.578 155.068 125.413 155.909 125.413Z" fill="#EA6F06"/>
<path d="M294.39 286.957H228.382C225.216 284.835 208.778 273.622 201.982 265.263C200.547 263.491 195.268 248.225 191.221 235.83C188.691 228.082 186.629 221.462 186.289 219.942C186.169 219.413 186.088 218.364 186.04 216.944V216.929C185.868 211.86 186.103 202.085 186.345 194.32V194.284V194.182C186.357 193.841 186.367 193.505 186.378 193.178V193.166C186.378 193.133 186.378 193.099 186.378 193.066C186.423 191.717 186.466 190.446 186.506 189.29C186.608 186.4 186.694 184.226 186.73 183.375L186.744 182.979C186.849 182.921 190.024 181.226 194.268 184.284C195.293 185.022 196.24 186.807 197.103 189.136C197.656 190.622 198.174 192.33 198.656 194.129C200.509 201.049 201.84 209.322 202.55 211.537C203.698 215.124 217.185 230.859 218.034 231.838C218.047 231.855 218.061 231.871 218.074 231.887V207.019L207.887 179.758L203.705 168.567L201.603 162.943C199.378 159.187 197.397 155.292 195.674 151.282C194.491 148.496 193.406 145.504 192.734 142.66C192.574 141.983 192.437 141.313 192.328 140.652C191.931 138.249 191.898 136.019 192.456 134.204C193.442 130.971 195.663 130.363 197.369 130.429C197.545 130.429 197.716 130.45 197.881 130.469C198.047 130.489 198.211 130.521 198.372 130.564C198.669 130.643 198.954 130.762 199.22 130.917C199.661 131.175 200.04 131.529 200.327 131.953C200.327 131.953 201.762 133.834 203.7 136.362C204.972 138.026 206.457 139.97 207.883 141.844C210.422 145.183 212.781 148.301 213.43 149.21C216.935 154.144 226.373 170.224 226.373 170.224L237.421 170.688C239.171 170.761 240.837 171.458 242.117 172.653C246.045 176.322 254.515 184.261 255.554 185.441C255.554 185.829 262.135 188.994 267.22 191.812C270.857 193.349 277.765 198.795 277.765 198.795C279.2 200.059 280.288 201.317 280.84 202.525C283.209 207.681 289.634 252.516 292.706 274.681C293.7 281.806 294.34 286.588 294.39 286.957Z" fill="#B57756"/>
<path d="M226.377 170.23C226.377 170.23 236.611 186.936 237.966 187.688C239.32 188.44 244.589 189.495 245.191 187.688C245.794 185.882 226.377 170.23 226.377 170.23Z" fill="#B57756"/>
<path d="M277.821 198.847L277.77 198.801C277.77 198.801 270.861 193.348 267.224 191.818C262.555 189.235 256.627 186.351 255.687 185.596C256.77 186.836 264.392 195.462 267.326 196.108C269.901 196.676 275.751 198.275 277.821 198.847Z" fill="#B57756"/>
<path d="M218.075 231.88V207.019C218.075 207.019 223.981 216.898 224.433 222.317C224.885 227.736 221.979 236.505 218.075 231.88Z" fill="#B57756"/>
<path d="M196.647 140.65C195.786 139.17 194.237 136.489 193.704 134.983C193.561 134.552 193.574 133.709 194.096 132.803C194.482 132.155 195.012 131.605 195.645 131.195C195.983 130.956 196.348 130.759 196.733 130.608C197.179 130.446 197.65 130.359 198.125 130.351C198.364 130.362 198.598 130.43 198.805 130.551C199.012 130.671 199.187 130.84 199.314 131.043C200.339 132.537 201.636 134.57 202.518 136.411C203.128 137.682 202.936 139.15 202.046 139.794L201.63 140.098L199.504 141.65C198.624 142.3 197.35 141.861 196.647 140.65Z" fill="#C69469"/>
<path d="M196.647 140.65C195.786 139.17 194.237 136.49 193.704 134.983C193.561 134.553 193.574 133.709 194.096 132.804C194.56 132.422 195.078 132.111 195.633 131.881C196.079 131.718 196.549 131.632 197.024 131.624C197.264 131.634 197.497 131.703 197.704 131.823C197.912 131.944 198.086 132.113 198.214 132.316C199.24 133.809 200.537 135.842 201.418 137.682C201.809 138.497 201.871 139.391 201.63 140.097L199.504 141.649C198.624 142.3 197.35 141.861 196.647 140.65Z" fill="#C69469"/>
<path d="M254.291 52.295H240.454C236.798 52.295 233.835 55.2583 233.835 58.9137V70.3116C233.835 73.967 236.798 76.9303 240.454 76.9303H254.291C257.946 76.9303 260.909 73.967 260.909 70.3116V58.9137C260.909 55.2583 257.946 52.295 254.291 52.295Z" fill="#9AD7DC"/>
<path d="M240.183 64.4102C240.934 66.3917 247.381 71.5971 247.381 71.5971C247.381 71.5971 249.483 69.8897 251.428 68.0503C252.885 66.6901 254.246 65.2568 254.569 64.4102C255.332 62.4403 254.52 59.6224 251.7 59.1446C248.879 58.6668 247.377 61.6038 247.377 61.6038C247.377 61.6038 245.861 58.6668 243.044 59.1446C242.589 59.2175 242.152 59.3711 241.752 59.598C239.997 60.5779 239.556 62.7861 240.183 64.4102Z" fill="#EA6F06"/>
<path d="M31.7732 141.088H73.2255C74.8175 141.092 76.343 141.727 77.4689 142.852C78.5947 143.978 79.2294 145.503 79.2343 147.095V165.287C79.2302 166.749 78.6475 168.15 77.6135 169.184C76.5796 170.218 75.1784 170.801 73.7162 170.805H72.6501L74.6474 179.242L62.1088 170.805H31.4217C29.8317 170.799 28.3085 170.165 27.184 169.041C26.0596 167.917 25.425 166.393 25.4186 164.803V147.448C25.4235 145.764 26.0944 144.15 27.2849 142.958C28.4754 141.767 30.0889 141.094 31.7732 141.088Z" fill="#9AD7DC"/>
<path d="M30.6613 154.288H73.8913C74.1748 154.287 74.4464 154.174 74.6469 153.973C74.8474 153.773 74.9605 153.501 74.9617 153.218C74.9605 152.934 74.8474 152.662 74.6469 152.462C74.4464 152.261 74.1748 152.148 73.8913 152.147H30.6613C30.3776 152.148 30.1058 152.261 29.9053 152.462C29.7047 152.662 29.5917 152.934 29.5909 153.218C29.5917 153.501 29.7047 153.773 29.9053 153.974C30.1058 154.174 30.3776 154.287 30.6613 154.288Z" fill="#59BEC6"/>
<path d="M30.6613 159.079H73.8913C74.175 159.078 74.4468 158.965 74.6473 158.764C74.8479 158.564 74.9609 158.292 74.9617 158.008C74.9605 157.725 74.8474 157.453 74.6469 157.253C74.4464 157.052 74.1748 156.939 73.8913 156.938H30.6613C30.3776 156.939 30.1058 157.052 29.9053 157.252C29.7047 157.453 29.5917 157.725 29.5909 158.008C29.5913 158.292 29.7042 158.564 29.9049 158.765C30.1055 158.965 30.3775 159.078 30.6613 159.079Z" fill="#59BEC6"/>
<path d="M30.6613 163.871H73.8913C74.1748 163.87 74.4464 163.757 74.6469 163.556C74.8474 163.356 74.9605 163.084 74.9617 162.801C74.9609 162.517 74.8479 162.245 74.6473 162.045C74.4468 161.844 74.175 161.731 73.8913 161.73H30.6613C30.3775 161.731 30.1055 161.844 29.9049 162.044C29.7042 162.245 29.5913 162.517 29.5909 162.801C29.5917 163.084 29.7047 163.356 29.9053 163.557C30.1058 163.757 30.3776 163.87 30.6613 163.871Z" fill="#59BEC6"/>
<path d="M54.2089 146.846H72.5583C72.896 146.845 73.2196 146.711 73.4584 146.472C73.6972 146.233 73.8317 145.909 73.8324 145.572C73.8313 145.234 73.6967 144.911 73.458 144.672C73.2193 144.433 72.8959 144.299 72.5583 144.298H54.2089C53.8713 144.299 53.5479 144.433 53.3092 144.672C53.0705 144.911 52.9359 145.234 52.9348 145.572C52.9356 145.909 53.07 146.233 53.3088 146.472C53.5476 146.711 53.8712 146.845 54.2089 146.846Z" fill="#59BEC6"/>
<path d="M38.4407 146.847H49.4813C50.0376 146.847 50.4885 146.396 50.4885 145.84V145.306C50.4885 144.75 50.0376 144.299 49.4813 144.299H38.4407C37.8844 144.299 37.4334 144.75 37.4334 145.306V145.84C37.4334 146.396 37.8844 146.847 38.4407 146.847Z" fill="#59BEC6"/>
<path d="M240.059 150.311L266.132 158.835L250.514 143.613L248.929 147.332L242.217 147.365L240.059 150.311Z" fill="#DAF0F2"/>
<path d="M266.132 158.835L245.897 143.442L224.278 138.504L266.132 158.835Z" fill="white"/>
<path d="M250.514 143.613L266.132 158.835L255.723 137.51L250.514 143.613Z" fill="white"/>
<path d="M86.3166 53.1803L61.9468 56.6567L78.1182 45.6348L78.9418 49.1686L84.8675 50.2418L86.3166 53.1803Z" fill="#DAF0F2"/>
<path d="M61.9468 56.6567L82.226 46.2015L102.103 45.2014L61.9468 56.6567Z" fill="white"/>
<path d="M78.1182 45.6348L61.9468 56.6567L74.4652 39.4293L78.1182 45.6348Z" fill="white"/>
<path d="M124.578 93.6124C124.584 96.6678 123.575 99.6387 121.708 102.058C121.11 102.833 120.432 103.543 119.685 104.177C117.278 106.215 114.248 107.37 111.095 107.452C107.942 107.533 104.856 106.536 102.348 104.624C99.8391 102.713 98.0582 100.002 97.2999 96.9412C96.5415 93.8799 96.8511 90.6514 98.1775 87.79C99.5038 84.9286 101.767 82.6059 104.594 81.2061C107.42 79.8064 110.639 79.4136 113.719 80.0927C116.799 80.7719 119.554 82.4822 121.53 84.9407C123.505 87.3992 124.582 90.4585 124.582 93.6124H124.578Z" fill="white"/>
<path d="M116.296 100.156L116.189 100.04C116.029 99.9183 115.87 99.8422 115.23 99.7317C114.905 99.6772 114.453 99.6126 113.811 99.5294C113.811 99.5294 113.668 99.5136 113.6 99.5079L113.44 99.4936C113.256 99.3974 113.209 98.6327 113.21 97.8321C113.21 97.7718 113.21 97.7116 113.21 97.6513C113.21 97.3471 113.223 97.0473 113.234 96.7775C113.234 96.7603 113.234 96.7445 113.234 96.7273C113.63 96.7603 113.893 96.7574 113.893 96.7574C114.631 96.6986 115.091 94.7215 115.256 93.1231C115.482 92.5405 115.606 91.923 115.621 91.2981C115.645 90.7501 115.478 90.2107 115.147 89.7729C115.002 89.5893 114.827 89.4321 114.629 89.308C114.583 89.2621 114.536 89.2205 114.486 89.1804C113.8 88.4185 111.011 85.5633 109.177 87.2147C109.13 87.0497 108.534 85.196 105.647 85.8029C105.827 85.7842 107.107 85.6594 107.477 86.1817C107.426 86.1601 106.309 85.6637 105.611 86.097C105.286 86.295 105.083 86.7068 104.969 87.1401V87.1487C104.969 87.1487 104.969 87.1487 104.969 87.1559C104.968 87.1602 104.968 87.1645 104.969 87.1688C104.956 87.2276 104.941 87.2864 104.929 87.3453C104.929 87.3539 104.929 87.3625 104.929 87.3725C104.929 87.3826 104.929 87.3725 104.929 87.3725C104.85 87.7318 104.839 88.1024 104.894 88.4658C105.002 88.9178 105.798 90.2636 106.329 90.2636C106.537 90.2561 106.742 90.2073 106.931 90.1201C106.844 90.3767 106.772 90.6383 106.716 90.9035C106.141 93.5478 107.896 95.5565 108.802 95.0572C109.385 94.7401 109.825 95.7588 109.825 95.7588C109.739 97.6886 109.21 98.9483 108.821 99.2626C108.678 99.2783 108.376 99.3156 107.996 99.3759C107.996 99.3759 106.657 99.5194 105.639 99.9656L105.614 99.9756C105.409 100.056 105.216 100.164 105.04 100.297C104.968 100.351 104.905 100.417 104.854 100.491C104.831 100.518 104.81 100.547 104.794 100.578C104.454 101.227 104.111 102.201 103.789 103.343C105.915 104.922 108.512 105.736 111.159 105.653C113.806 105.57 116.347 104.595 118.37 102.885C117.622 101.319 116.764 100.511 116.296 100.156Z" fill="#EA6F06"/>
<path d="M149.786 84.183H134.059C133.511 84.183 133.068 84.6269 133.068 85.1744V85.6479C133.068 86.1955 133.511 86.6394 134.059 86.6394H149.786C150.333 86.6394 150.777 86.1955 150.777 85.6479V85.1744C150.777 84.6269 150.333 84.183 149.786 84.183Z" fill="white"/>
<path d="M149.975 95.4662H133.865C133.653 95.465 133.45 95.3803 133.3 95.2304C133.15 95.0805 133.066 94.8776 133.065 94.6656C133.065 94.4535 133.15 94.2503 133.3 94.1003C133.45 93.9503 133.653 93.8657 133.865 93.865H149.973C150.186 93.8657 150.389 93.9503 150.539 94.1003C150.689 94.2503 150.773 94.4535 150.774 94.6656C150.773 94.8774 150.689 95.0804 150.539 95.2304C150.39 95.3803 150.187 95.465 149.975 95.4662Z" fill="white"/>
<path d="M142.844 97.6527H133.679C133.34 97.6527 133.066 97.927 133.066 98.2654V98.6413C133.066 98.9796 133.34 99.2539 133.679 99.2539H142.844C143.182 99.2539 143.457 98.9796 143.457 98.6413V98.2654C143.457 97.927 143.182 97.6527 142.844 97.6527Z" fill="white"/>
<path d="M161.524 97.6527H146.714C146.289 97.6527 145.945 97.997 145.945 98.4217V98.4849C145.945 98.9096 146.289 99.2539 146.714 99.2539H161.524C161.948 99.2539 162.293 98.9096 162.293 98.4849V98.4217C162.293 97.997 161.948 97.6527 161.524 97.6527Z" fill="white"/>
<path d="M175.359 95.4662H154.239C154.027 95.4654 153.824 95.3808 153.674 95.2309C153.524 95.0809 153.439 94.8777 153.438 94.6656C153.439 94.4535 153.524 94.2503 153.674 94.1003C153.824 93.9503 154.027 93.8657 154.239 93.865H175.359C175.571 93.8657 175.774 93.9503 175.924 94.1003C176.074 94.2503 176.159 94.4535 176.16 94.6656C176.159 94.8776 176.074 95.0805 175.924 95.2304C175.774 95.3803 175.571 95.465 175.359 95.4662Z" fill="white"/>
<path d="M149.975 103.043H133.865C133.653 103.043 133.45 102.958 133.3 102.808C133.15 102.658 133.065 102.455 133.065 102.243C133.065 102.03 133.149 101.826 133.299 101.676C133.449 101.525 133.653 101.44 133.865 101.439H149.973C150.186 101.44 150.389 101.525 150.539 101.675C150.689 101.825 150.773 102.028 150.774 102.24C150.774 102.452 150.69 102.656 150.54 102.806C150.391 102.957 150.187 103.042 149.975 103.043Z" fill="white"/>
<path d="M175.359 103.043H154.239C154.027 103.043 153.824 102.958 153.674 102.808C153.524 102.658 153.439 102.455 153.438 102.243C153.438 102.03 153.523 101.826 153.673 101.676C153.823 101.525 154.026 101.44 154.239 101.439H175.359C175.571 101.44 175.774 101.525 175.924 101.675C176.074 101.825 176.159 102.028 176.16 102.24C176.16 102.452 176.075 102.656 175.925 102.807C175.775 102.958 175.572 103.043 175.359 103.043Z" fill="white"/>
<path d="M165.113 84.183H153.819C153.35 84.183 152.969 84.5633 152.969 85.0324V85.79C152.969 86.2591 153.35 86.6394 153.819 86.6394H165.113C165.583 86.6394 165.963 86.2591 165.963 85.79V85.0324C165.963 84.5633 165.583 84.183 165.113 84.183Z" fill="white"/>
<path d="M150.873 163.752H139.692C139.303 163.752 138.987 164.067 138.987 164.456V164.793C138.987 165.183 139.303 165.498 139.692 165.498H150.873C151.262 165.498 151.578 165.183 151.578 164.793V164.456C151.578 164.067 151.262 163.752 150.873 163.752Z" fill="#59BEC6"/>
<path d="M151.008 169.969H139.556C139.403 169.969 139.257 169.908 139.15 169.801C139.042 169.693 138.982 169.547 138.982 169.395C138.982 169.243 139.042 169.097 139.15 168.989C139.257 168.881 139.403 168.821 139.556 168.821H151.008C151.16 168.821 151.306 168.881 151.414 168.989C151.521 169.097 151.582 169.243 151.582 169.395C151.582 169.547 151.521 169.693 151.414 169.801C151.306 169.908 151.16 169.969 151.008 169.969Z" fill="#59BEC6"/>
<path d="M145.939 171.524H139.424C139.183 171.524 138.987 171.719 138.987 171.96V172.226C138.987 172.467 139.183 172.662 139.424 172.662H145.939C146.18 172.662 146.375 172.467 146.375 172.226V171.96C146.375 171.719 146.18 171.524 145.939 171.524Z" fill="#59BEC6"/>
<path d="M159.218 171.524H148.689C148.388 171.524 148.143 171.769 148.143 172.071V172.115C148.143 172.417 148.388 172.662 148.689 172.662H159.218C159.52 172.662 159.765 172.417 159.765 172.115V172.071C159.765 171.769 159.52 171.524 159.218 171.524Z" fill="#59BEC6"/>
<path d="M169.055 169.969H154.038C153.886 169.969 153.74 169.908 153.632 169.801C153.525 169.693 153.464 169.547 153.464 169.395C153.464 169.243 153.525 169.097 153.632 168.989C153.74 168.881 153.886 168.821 154.038 168.821H169.055C169.207 168.821 169.353 168.881 169.46 168.989C169.568 169.097 169.629 169.243 169.629 169.395C169.629 169.547 169.568 169.693 169.46 169.801C169.353 169.908 169.207 169.969 169.055 169.969Z" fill="#59BEC6"/>
<path d="M151.008 175.355H139.556C139.403 175.355 139.257 175.294 139.15 175.187C139.042 175.079 138.982 174.933 138.982 174.781C138.982 174.629 139.042 174.483 139.15 174.375C139.257 174.267 139.403 174.207 139.556 174.207H151.008C151.16 174.207 151.306 174.267 151.414 174.375C151.521 174.483 151.582 174.629 151.582 174.781C151.582 174.933 151.521 175.079 151.414 175.187C151.306 175.294 151.16 175.355 151.008 175.355Z" fill="#59BEC6"/>
<path d="M169.055 175.355H154.038C153.886 175.355 153.74 175.294 153.632 175.187C153.525 175.079 153.464 174.933 153.464 174.781C153.464 174.629 153.525 174.483 153.632 174.375C153.74 174.267 153.886 174.207 154.038 174.207H169.055C169.207 174.207 169.353 174.267 169.46 174.375C169.568 174.483 169.629 174.629 169.629 174.781C169.629 174.933 169.568 175.079 169.46 175.187C169.353 175.294 169.207 175.355 169.055 175.355Z" fill="#59BEC6"/>
<path d="M161.77 163.752H153.741C153.408 163.752 153.137 164.022 153.137 164.356V164.894C153.137 165.227 153.408 165.498 153.741 165.498H161.77C162.104 165.498 162.374 165.227 162.374 164.894V164.356C162.374 164.022 162.104 163.752 161.77 163.752Z" fill="#59BEC6"/>
<path d="M158.29 55.0211H147.108C146.719 55.0211 146.404 55.3365 146.404 55.7256V56.0628C146.404 56.4519 146.719 56.7673 147.108 56.7673H158.29C158.679 56.7673 158.994 56.4519 158.994 56.0628V55.7256C158.994 55.3365 158.679 55.0211 158.29 55.0211Z" fill="#59BEC6"/>
<path d="M158.426 61.2366H146.973C146.821 61.2366 146.675 61.1761 146.568 61.0685C146.46 60.9608 146.4 60.8149 146.4 60.6627C146.4 60.5104 146.46 60.3645 146.568 60.2568C146.675 60.1492 146.821 60.0887 146.973 60.0887H158.426C158.578 60.0887 158.724 60.1492 158.832 60.2568C158.939 60.3645 159 60.5104 159 60.6627C159 60.8149 158.939 60.9608 158.832 61.0685C158.724 61.1761 158.578 61.2366 158.426 61.2366Z" fill="#59BEC6"/>
<path d="M153.355 62.7919H146.84C146.599 62.7919 146.404 62.9871 146.404 63.228V63.4935C146.404 63.7344 146.599 63.9296 146.84 63.9296H153.355C153.596 63.9296 153.792 63.7344 153.792 63.4935V63.228C153.792 62.9871 153.596 62.7919 153.355 62.7919Z" fill="#59BEC6"/>
<path d="M166.634 62.7919H156.106C155.804 62.7919 155.559 63.0366 155.559 63.3385V63.383C155.559 63.6849 155.804 63.9296 156.106 63.9296H166.634C166.936 63.9296 167.181 63.6849 167.181 63.383V63.3385C167.181 63.0366 166.936 62.7919 166.634 62.7919Z" fill="#59BEC6"/>
<path d="M176.478 61.2366H161.456C161.304 61.2366 161.158 61.1761 161.05 61.0685C160.943 60.9608 160.882 60.8149 160.882 60.6627C160.882 60.5104 160.943 60.3645 161.05 60.2568C161.158 60.1492 161.304 60.0887 161.456 60.0887H176.478C176.63 60.0887 176.776 60.1492 176.884 60.2568C176.992 60.3645 177.052 60.5104 177.052 60.6627C177.052 60.8149 176.992 60.9608 176.884 61.0685C176.776 61.1761 176.63 61.2366 176.478 61.2366Z" fill="#59BEC6"/>
<path d="M169.188 55.0211H161.159C160.826 55.0211 160.555 55.2916 160.555 55.6252V56.1632C160.555 56.4968 160.826 56.7673 161.159 56.7673H169.188C169.522 56.7673 169.792 56.4968 169.792 56.1632V55.6252C169.792 55.2916 169.522 55.0211 169.188 55.0211Z" fill="#59BEC6"/>
<path d="M168.172 130.356H155.932C155.506 130.356 155.16 130.701 155.16 131.128V131.495C155.16 131.921 155.506 132.267 155.932 132.267H168.172C168.599 132.267 168.944 131.921 168.944 131.495V131.128C168.944 130.701 168.599 130.356 168.172 130.356Z" fill="#F6BD93"/>
<path d="M168.322 137.165H155.783C155.618 137.164 155.46 137.098 155.343 136.981C155.226 136.865 155.161 136.706 155.16 136.541C155.161 136.376 155.227 136.218 155.343 136.102C155.46 135.985 155.618 135.919 155.783 135.918H168.322C168.486 135.919 168.644 135.985 168.761 136.102C168.878 136.218 168.944 136.376 168.944 136.541C168.944 136.706 168.878 136.865 168.762 136.981C168.645 137.098 168.487 137.164 168.322 137.165Z" fill="#ED7D2B"/>
<path d="M162.77 138.864H155.638C155.374 138.864 155.16 139.078 155.16 139.342V139.633C155.16 139.897 155.374 140.111 155.638 140.111H162.77C163.034 140.111 163.248 139.897 163.248 139.633V139.342C163.248 139.078 163.034 138.864 162.77 138.864Z" fill="#F6BD93"/>
<path d="M177.309 138.864H165.782C165.452 138.864 165.184 139.132 165.184 139.462V139.511C165.184 139.842 165.452 140.109 165.782 140.109H177.309C177.639 140.109 177.907 139.842 177.907 139.511V139.462C177.907 139.132 177.639 138.864 177.309 138.864Z" fill="#F6BD93"/>
<path d="M188.078 137.165H171.639C171.474 137.164 171.315 137.098 171.199 136.981C171.082 136.865 171.016 136.706 171.016 136.541C171.017 136.376 171.083 136.218 171.199 136.102C171.316 135.985 171.474 135.919 171.639 135.918H188.078C188.243 135.919 188.401 135.985 188.518 136.102C188.635 136.218 188.7 136.376 188.701 136.541C188.701 136.706 188.635 136.865 188.518 136.981C188.402 137.098 188.244 137.164 188.078 137.165Z" fill="#F6BD93"/>
<path d="M168.322 143.058H155.783C155.618 143.058 155.46 142.992 155.343 142.875C155.226 142.758 155.161 142.6 155.16 142.435C155.161 142.27 155.226 142.112 155.343 141.995C155.46 141.879 155.618 141.813 155.783 141.812H168.322C168.487 141.813 168.645 141.879 168.761 141.995C168.878 142.112 168.944 142.27 168.944 142.435C168.944 142.6 168.878 142.758 168.761 142.875C168.645 142.992 168.487 143.058 168.322 143.058Z" fill="#F6BD93"/>
<path d="M188.078 143.058H171.639C171.474 143.058 171.315 142.992 171.199 142.875C171.082 142.758 171.016 142.6 171.016 142.435C171.016 142.27 171.082 142.112 171.199 141.995C171.315 141.879 171.474 141.813 171.639 141.812H188.078C188.243 141.813 188.402 141.879 188.518 141.995C188.635 142.112 188.701 142.27 188.701 142.435C188.701 142.6 188.635 142.758 188.518 142.875C188.402 142.992 188.243 143.058 188.078 143.058Z" fill="#F6BD93"/>
<path d="M168.322 146.128H155.783C155.618 146.128 155.46 146.062 155.343 145.946C155.226 145.829 155.161 145.671 155.16 145.506C155.161 145.341 155.226 145.182 155.343 145.066C155.46 144.949 155.618 144.883 155.783 144.883H168.322C168.487 144.883 168.645 144.949 168.761 145.066C168.878 145.182 168.944 145.341 168.944 145.506C168.944 145.671 168.878 145.829 168.761 145.946C168.645 146.062 168.487 146.128 168.322 146.128Z" fill="#F6BD93"/>
<path d="M188.078 146.128H171.639C171.474 146.128 171.315 146.062 171.199 145.946C171.082 145.829 171.016 145.671 171.016 145.506C171.016 145.341 171.082 145.182 171.199 145.066C171.315 144.949 171.474 144.883 171.639 144.883H188.078C188.243 144.883 188.402 144.949 188.518 145.066C188.635 145.182 188.701 145.341 188.701 145.506C188.701 145.671 188.635 145.829 188.518 145.946C188.402 146.062 188.243 146.128 188.078 146.128Z" fill="#F6BD93"/>
<path d="M180.104 130.356H171.313C170.948 130.356 170.652 130.652 170.652 131.017V131.605C170.652 131.971 170.948 132.267 171.313 132.267H180.104C180.469 132.267 180.765 131.971 180.765 131.605V131.017C180.765 130.652 180.469 130.356 180.104 130.356Z" fill="#F6BD93"/>
<path d="M139.174 47.6836L138.323 48.2948L137.462 47.6907C137.558 47.5544 137.686 47.443 137.834 47.3659C137.982 47.2889 138.146 47.2483 138.313 47.2476C138.48 47.2469 138.645 47.2861 138.794 47.3619C138.942 47.4377 139.071 47.548 139.168 47.6836H139.174Z" fill="white"/>
<path d="M138.326 45.7595C137.92 45.7595 137.52 45.8573 137.16 46.0446C136.8 46.2319 136.49 46.5032 136.257 46.8356L136.796 47.2144C136.968 46.9692 137.195 46.7688 137.46 46.63C137.725 46.4913 138.02 46.4183 138.319 46.4171C138.618 46.416 138.913 46.4868 139.179 46.6236C139.445 46.7603 139.674 46.959 139.847 47.2029L140.385 46.817C140.15 46.4897 139.841 46.223 139.483 46.0391C139.125 45.8552 138.728 45.7593 138.326 45.7595Z" fill="white"/>
<path d="M138.326 42.9316C137.467 42.9315 136.621 43.1382 135.858 43.5342C135.096 43.9303 134.441 44.5042 133.947 45.2072L134.488 45.586C134.919 44.9726 135.491 44.4715 136.156 44.1247C136.821 43.7779 137.559 43.5954 138.309 43.5926C139.059 43.5898 139.799 43.7667 140.466 44.1086C141.134 44.4504 141.709 44.9472 142.145 45.5573L142.681 45.1713C142.186 44.4781 141.532 43.9132 140.775 43.5236C140.017 43.134 139.178 42.9311 138.326 42.9316Z" fill="white"/>
<path d="M138.326 44.4783C137.715 44.4781 137.112 44.6245 136.569 44.905C136.026 45.1856 135.558 45.5923 135.204 46.091L135.743 46.4697C136.036 46.0601 136.421 45.7258 136.868 45.4945C137.315 45.2632 137.811 45.1416 138.314 45.1396C138.818 45.1377 139.314 45.2554 139.763 45.4832C140.212 45.711 140.6 46.0423 140.896 46.4497L141.431 46.0666C141.076 45.5746 140.61 45.174 140.07 44.8978C139.53 44.6217 138.932 44.4778 138.326 44.4783Z" fill="white"/>
<path d="M133.55 137.794C133.549 138.788 133.821 139.764 134.337 140.615C134.853 141.466 135.592 142.158 136.474 142.618C137.356 143.078 138.348 143.286 139.34 143.221C140.333 143.157 141.289 142.821 142.104 142.25C142.148 142.22 142.191 142.187 142.236 142.155C142.98 141.601 143.57 140.866 143.949 140.02C144.329 139.173 144.486 138.244 144.405 137.32C144.324 136.396 144.007 135.508 143.486 134.74C142.965 133.973 142.257 133.351 141.428 132.935C140.599 132.519 139.677 132.321 138.75 132.362C137.823 132.402 136.922 132.679 136.133 133.166C135.343 133.653 134.691 134.334 134.239 135.144C133.787 135.954 133.55 136.866 133.55 137.794Z" fill="white"/>
<path d="M140.465 141.282L139.964 140.838L139.84 140.861C139.747 140.796 139.651 140.735 139.553 140.679C139.586 140.477 139.613 140.289 139.636 140.122C139.682 139.795 139.711 139.465 139.721 139.134C139.986 139.121 140.165 139.092 140.165 139.092C140.667 138.976 140.692 137.261 140.576 136.366C140.672 136.369 140.767 136.351 140.855 136.313C141.236 136.145 141.257 135.57 141.257 135.57C141.195 135.685 141.1 135.779 140.985 135.841C140.985 135.841 141.62 134.97 140.883 134.375C140.145 133.779 139.398 134.168 138.97 134.194C138.032 134.251 137.425 134.307 137.119 134.924C136.814 135.541 136.936 137.205 137.515 137.821C137.525 137.878 137.535 137.934 137.543 137.992C137.57 138.191 137.649 138.379 137.772 138.538C137.669 139.123 137.431 139.676 137.078 140.154C136.886 140.308 136.718 140.489 136.578 140.692H136.568C136.256 141.165 136.019 141.685 135.867 142.231C135.867 142.231 135.867 142.231 135.867 142.24C136.176 142.458 136.509 142.64 136.858 142.785L136.927 142.814H136.943L137.056 142.858C137.148 142.894 137.24 142.927 137.333 142.957C137.426 142.988 137.53 143.018 137.629 143.044L137.772 143.077C137.812 143.087 137.852 143.095 137.894 143.102H137.911L137.993 143.118L138.185 143.151H138.23L138.336 143.165L138.487 143.183C138.543 143.183 138.6 143.193 138.657 143.196C138.715 143.198 138.765 143.196 138.819 143.204H138.99H139.174H139.234H139.325H139.317C139.375 143.204 139.431 143.197 139.488 143.191C140.206 143.123 140.902 142.913 141.537 142.571C141.245 142.091 140.884 141.656 140.465 141.282Z" fill="#19A5B0"/>
<path d="M186.935 169.399C186.935 170.482 187.256 171.541 187.858 172.442C188.46 173.342 189.315 174.044 190.316 174.458C191.317 174.872 192.418 174.98 193.48 174.769C194.543 174.557 195.518 174.035 196.284 173.269C197.049 172.502 197.57 171.526 197.781 170.464C197.991 169.401 197.882 168.3 197.467 167.3C197.052 166.3 196.349 165.445 195.448 164.844C194.547 164.243 193.488 163.923 192.404 163.924C191.685 163.921 190.972 164.06 190.306 164.334C189.641 164.608 189.036 165.012 188.528 165.521C188.019 166.03 187.616 166.635 187.343 167.301C187.07 167.966 186.931 168.68 186.935 169.399Z" fill="white"/>
<path d="M195.208 172.501C195.201 172.486 195.191 172.472 195.181 172.46C195.156 172.425 195.127 172.395 195.093 172.369C195.01 172.309 194.92 172.261 194.823 172.226H194.812C194.459 172.087 194.09 171.994 193.713 171.95C193.535 171.923 193.394 171.906 193.328 171.898C193.145 171.755 192.898 171.164 192.858 170.264C192.858 170.264 193.063 169.788 193.334 169.937C193.764 170.168 194.575 169.233 194.314 168.003C194.287 167.88 194.254 167.758 194.214 167.639C194.304 167.68 194.401 167.704 194.501 167.707C194.746 167.707 195.117 167.079 195.168 166.868C195.218 166.657 195.168 165.964 194.826 165.759C194.485 165.554 193.977 165.789 193.954 165.798C194.122 165.562 194.696 165.61 194.8 165.621C193.46 165.343 193.183 166.195 193.16 166.28C192.308 165.509 191.008 166.841 190.687 167.197C190.665 167.215 190.643 167.235 190.622 167.257C190.53 167.314 190.448 167.387 190.381 167.472C190.226 167.678 190.148 167.932 190.16 168.19C190.167 168.481 190.225 168.769 190.33 169.04C190.407 169.785 190.617 170.708 190.967 170.735C190.967 170.735 191.089 170.735 191.272 170.721C191.272 170.729 191.272 170.736 191.272 170.745C191.272 170.87 191.282 171.01 191.284 171.151V171.236C191.284 171.61 191.262 171.966 191.178 172.01H191.103C191.069 172.01 191.004 172.02 191.004 172.02C190.706 172.059 190.493 172.089 190.343 172.115C190.044 172.165 189.97 172.201 189.896 172.259C189.878 172.276 189.861 172.294 189.845 172.313C189.426 172.654 189.094 173.09 188.876 173.584C189.82 174.384 191.007 174.84 192.243 174.879C193.479 174.918 194.692 174.537 195.684 173.798C195.567 173.352 195.407 172.917 195.208 172.501Z" fill="#F99746"/>
<path d="M186.935 59.3699C186.933 60.5784 187.333 61.7534 188.071 62.71C188.308 63.0166 188.576 63.2974 188.872 63.5479C189.824 64.3536 191.022 64.8102 192.268 64.8422C193.515 64.8742 194.735 64.4796 195.726 63.7238C196.718 62.968 197.422 61.8963 197.722 60.686C198.022 59.4757 197.899 58.1993 197.375 57.0681C196.85 55.9368 195.955 55.0186 194.838 54.4652C193.72 53.9118 192.448 53.7565 191.23 54.025C190.012 54.2935 188.923 54.9696 188.142 55.9416C187.361 56.9135 186.935 58.123 186.935 59.3699Z" fill="white"/>
<path d="M195.208 62.4719C195.2 62.4571 195.191 62.4432 195.181 62.4303C195.156 62.3961 195.127 62.3656 195.093 62.3399C195.01 62.2783 194.919 62.2277 194.823 62.1893H194.812C194.459 62.0513 194.089 61.9588 193.713 61.9138C193.535 61.8851 193.394 61.8679 193.328 61.8607C193.27 61.8105 193.221 61.7496 193.185 61.6814C193.033 61.4145 192.884 60.9123 192.853 60.2279C192.853 60.2279 193.059 59.753 193.33 59.9008C193.76 60.1318 194.571 59.1978 194.31 57.9682C194.283 57.8444 194.25 57.7222 194.209 57.6023C194.299 57.6438 194.397 57.6672 194.496 57.6712C194.742 57.6712 195.113 57.0427 195.163 56.8332C195.214 56.6238 195.163 55.9279 194.822 55.7227C194.48 55.5176 193.973 55.7529 193.95 55.7629C194.117 55.5276 194.693 55.5749 194.796 55.585C193.456 55.3066 193.179 56.1675 193.156 56.2436C192.304 55.4745 191.004 56.806 190.683 57.1604C190.661 57.1786 190.639 57.1986 190.618 57.2206C190.526 57.2783 190.444 57.3516 190.377 57.4373C190.223 57.6409 190.144 57.8922 190.156 58.1475C190.163 58.4388 190.22 58.7267 190.325 58.9983C190.403 59.7444 190.612 60.6655 190.962 60.6928C190.962 60.6928 191.084 60.6928 191.268 60.6799C191.268 60.6871 191.268 60.6942 191.268 60.7028C191.268 60.8277 191.278 60.9683 191.279 61.1103V61.195C191.279 61.5695 191.258 61.9238 191.173 61.9698H191.099L191 61.9798C190.701 62.0185 190.489 62.0487 190.338 62.0745C190.04 62.1262 189.965 62.1606 189.892 62.218L189.84 62.2725C189.421 62.6142 189.09 63.0504 188.872 63.5451C188.923 63.5891 188.977 63.6322 189.031 63.6743L189.058 63.6958C189.099 63.7274 189.139 63.7575 189.18 63.7862C189.222 63.8149 189.238 63.8307 189.268 63.8508C189.298 63.8708 189.328 63.8924 189.358 63.911C189.388 63.9297 189.446 63.9713 189.492 63.9985L189.583 64.0559L189.698 64.1234L189.827 64.1951H189.839H189.846L189.865 64.2051L189.968 64.2582L190 64.274L190.058 64.3027L190.116 64.33L190.249 64.3888L190.384 64.4433L190.446 64.4677L190.507 64.4907L190.634 64.5351L190.766 64.5782L190.878 64.6126H190.889L190.961 64.6327C191.091 64.6686 191.225 64.7001 191.36 64.726C191.419 64.7374 191.477 64.7489 191.536 64.7575H191.582H191.598L191.713 64.7719H191.737H191.754C191.79 64.7719 191.826 64.7805 191.86 64.7834H191.879H191.912C191.977 64.7834 192.04 64.7934 192.104 64.7963H192.114H192.175H192.212H192.401C193.58 64.7982 194.728 64.4176 195.671 63.7116C195.554 63.2853 195.399 62.8704 195.208 62.4719Z" fill="#F99746"/>
<path d="M261.227 276.748L241.508 286.957H228.382C225.216 284.835 208.778 273.622 201.982 265.263C200.547 263.491 195.268 248.225 191.221 235.829C191.759 237.475 203.066 261.558 206.286 264.296C209.506 267.033 226.41 282.971 231.079 282.804C235.601 282.649 259.677 277.108 261.169 276.765L261.227 276.748Z" fill="#B57756"/>
<path d="M300.901 286.957H229.813C233.379 285.558 247.019 280.347 261.159 276.77L261.226 276.754C273.37 273.682 285.872 271.82 292.661 274.613L292.71 274.686L300.901 286.957Z" fill="#C8ECEF"/>
<path d="M186.378 193.06C187.575 192.621 189.258 192.331 190.076 193.699C191.35 195.825 186.618 214.586 186.027 216.942L186.378 193.06Z" fill="#B57756"/>
<path d="M186.743 182.972L186.337 194.32C186.337 194.32 188.723 194.709 190.079 193.696C191.434 192.683 190.717 182.839 186.743 182.972Z" fill="#C69469"/>
<path d="M138.987 248.685C132.156 250.087 117.434 244.721 117.434 244.721L119.804 221.784L103.161 240.837C94.6957 237.68 81.4526 229.465 73.5857 224.348C93.7473 222.15 108.8 202.253 108.8 202.253C122.776 209.823 138.551 214.245 138.551 214.245C138.556 227.878 138.987 248.685 138.987 248.685Z" fill="#BDE0E2"/>
<path d="M92.113 227.852C92.1182 227.305 92.2856 226.771 92.5941 226.318C92.9026 225.866 93.3384 225.515 93.8463 225.31C94.3542 225.105 94.9115 225.056 95.4476 225.167C95.9837 225.279 96.4746 225.548 96.8583 225.938C97.2419 226.329 97.501 226.825 97.6029 227.363C97.7047 227.901 97.6447 228.458 97.4304 228.962C97.2161 229.466 96.8572 229.895 96.399 230.195C95.9408 230.495 95.404 230.652 94.8563 230.647C94.4927 230.644 94.1333 230.569 93.7986 230.426C93.4639 230.284 93.1605 230.077 92.9058 229.818C92.6511 229.558 92.4499 229.251 92.3139 228.914C92.1779 228.577 92.1096 228.216 92.113 227.852Z" fill="#EA6F06"/>
</g>
<defs>
<clipPath id="clip0_1203_8462">
<rect width="330" height="286.957" fill="white"/>
</clipPath>
</defs>
</svg>
