<svg width="370" height="268" viewBox="0 0 370 268" fill="none" xmlns="http://www.w3.org/2000/svg">
<g clip-path="url(#clip0_1462_210)">
<path d="M78.9397 196.473C78.9397 196.473 87.5166 210.509 82.6272 227.596L80.4197 226.957C80.4197 226.957 82.5618 208.137 78.0731 198.671C73.5844 189.205 78.9397 196.473 78.9397 196.473Z" fill="#82B378"/>
<path d="M93.8305 75.3307L64.1124 240.912C63.9692 241.702 63.9901 242.517 64.1737 243.298C64.3572 244.079 64.6989 244.806 65.1741 245.428C65.6493 246.049 66.2464 246.55 66.9224 246.893C67.5983 247.237 68.3365 247.415 69.0839 247.415H84.7575L93.8305 75.3307Z" fill="#ED7D2B"/>
<path d="M299.945 28.61C299.945 28.61 255.608 61.8273 255.383 82.8455C255.383 82.8455 258.03 91.3486 255.886 102.794L256.95 106.588C256.95 106.588 258.482 92.0368 260.794 89.3524C260.789 89.3362 245.103 76.279 299.945 28.61Z" fill="#DFEBFD"/>
<path d="M255.881 102.788C255.881 102.788 251.79 117.673 260.36 131.364L262.152 130.163C262.152 130.163 255.579 114.145 257.192 104.482C258.804 94.8192 255.881 102.788 255.881 102.788Z" fill="#DFEBFD"/>
<path d="M94.1879 74.6608L74.4864 237.237C74.3318 238.508 74.4308 239.8 74.7766 241.027C75.1224 242.253 75.7072 243.386 76.4918 244.35C77.2763 245.313 78.2427 246.085 79.3263 246.613C80.4098 247.142 81.5856 247.415 82.775 247.415H111.672L95.3796 74.0791L94.1879 74.6608Z" fill="#309FA9"/>
<path d="M94.1876 74.6608L85.3694 236.2C85.292 237.64 85.4882 239.081 85.946 240.436C86.4037 241.791 87.1134 243.03 88.0315 244.079C88.9496 245.128 90.0568 245.963 91.2851 246.534C92.5134 247.105 93.8371 247.4 95.1748 247.401H138.272L94.1876 74.6608Z" fill="#47A9B2"/>
<path d="M93.856 75.9811L98.1435 236.202C98.0662 237.642 98.2624 239.083 98.7202 240.438C99.1779 241.792 99.8876 243.032 100.806 244.081C101.724 245.129 102.831 245.965 104.059 246.536C105.288 247.107 106.611 247.402 107.949 247.402H151.046L93.856 75.9811Z" fill="#6EBBC2"/>
<path d="M300.195 247.415H130.267C128.21 247.415 126.219 246.637 124.64 245.218C123.061 243.798 121.994 241.827 121.624 239.647L95.7731 87.2462C95.4975 85.6219 95.5565 83.9522 95.946 82.3552C96.3354 80.7582 97.0459 79.273 98.0269 78.0047C99.008 76.7364 100.236 75.716 101.623 75.0157C103.011 74.3155 104.524 73.9525 106.056 73.9524H273.978C276.034 73.9527 278.025 74.7302 279.604 76.1495C281.183 77.5689 282.251 79.5402 282.62 81.7202L308.837 236.238C309.069 237.604 309.02 239.007 308.693 240.35C308.367 241.693 307.77 242.942 306.945 244.008C306.12 245.075 305.088 245.933 303.922 246.521C302.755 247.11 301.483 247.415 300.195 247.415Z" fill="#9ED3D8"/>
<path d="M99.1256 107.038H287.022L282.203 78.2644C282.001 77.0546 281.411 75.9598 280.536 75.1715C279.661 74.3832 278.556 73.9517 277.416 73.9524H95.423C95.1895 73.9525 94.9588 74.008 94.7474 74.1148C94.5359 74.2216 94.3488 74.3772 94.1993 74.5705C94.0498 74.7639 93.9415 74.9903 93.8822 75.2337C93.8228 75.4771 93.8138 75.7317 93.8558 75.9792L99.1256 107.038Z" fill="#EA6F06"/>
<path d="M103.525 65.2941C101.366 65.296 99.2948 66.2213 97.7673 67.8669C96.2397 69.5125 95.3803 71.744 95.3777 74.0717H96.9466C96.9466 72.1902 97.6401 70.3859 98.8745 69.0555C100.109 67.7251 101.783 66.9777 103.529 66.9777C105.275 66.9777 106.949 67.7251 108.183 69.0555C109.418 70.3859 110.111 72.1902 110.111 74.0717C110.114 74.8349 110.001 75.5934 109.776 76.3171C109.456 77.3479 108.92 78.2858 108.211 79.0587C107.502 79.8316 106.637 80.4189 105.684 80.7755C105.111 80.9915 104.512 81.1192 103.906 81.1549V82.8457C104.613 82.8124 105.313 82.6788 105.988 82.4483C107.843 81.8164 109.426 80.4901 110.453 78.7091C111.479 76.9282 111.88 74.8102 111.583 72.7382C111.287 70.6663 110.312 68.7771 108.835 67.4124C107.359 66.0477 105.477 65.2976 103.532 65.2977L103.525 65.2941Z" fill="#A0A4A8"/>
<path d="M106.045 81.9424C106.044 82.1139 106.023 82.2846 105.981 82.45C105.862 82.9159 105.583 83.3155 105.201 83.568C104.818 83.8205 104.361 83.9071 103.922 83.8103C103.483 83.7134 103.094 83.4403 102.835 83.0463C102.575 82.6522 102.464 82.1666 102.524 81.6878C102.584 81.2089 102.811 80.7725 103.158 80.4669C103.506 80.1613 103.948 80.0093 104.395 80.0416C104.842 80.074 105.262 80.2883 105.568 80.6412C105.874 80.9941 106.045 81.4592 106.045 81.9424Z" fill="#AEAEAE"/>
<path d="M132.733 65.2941C130.573 65.296 128.502 66.2213 126.975 67.867C125.448 69.5126 124.589 71.7441 124.586 74.0717H126.15C126.15 72.7691 126.483 71.4916 127.112 70.3793C127.741 69.2671 128.642 68.3629 129.716 67.766C130.791 67.1691 131.997 66.9025 133.202 66.9955C134.408 67.0884 135.566 67.5373 136.551 68.2929C137.535 69.0486 138.308 70.0817 138.783 71.2792C139.259 72.4767 139.42 73.7922 139.248 75.0815C139.076 76.3708 138.577 77.5842 137.808 78.5886C137.038 79.593 136.027 80.3496 134.885 80.7755C134.311 80.9916 133.713 81.1194 133.106 81.1549V82.8457C133.813 82.8122 134.513 82.6786 135.188 82.4483C137.043 81.8164 138.627 80.4901 139.653 78.7091C140.679 76.9282 141.08 74.8102 140.784 72.7382C140.487 70.6663 139.512 68.7771 138.035 67.4124C136.559 66.0477 134.678 65.2976 132.733 65.2977V65.2941Z" fill="#A0A4A8"/>
<path d="M135.25 81.9423C135.25 82.1137 135.229 82.2844 135.188 82.4499C135.07 82.921 134.79 83.326 134.405 83.5829C134.019 83.8398 133.558 83.9294 133.114 83.8336C132.67 83.7378 132.277 83.4636 132.013 83.0668C131.75 82.6699 131.636 82.1799 131.695 81.696C131.754 81.2122 131.982 80.7706 132.331 80.4608C132.681 80.1509 133.127 79.996 133.579 80.0273C134.031 80.0586 134.455 80.2738 134.765 80.6294C135.076 80.9849 135.249 81.4543 135.25 81.9423Z" fill="#AEAEAE"/>
<path d="M161.941 65.2941C159.781 65.296 157.711 66.2213 156.183 67.867C154.656 69.5126 153.797 71.7441 153.795 74.0717H155.357C155.385 72.2096 156.09 70.4339 157.322 69.1275C158.553 67.8212 160.212 67.0891 161.94 67.0891C163.668 67.0891 165.327 67.8212 166.558 69.1275C167.79 70.4339 168.496 72.2096 168.523 74.0717C168.526 74.8349 168.413 75.5934 168.188 76.3171C167.868 77.3477 167.332 78.2854 166.623 79.0582C165.914 79.8311 165.051 80.4185 164.098 80.7755C163.524 80.9915 162.925 81.1192 162.318 81.1549V82.8457C163.025 82.8122 163.725 82.6786 164.4 82.4483C166.254 81.8165 167.838 80.4903 168.864 78.7095C169.891 76.9287 170.292 74.811 169.995 72.7391C169.699 70.6673 168.724 68.7781 167.248 67.4133C165.772 66.0485 163.891 65.298 161.946 65.2977L161.941 65.2941Z" fill="#A0A4A8"/>
<path d="M164.459 81.9424C164.458 82.1139 164.437 82.2846 164.395 82.45C164.276 82.9168 163.996 83.3173 163.613 83.5704C163.23 83.8235 162.772 83.9104 162.332 83.8134C161.892 83.7164 161.502 83.4428 161.242 83.048C160.982 82.6532 160.871 82.1666 160.931 81.6868C160.991 81.2069 161.219 80.7697 161.567 80.4635C161.915 80.1573 162.358 80.005 162.806 80.0375C163.254 80.07 163.674 80.2848 163.981 80.6385C164.288 80.9921 164.459 81.4582 164.459 81.9424Z" fill="#AEAEAE"/>
<path d="M191.146 65.2941C188.987 65.2965 186.917 66.222 185.39 67.8676C183.863 69.5132 183.004 71.7444 183.002 74.0717H184.566C184.566 72.7691 184.898 71.4916 185.527 70.3793C186.156 69.2671 187.057 68.3629 188.132 67.766C189.206 67.1691 190.412 66.9026 191.618 66.9955C192.823 67.0884 193.982 67.5373 194.966 68.2929C195.951 69.0486 196.723 70.0817 197.199 71.2792C197.674 72.4766 197.835 73.7922 197.663 75.0815C197.491 76.3708 196.993 77.5842 196.223 78.5886C195.454 79.5929 194.442 80.3496 193.3 80.7755C192.727 80.9915 192.128 81.1192 191.522 81.1548V82.8457C192.229 82.8121 192.929 82.6784 193.603 82.4483C195.461 81.8185 197.048 80.4924 198.076 78.7103C199.105 76.9282 199.507 74.8081 199.21 72.734C198.912 70.6599 197.936 68.7691 196.457 67.4043C194.977 66.0394 193.093 65.2908 191.146 65.2941Z" fill="#A0A4A8"/>
<path d="M193.661 81.9424C193.66 82.1139 193.639 82.2846 193.597 82.45C193.478 82.9159 193.199 83.3155 192.816 83.568C192.434 83.8205 191.977 83.9071 191.538 83.8103C191.098 83.7134 190.71 83.4403 190.45 83.0463C190.191 82.6522 190.08 82.1666 190.14 81.6878C190.2 81.2089 190.426 80.7725 190.774 80.4669C191.121 80.1613 191.563 80.0093 192.011 80.0416C192.458 80.074 192.877 80.2883 193.184 80.6412C193.49 80.9941 193.66 81.4592 193.661 81.9424Z" fill="#AEAEAE"/>
<path d="M220.355 65.2941C218.195 65.296 216.125 66.2213 214.597 67.867C213.07 69.5126 212.211 71.7441 212.209 74.0717H213.774C213.774 72.7685 214.107 71.4904 214.736 70.3775C215.365 69.2646 216.266 68.3598 217.34 67.7625C218.415 67.1651 219.622 66.8982 220.828 66.9911C222.034 67.084 223.193 67.533 224.178 68.2889C225.163 69.0449 225.935 70.0785 226.411 71.2765C226.887 72.4745 227.047 73.7906 226.875 75.0805C226.703 76.3703 226.204 77.5841 225.434 78.5887C224.664 79.5932 223.652 80.3498 222.509 80.7755C221.936 80.9917 221.338 81.1194 220.732 81.1549V82.8457C221.439 82.8123 222.138 82.6787 222.812 82.4483C224.667 81.8165 226.251 80.4903 227.277 78.7095C228.303 76.9287 228.704 74.811 228.408 72.7391C228.112 70.6673 227.137 68.7781 225.661 67.4133C224.184 66.0485 222.303 65.298 220.358 65.2977L220.355 65.2941Z" fill="#A0A4A8"/>
<path d="M222.872 81.9424C222.872 82.1139 222.851 82.2846 222.809 82.45C222.689 82.9159 222.41 83.3155 222.028 83.568C221.646 83.8205 221.189 83.9071 220.75 83.8103C220.31 83.7134 219.922 83.4403 219.662 83.0463C219.403 82.6522 219.292 82.1666 219.352 81.6878C219.412 81.2089 219.638 80.7725 219.986 80.4669C220.333 80.1613 220.775 80.0093 221.222 80.0416C221.67 80.074 222.089 80.2883 222.395 80.6412C222.702 80.9941 222.872 81.4592 222.872 81.9424Z" fill="#AEAEAE"/>
<path d="M249.564 65.2941C247.404 65.296 245.333 66.2213 243.805 67.8669C242.278 69.5125 241.418 71.744 241.416 74.0717H242.98C242.98 72.7691 243.312 71.4916 243.941 70.3793C244.57 69.2671 245.471 68.3629 246.546 67.766C247.62 67.1691 248.826 66.9025 250.032 66.9955C251.237 67.0884 252.396 67.5373 253.38 68.2929C254.365 69.0486 255.137 70.0817 255.613 71.2792C256.089 72.4767 256.249 73.7922 256.077 75.0815C255.905 76.3708 255.407 77.5842 254.637 78.5886C253.868 79.593 252.856 80.3496 251.714 80.7755C251.141 80.9916 250.542 81.1194 249.936 81.1549V82.8457C250.643 82.8124 251.343 82.6788 252.017 82.4483C253.872 81.8165 255.456 80.4903 256.482 78.7095C257.508 76.9287 257.91 74.811 257.613 72.7391C257.317 70.6673 256.342 68.7781 254.866 67.4133C253.389 66.0485 251.509 65.298 249.564 65.2977V65.2941Z" fill="#A0A4A8"/>
<path d="M252.081 81.9424C252.081 82.1139 252.059 82.2846 252.018 82.45C251.898 82.9159 251.619 83.3155 251.237 83.568C250.855 83.8205 250.398 83.9071 249.958 83.8103C249.519 83.7134 249.131 83.4403 248.871 83.0463C248.611 82.6522 248.501 82.1666 248.561 81.6878C248.621 81.2089 248.847 80.7725 249.195 80.4669C249.542 80.1613 249.984 80.0093 250.431 80.0416C250.879 80.074 251.298 80.2883 251.604 80.6412C251.911 80.9941 252.081 81.4592 252.081 81.9424Z" fill="#AEAEAE"/>
<path d="M278.769 65.2941C276.609 65.2965 274.539 66.222 273.012 67.8676C271.485 69.5132 270.626 71.7445 270.624 74.0717H272.186C272.186 72.7685 272.518 71.4904 273.148 70.3775C273.777 69.2646 274.678 68.3598 275.752 67.7625C276.827 67.1651 278.034 66.8982 279.24 66.9911C280.446 67.084 281.605 67.533 282.59 68.2889C283.575 69.0449 284.347 70.0785 284.823 71.2765C285.299 72.4745 285.46 73.7906 285.287 75.0805C285.115 76.3703 284.616 77.5841 283.846 78.5887C283.076 79.5932 282.064 80.3498 280.921 80.7755C280.348 80.9917 279.75 81.1194 279.144 81.1549V82.8457C279.851 82.8122 280.551 82.6786 281.226 82.4483C283.081 81.8164 284.665 80.4899 285.691 78.7087C286.717 76.9276 287.118 74.8094 286.821 72.7373C286.525 70.6652 285.549 68.7761 284.072 67.4115C282.595 66.047 280.714 65.2972 278.769 65.2977V65.2941Z" fill="#A0A4A8"/>
<path d="M281.288 81.9428C281.288 82.1142 281.267 82.2849 281.226 82.4504C281.108 82.92 280.829 83.3238 280.445 83.5798C280.061 83.8358 279.601 83.9251 279.158 83.8294C278.715 83.7338 278.323 83.4604 278.06 83.0647C277.798 82.6689 277.684 82.1804 277.743 81.6979C277.802 81.2155 278.029 80.7752 278.378 80.4663C278.727 80.1573 279.171 80.0027 279.622 80.0338C280.072 80.065 280.495 80.2794 280.805 80.6339C281.114 80.9883 281.287 81.4562 281.288 81.9428Z" fill="#AEAEAE"/>
<path d="M207.794 161.091H198.295C197.197 161.091 196.126 160.125 195.913 158.94L194.081 148.702C193.87 147.519 194.594 146.551 195.694 146.551H205.192C206.29 146.551 207.361 147.519 207.572 148.702L209.406 158.94C209.617 160.125 208.892 161.091 207.794 161.091Z" fill="#E5F8FA"/>
<path d="M231.763 161.091H222.264C221.166 161.091 220.095 160.125 219.884 158.94L218.05 148.702C217.839 147.519 218.565 146.551 219.663 146.551H229.161C230.259 146.551 231.33 147.519 231.543 148.702L233.375 158.94C233.586 160.125 232.862 161.091 231.763 161.091Z" fill="#E5F8FA"/>
<path d="M255.733 161.091H246.235C245.135 161.091 244.056 160.125 243.853 158.94L242.021 148.702C241.808 147.519 242.534 146.551 243.632 146.551H253.13C254.228 146.551 255.299 147.519 255.512 148.702L257.344 158.94C257.555 160.125 256.831 161.091 255.733 161.091Z" fill="#B2E9ED"/>
<path d="M135.887 161.091H126.388C125.29 161.091 124.209 160.125 124.007 158.94L122.175 148.702C121.962 147.519 122.687 146.551 123.785 146.551H133.284C134.382 146.551 135.463 147.519 135.666 148.702L137.498 158.94C137.711 160.125 136.985 161.091 135.887 161.091Z" fill="#E5F8FA"/>
<path d="M125.477 130.355H121.393C121.152 130.345 120.921 130.248 120.736 130.081C120.551 129.913 120.423 129.685 120.371 129.431L119.583 125.032C119.557 124.92 119.556 124.803 119.579 124.691C119.602 124.578 119.648 124.473 119.716 124.384C119.783 124.294 119.868 124.222 119.965 124.174C120.062 124.126 120.169 124.103 120.275 124.107H124.357C124.599 124.117 124.83 124.214 125.015 124.381C125.201 124.548 125.329 124.777 125.381 125.032L126.169 129.431C126.195 129.542 126.196 129.659 126.173 129.771C126.15 129.884 126.104 129.989 126.037 130.079C125.969 130.169 125.884 130.24 125.787 130.288C125.69 130.336 125.583 130.359 125.477 130.355Z" fill="#EA6F06"/>
<path d="M159.856 161.091H150.357C149.259 161.091 148.178 160.125 147.975 158.94L146.143 148.702C145.932 147.519 146.656 146.551 147.754 146.551H157.253C158.351 146.551 159.432 147.519 159.635 148.702L161.467 158.94C161.68 160.125 160.954 161.091 159.856 161.091Z" fill="#E5F8FA"/>
<path d="M183.825 161.091H174.326C173.228 161.091 172.157 160.125 171.944 158.94L170.112 148.702C169.901 147.519 170.625 146.551 171.723 146.551H181.222C182.322 146.551 183.401 147.519 183.604 148.702L185.436 158.94C185.649 160.125 184.923 161.091 183.825 161.091Z" fill="#E5F8FA"/>
<path d="M279.702 161.091H270.203C269.106 161.091 268.033 160.125 267.822 158.94L265.99 148.702C265.777 147.519 266.502 146.551 267.6 146.551H277.099C278.197 146.551 279.27 147.519 279.481 148.702L281.313 158.94C281.526 160.125 280.8 161.091 279.702 161.091Z" fill="#B2E9ED"/>
<path d="M203.815 138.857H194.316C193.218 138.857 192.137 137.889 191.934 136.705L190.102 126.468C189.891 125.285 190.615 124.317 191.713 124.317H201.212C202.309 124.317 203.391 125.285 203.593 126.468L205.425 136.705C205.638 137.889 204.913 138.857 203.815 138.857Z" fill="#E5F8FA"/>
<path d="M227.783 138.857H218.285C217.187 138.857 216.116 137.889 215.903 136.705L214.071 126.468C213.86 125.285 214.584 124.317 215.682 124.317H225.18C226.28 124.317 227.359 125.285 227.562 126.468L229.396 136.705C229.607 137.889 228.881 138.857 227.783 138.857Z" fill="#E5F8FA"/>
<path d="M251.753 138.857H242.254C241.156 138.857 240.085 137.889 239.874 136.705L238.04 126.468C237.829 125.285 238.555 124.317 239.653 124.317H249.151C250.249 124.317 251.32 125.285 251.533 126.468L253.365 136.705C253.576 137.889 252.851 138.857 251.753 138.857Z" fill="#B2E9ED"/>
<path d="M275.723 138.857H266.224C265.125 138.857 264.045 137.889 263.843 136.705L262.009 126.468C261.798 125.285 262.523 124.317 263.621 124.317H273.12C274.218 124.317 275.289 125.285 275.502 126.468L277.334 136.705C277.545 137.889 276.821 138.857 275.723 138.857Z" fill="#B2E9ED"/>
<path d="M212.013 184.658H202.514C201.416 184.658 200.335 183.69 200.132 182.506L198.3 172.266C198.087 171.082 198.813 170.114 199.911 170.114H209.416C210.514 170.114 211.595 171.082 211.798 172.266L213.63 182.503C213.834 183.69 213.104 184.658 212.013 184.658Z" fill="#E5F8FA"/>
<path d="M235.982 184.658H226.483C225.385 184.658 224.304 183.69 224.101 182.506L222.269 172.266C222.056 171.082 222.782 170.114 223.88 170.114H233.385C234.483 170.114 235.564 171.082 235.767 172.266L237.599 182.503C237.805 183.69 237.073 184.658 235.982 184.658Z" fill="#E5F8FA"/>
<path d="M259.95 184.658H250.452C249.354 184.658 248.283 183.69 248.07 182.506L246.238 172.266C246.027 171.082 246.751 170.114 247.849 170.114H257.354C258.452 170.114 259.533 171.082 259.736 172.266L261.568 182.503C261.774 183.69 261.042 184.658 259.95 184.658Z" fill="#B2E9ED"/>
<path d="M140.104 184.658H130.606C129.508 184.658 128.437 183.69 128.224 182.506L126.392 172.266C126.181 171.082 126.905 170.114 128.004 170.114H137.51C138.608 170.114 139.679 171.082 139.89 172.266L141.724 182.503C141.928 183.69 141.197 184.658 140.104 184.658Z" fill="#E5F8FA"/>
<path d="M164.073 184.658H154.574C153.476 184.658 152.405 183.69 152.193 182.506L150.361 172.266C150.149 171.082 150.875 170.114 151.973 170.114H161.478C162.576 170.114 163.647 171.082 163.86 172.266L165.692 182.503C165.897 183.69 165.166 184.658 164.073 184.658Z" fill="#E5F8FA"/>
<path d="M188.044 184.658H178.545C177.445 184.658 176.366 183.69 176.163 182.506L174.329 172.266C174.118 171.082 174.844 170.114 175.942 170.114H185.447C186.545 170.114 187.616 171.082 187.829 172.266L189.661 182.503C189.866 183.69 189.135 184.658 188.044 184.658Z" fill="#E5F8FA"/>
<path d="M283.92 184.658H274.421C273.323 184.658 272.252 183.69 272.039 182.506L270.207 172.266C269.996 171.082 270.72 170.114 271.818 170.114H281.323C282.421 170.114 283.492 171.082 283.703 172.266L285.537 182.503C285.743 183.69 285.011 184.658 283.92 184.658Z" fill="#B2E9ED"/>
<path d="M216.23 208.224H206.735C205.637 208.224 204.566 207.255 204.353 206.072L202.521 195.835C202.31 194.652 203.034 193.684 204.132 193.684H213.632C214.73 193.684 215.801 194.652 216.012 195.835L217.846 206.072C218.054 207.255 217.328 208.224 216.23 208.224Z" fill="#E5F8FA"/>
<path d="M240.199 208.224H230.703C229.606 208.224 228.535 207.255 228.322 206.072L226.49 195.835C226.278 194.652 227.003 193.684 228.102 193.684H237.601C238.699 193.684 239.77 194.652 239.981 195.835L241.815 206.072C242.022 207.255 241.297 208.224 240.199 208.224Z" fill="#E5F8FA"/>
<path d="M264.168 208.224H254.673C253.575 208.224 252.504 207.255 252.292 206.072L250.459 195.835C250.247 194.652 250.973 193.684 252.071 193.684H261.57C262.668 193.684 263.739 194.652 263.952 195.835L265.784 206.072C265.992 207.255 265.267 208.224 264.168 208.224Z" fill="#B2E9ED"/>
<path d="M144.323 208.224H134.828C133.728 208.224 132.649 207.255 132.446 206.072L130.614 195.835C130.401 194.652 131.127 193.684 132.225 193.684H141.723C142.821 193.684 143.892 194.652 144.105 195.835L145.937 206.072C146.145 207.255 145.421 208.224 144.323 208.224Z" fill="#E5F8FA"/>
<path d="M168.292 208.224H158.797C157.699 208.224 156.618 207.255 156.415 206.072L154.583 195.835C154.37 194.652 155.096 193.684 156.194 193.684H165.692C166.79 193.684 167.871 194.652 168.074 195.835L169.906 206.072C170.116 207.255 169.39 208.224 168.292 208.224Z" fill="#EA6F06"/>
<path d="M192.261 208.224H182.766C181.668 208.224 180.587 207.255 180.384 206.072L178.552 195.835C178.341 194.652 179.065 193.684 180.163 193.684H189.661C190.759 193.684 191.84 194.652 192.043 195.835L193.875 206.072C194.085 207.255 193.359 208.224 192.261 208.224Z" fill="#E5F8FA"/>
<path d="M288.138 208.224H278.641C277.544 208.224 276.471 207.255 276.26 206.072L274.428 195.835C274.215 194.652 274.94 193.684 276.038 193.684H285.537C286.635 193.684 287.708 194.652 287.919 195.835L289.751 206.072C289.96 207.255 289.236 208.224 288.138 208.224Z" fill="#B2E9ED"/>
<path d="M220.209 230.46H210.71C209.613 230.46 208.542 229.491 208.329 228.308L206.497 218.071C206.285 216.886 207.011 215.917 208.109 215.917H217.608C218.706 215.917 219.777 216.886 219.99 218.071L221.822 228.308C222.033 229.491 221.317 230.46 220.209 230.46Z" fill="#E5F8FA"/>
<path d="M244.18 230.46H234.681C233.581 230.46 232.502 229.491 232.299 228.308L230.465 218.071C230.254 216.886 230.98 215.917 232.078 215.917H241.577C242.674 215.917 243.745 216.886 243.958 218.071L245.79 228.308C246.002 229.491 245.286 230.46 244.18 230.46Z" fill="#E5F8FA"/>
<path d="M268.148 230.46H258.65C257.552 230.46 256.471 229.491 256.268 228.308L254.436 218.071C254.223 216.886 254.949 215.917 256.047 215.917H265.545C266.643 215.917 267.724 216.886 267.927 218.071L269.759 228.308C269.97 229.491 269.255 230.46 268.148 230.46Z" fill="#B2E9ED"/>
<path d="M148.302 230.46H138.804C137.706 230.46 136.625 229.491 136.422 228.308L134.59 218.071C134.377 216.886 135.103 215.917 136.2 215.917H145.699C146.797 215.917 147.878 216.886 148.081 218.071L149.913 228.308C150.126 229.491 149.4 230.46 148.302 230.46Z" fill="#E5F8FA"/>
<path d="M172.271 230.46H162.772C161.675 230.46 160.593 229.491 160.391 228.308L158.559 218.071C158.347 216.886 159.071 215.917 160.169 215.917H169.668C170.766 215.917 171.847 216.886 172.05 218.071L173.882 228.308C174.095 229.491 173.369 230.46 172.271 230.46Z" fill="#E5F8FA"/>
<path d="M196.24 230.46H186.741C185.643 230.46 184.572 229.491 184.359 228.308L182.527 218.071C182.316 216.886 183.04 215.917 184.14 215.917H193.638C194.736 215.917 195.807 216.886 196.019 218.071L197.852 228.308C198.064 229.491 197.338 230.46 196.24 230.46Z" fill="#E5F8FA"/>
<path d="M154.271 126.317H129.102C128.924 126.317 128.753 126.241 128.628 126.105C128.502 125.97 128.431 125.786 128.431 125.594C128.431 125.403 128.502 125.219 128.628 125.083C128.753 124.948 128.924 124.872 129.102 124.872H154.271C154.449 124.872 154.619 124.948 154.745 125.083C154.871 125.219 154.941 125.403 154.941 125.594C154.941 125.786 154.871 125.97 154.745 126.105C154.619 126.241 154.449 126.317 154.271 126.317Z" fill="#E5F8FA"/>
<path d="M155.032 129.603H129.866C129.688 129.603 129.518 129.527 129.392 129.391C129.266 129.256 129.196 129.072 129.196 128.88C129.196 128.689 129.266 128.505 129.392 128.369C129.518 128.234 129.688 128.158 129.866 128.158H155.032C155.21 128.158 155.38 128.234 155.506 128.369C155.632 128.505 155.702 128.689 155.702 128.88C155.702 129.072 155.632 129.256 155.506 129.391C155.38 129.527 155.21 129.603 155.032 129.603Z" fill="#E5F8FA"/>
<path d="M127.285 101.858H118.649C118.309 101.858 117.982 101.711 117.741 101.452C117.501 101.192 117.365 100.84 117.364 100.473C117.364 100.105 117.5 99.7531 117.741 99.4931C117.982 99.2331 118.309 99.0865 118.649 99.0856H127.285C127.626 99.0865 127.953 99.2331 128.194 99.4931C128.435 99.7531 128.57 100.105 128.571 100.473C128.57 100.84 128.434 101.192 128.193 101.452C127.952 101.711 127.626 101.858 127.285 101.858Z" fill="#F8F8F8"/>
<path d="M150.972 101.858H142.337C141.996 101.858 141.669 101.711 141.428 101.452C141.187 101.192 141.051 100.84 141.049 100.473C141.05 100.105 141.186 99.7529 141.427 99.493C141.669 99.233 141.996 99.0865 142.337 99.0856H150.972C151.313 99.0865 151.64 99.2331 151.881 99.4931C152.122 99.7531 152.257 100.105 152.258 100.473C152.257 100.84 152.121 101.192 151.88 101.452C151.639 101.711 151.313 101.858 150.972 101.858Z" fill="#F8F8F8"/>
<path d="M174.668 101.858H166.031C165.69 101.857 165.364 101.711 165.123 101.451C164.882 101.192 164.747 100.84 164.745 100.473C164.746 100.106 164.882 99.7535 165.123 99.4936C165.364 99.2337 165.69 99.087 166.031 99.0856H174.668C175.009 99.0865 175.336 99.2331 175.577 99.4931C175.818 99.7531 175.953 100.105 175.954 100.473C175.953 100.84 175.817 101.192 175.576 101.452C175.335 101.711 175.009 101.858 174.668 101.858Z" fill="#F8F8F8"/>
<path d="M198.362 101.858H189.727C189.386 101.858 189.06 101.711 188.819 101.452C188.578 101.192 188.442 100.84 188.441 100.473C188.442 100.105 188.577 99.7531 188.818 99.4931C189.059 99.2331 189.386 99.0865 189.727 99.0856H198.362C198.703 99.0865 199.03 99.233 199.272 99.493C199.513 99.7529 199.649 100.105 199.65 100.473C199.648 100.84 199.512 101.192 199.271 101.452C199.03 101.711 198.703 101.858 198.362 101.858Z" fill="#F8F8F8"/>
<path d="M222.058 101.858H213.422C213.082 101.858 212.755 101.711 212.514 101.452C212.273 101.192 212.138 100.84 212.137 100.473C212.137 100.105 212.273 99.7531 212.514 99.4931C212.755 99.2331 213.081 99.0865 213.422 99.0856H222.058C222.399 99.0865 222.726 99.2331 222.967 99.4931C223.208 99.7531 223.343 100.105 223.344 100.473C223.343 100.84 223.207 101.192 222.966 101.452C222.725 101.711 222.399 101.858 222.058 101.858Z" fill="#F8F8F8"/>
<path d="M245.753 101.858H237.118C236.777 101.858 236.45 101.711 236.209 101.452C235.968 101.192 235.832 100.84 235.831 100.473C235.831 100.105 235.967 99.7529 236.209 99.493C236.45 99.233 236.777 99.0865 237.118 99.0856H245.753C246.094 99.0865 246.421 99.2331 246.662 99.4931C246.903 99.7531 247.039 100.105 247.039 100.473C247.038 100.84 246.902 101.192 246.662 101.452C246.421 101.711 246.094 101.858 245.753 101.858Z" fill="#F8F8F8"/>
<path d="M269.449 101.858H260.814C260.473 101.858 260.146 101.711 259.905 101.452C259.664 101.192 259.528 100.84 259.526 100.473C259.527 100.105 259.663 99.7529 259.904 99.493C260.146 99.233 260.473 99.0865 260.814 99.0856H269.449C269.79 99.0865 270.117 99.2331 270.358 99.4931C270.599 99.7531 270.734 100.105 270.735 100.473C270.734 100.84 270.598 101.192 270.357 101.452C270.116 101.711 269.79 101.858 269.449 101.858Z" fill="#F8F8F8"/>
<path d="M214.832 139.059C212.926 139.059 211.537 138.407 210.781 137.141C209.329 134.713 210.445 131.309 214.109 127.024C215.901 124.974 217.85 123.09 219.936 121.392C219.965 121.368 219.998 121.351 220.034 121.341C220.069 121.331 220.106 121.329 220.142 121.334C220.178 121.34 220.213 121.353 220.244 121.373C220.276 121.393 220.303 121.419 220.325 121.451C220.347 121.482 220.364 121.518 220.373 121.556C220.382 121.594 220.384 121.634 220.379 121.673C220.374 121.712 220.362 121.749 220.343 121.783C220.325 121.817 220.3 121.847 220.271 121.871C220.149 121.968 208.116 131.57 211.252 136.817C212.246 138.479 214.373 138.589 215.983 138.389C218.965 138.017 222.856 136.286 226.376 133.759C230.03 131.143 232.604 128.197 233.437 125.671C233.985 124.017 233.816 122.844 232.934 122.187C231.796 121.338 229.414 121.336 226.565 122.187C223.84 122.998 221.097 124.459 219.408 126C219.351 126.045 219.281 126.065 219.212 126.056C219.142 126.047 219.078 126.01 219.033 125.953C218.988 125.895 218.964 125.821 218.968 125.746C218.971 125.671 219.001 125.599 219.051 125.547C220.797 123.953 223.62 122.447 226.426 121.614C229.471 120.711 231.957 120.738 233.248 121.699C234.012 122.27 234.756 123.457 233.957 125.874C233.083 128.517 230.437 131.571 226.681 134.256C223.082 136.832 219.104 138.591 216.04 138.98C215.639 139.031 215.236 139.058 214.832 139.059Z" fill="#C02215"/>
<path d="M40.1773 246.629C39.3711 245.263 36.944 241.719 33.7107 242.189C30.1908 242.7 37.6011 245.204 39.8706 246.64C39.4468 246.664 39.0223 246.61 38.6151 246.481C37.0982 245.899 34.4985 247.023 33.6688 247.409H48.1122C47.9485 246.811 47.5793 246.302 47.0797 245.986C46.8434 245.829 46.3657 245.805 45.7505 245.858C46.6087 244.774 47.2054 241.28 44.8152 242.178C43.0687 242.834 43.0737 244.963 43.2447 246.223C42.8726 246.286 42.4954 246.349 42.1233 246.403C41.4043 242.452 38.8615 230.868 33.7057 230.568C28.4794 230.255 38.1374 242.573 41.354 246.513C40.945 246.571 40.5444 246.611 40.1773 246.629Z" fill="#82B378"/>
<path d="M331.661 249.955H32.5237C32.3363 249.955 32.1843 250.202 32.1843 250.508V250.697C32.1843 251.003 32.3363 251.25 32.5237 251.25H331.661C331.848 251.25 332 251.003 332 250.697V250.508C332 250.202 331.848 249.955 331.661 249.955Z" fill="#CCCCCC"/>
</g>
<defs>
<clipPath id="clip0_1462_210">
<rect width="373" height="268" fill="white"/>
</clipPath>
</defs>
</svg>
