<svg width="16" height="16" viewBox="0 0 16 16" fill="none" xmlns="http://www.w3.org/2000/svg">
<path d="M4.66665 14.6667H2.66665C2.31302 14.6667 1.97389 14.5262 1.72384 14.2762C1.47379 14.0261 1.33331 13.687 1.33331 13.3334V8.66671C1.33331 8.31308 1.47379 7.97395 1.72384 7.7239C1.97389 7.47385 2.31302 7.33337 2.66665 7.33337H4.66665M9.33331 6.00004V3.33337C9.33331 2.80294 9.1226 2.29423 8.74753 1.91916C8.37245 1.54409 7.86375 1.33337 7.33331 1.33337L4.66665 7.33337V14.6667H12.1866C12.5082 14.6703 12.8202 14.5576 13.0652 14.3494C13.3103 14.1411 13.4718 13.8513 13.52 13.5334L14.44 7.53337C14.469 7.34228 14.4561 7.14716 14.4022 6.96154C14.3483 6.77592 14.2547 6.60424 14.1279 6.45838C14.0011 6.31253 13.844 6.19599 13.6677 6.11685C13.4914 6.03771 13.2999 5.99785 13.1066 6.00004H9.33331Z" stroke="#52575C" stroke-width="2" stroke-linecap="round" stroke-linejoin="round"/>
</svg>
