<svg width="24" height="24" viewBox="0 0 24 24" fill="none" xmlns="http://www.w3.org/2000/svg">
<path d="M22.7773 5.69543L18.3053 1.22266C18.0076 0.925778 17.5266 0.925778 17.2297 1.22266C16.9328 1.51955 16.9328 2.00057 17.2297 2.29827L17.7797 2.84824L16.3147 4.3132C15.7898 3.9644 15.1741 3.77621 14.5293 3.77621C13.6654 3.77621 12.8534 4.11284 12.2425 4.72365L4.42602 12.5384C3.16463 13.7998 3.16463 15.852 4.42683 17.115L5.11795 17.8069L1.22267 21.7013C0.925777 21.9982 0.925777 22.48 1.22267 22.7769C1.37193 22.9254 1.5658 23 1.76048 23C1.95516 23 2.14904 22.9254 2.29829 22.7769L6.19358 18.8809L6.88551 19.5728C7.49633 20.1836 8.30832 20.5203 9.17223 20.5203C10.0361 20.5203 10.8489 20.1828 11.4606 19.572L19.2755 11.7573C20.3803 10.6525 20.5174 8.94008 19.6867 7.6844L21.1525 6.21944L21.7017 6.76941C21.851 6.91785 22.0448 6.99167 22.2395 6.99167C22.4342 6.99167 22.6281 6.91785 22.7773 6.76941C23.0742 6.47414 23.0742 5.99231 22.7773 5.69543ZM10.3858 18.4972C10.0613 18.8217 9.63055 19.0001 9.17223 19.0001C8.71472 19.0001 8.28399 18.8217 7.96033 18.4972L5.50164 16.0386C4.98654 15.5235 4.87298 14.761 5.1504 14.1307L6.88876 15.8699L7.96438 14.7943L6.14247 12.9716L6.80602 12.308L8.62874 14.1299L9.70355 13.0543L7.88164 11.2324L8.546 10.5681L10.3679 12.3892L11.4427 11.3144L9.62162 9.49249L10.3841 8.72999L15.2674 13.614L10.3858 18.4972ZM18.2007 10.6825L16.3439 12.5392L11.4606 7.6552L13.3182 5.79763C13.641 5.47398 14.0718 5.29552 14.5284 5.29552C14.9868 5.29552 15.4175 5.47398 15.7412 5.79763L18.1998 8.25627C18.8683 8.92629 18.8683 10.0141 18.2007 10.6825ZM18.6582 6.56418L17.4357 5.34176L18.8545 3.92303L20.0769 5.14546L18.6582 6.56418Z" fill="white"/>
</svg>
